<?xml version="1.0" encoding="UTF-8"?>
<svg version="1.1" xmlns="http://www.w3.org/2000/svg" width="1200" height="1946">
<path d="M0 0 C391.05 0 782.1 0 1185 0 C1185 578.49 1185 1156.98 1185 1753 C793.95 1753 402.9 1753 0 1753 C0 1174.51 0 596.02 0 0 Z " fill="#FEF100" transform="translate(8,8)"/>
<path d="M0 0 C391.05 0 782.1 0 1185 0 C1185 578.49 1185 1156.98 1185 1753 C793.95 1753 402.9 1753 0 1753 C0 1174.51 0 596.02 0 0 Z M70 70 C70 487.12 70 904.24 70 1334 C74.34850605 1329.65717689 74.34850605 1329.65717689 78.09375 1324.98828125 C78.64224609 1324.23998047 79.19074219 1323.49167969 79.75585938 1322.72070312 C80.33142578 1321.92599609 80.90699219 1321.13128906 81.5 1320.3125 C82.11166016 1319.47525391 82.72332031 1318.63800781 83.35351562 1317.77539062 C87.96205668 1311.45822467 92.53582912 1305.11567714 97.10571289 1298.77050781 C103.91512108 1289.3239062 110.8491304 1279.96915781 117.77050781 1270.60449219 C124.05501735 1262.09906265 130.32019635 1253.58191379 136.5 1245 C143.84024221 1234.80658134 151.30454358 1224.70598709 158.77050781 1214.60449219 C165.05501735 1206.09906265 171.32019635 1197.58191379 177.5 1189 C184.84024221 1178.80658134 192.30454358 1168.70598709 199.77050781 1158.60449219 C206.05501735 1150.09906265 212.32019635 1141.58191379 218.5 1133 C225.84024221 1122.80658134 233.30454358 1112.70598709 240.77050781 1102.60449219 C247.05501735 1094.09906265 253.32019635 1085.58191379 259.5 1077 C266.84024221 1066.80658134 274.30454358 1056.70598709 281.77050781 1046.60449219 C288.05501735 1038.09906265 294.32019635 1029.58191379 300.5 1021 C307.84024221 1010.80658134 315.30454358 1000.70598709 322.77050781 990.60449219 C329.05501735 982.09906265 335.32019635 973.58191379 341.5 965 C348.84024221 954.80658134 356.30454358 944.70598709 363.77050781 934.60449219 C370.05501735 926.09906265 376.32019635 917.58191379 382.5 909 C389.84024221 898.80658134 397.30454358 888.70598709 404.77050781 878.60449219 C411.05501735 870.09906265 417.32019635 861.58191379 423.5 853 C430.84024221 842.80658134 438.30454358 832.70598709 445.77050781 822.60449219 C452.05501735 814.09906265 458.32019635 805.58191379 464.5 797 C471.84024221 786.80658134 479.30454358 776.70598709 486.77050781 766.60449219 C493.05501735 758.09906265 499.32019635 749.58191379 505.5 741 C512.84024221 730.80658134 520.30454358 720.70598709 527.77050781 710.60449219 C534.59344048 701.370363 541.38499225 692.116601 548.0859375 682.79345703 C550.95703897 678.80532861 553.8532656 674.83824084 556.78515625 670.89453125 C557.73068359 669.62125977 557.73068359 669.62125977 558.6953125 668.32226562 C559.90418962 666.69736281 561.11622899 665.07480586 562.33203125 663.45507812 C565.56318174 659.11038862 568.42024156 654.76214577 571 650 C564.5214921 645.42041952 557.98196193 640.9558776 551.34765625 636.60546875 C550.45873184 636.02072281 549.56980743 635.43597687 548.65394592 634.83351135 C546.76556124 633.59141128 544.87677446 632.34992234 542.98760986 631.10900879 C538.01953576 627.84547391 533.0546301 624.57712731 528.08984375 621.30859375 C527.11486938 620.66681183 526.13989502 620.02502991 525.13537598 619.36380005 C517.7801719 614.51976808 510.44490919 609.64718786 503.125 604.75 C490.70065876 596.44039321 478.21276434 588.22847757 465.71728516 580.02636719 C464.95470398 579.52552612 464.1921228 579.02468506 463.40643311 578.50866699 C461.8924918 577.51441395 460.37821375 576.52067347 458.86358643 575.52746582 C454.86384199 572.90031305 450.8803769 570.25136679 446.91455078 567.57324219 C446.08681656 567.01571259 445.25908234 566.45818298 444.40626526 565.88375854 C442.81400581 564.80971296 441.22432237 563.73183605 439.63755798 562.64968872 C438.92708817 562.1708725 438.21661835 561.69205627 437.48461914 561.19873047 C436.85834122 560.77316864 436.23206329 560.34760681 435.58680725 559.90914917 C434.01557442 558.8342904 434.01557442 558.8342904 432 559 C432 558.34 432 557.68 432 557 C432.86970082 556.72759995 433.73940165 556.45519989 434.63545704 556.17454529 C437.8565673 555.05007165 440.78379092 553.73256464 443.83268738 552.20727539 C445.54560219 551.35396385 445.54560219 551.35396385 447.29312134 550.4834137 C448.54465549 549.85490512 449.79614951 549.22631663 451.04760742 548.59765625 C452.37708465 547.93345461 453.70673509 547.26959956 455.0365448 546.60606384 C458.64249502 544.80550869 462.24592899 542.99997072 465.84887862 541.19342041 C469.63965533 539.29362182 473.43255526 537.39807104 477.22517395 535.50195312 C483.60778215 532.31018077 489.98883542 529.11531758 496.36889648 525.91845703 C503.69682225 522.24667729 511.02679288 518.57900824 518.35799521 514.91377544 C526.20967019 510.98827895 534.05980818 507.05971635 541.90951753 503.13029099 C544.14530025 502.01134495 546.38135854 500.89295137 548.61748314 499.77468872 C562.94471149 492.60862931 577.26219847 485.43859647 591.39826965 477.8996582 C596.76788729 475.04388656 602.26938109 472.48597463 607.79296875 469.9453125 C612.53472764 467.73096455 617.18641713 465.3861692 621.80098248 462.92024231 C633.66298159 456.59160422 645.71356508 450.65310942 657.77865797 444.7245121 C662.4896012 442.40935065 667.19628361 440.08569791 671.90058899 437.75708008 C672.59163198 437.41503005 673.28267496 437.07298002 673.99465865 436.72056484 C676.829458 435.31722289 679.66412926 433.91362237 682.49876344 432.50994682 C690.47997772 428.55823876 698.46505604 424.6148013 706.46166992 420.69433594 C712.87014153 417.5524077 719.26983401 414.39334391 725.65994197 411.21422482 C729.02409132 409.54133602 732.39188965 407.87709352 735.77060509 406.23379517 C739.5306371 404.4047827 743.27073715 402.53808058 747.01049805 400.66796875 C748.11137756 400.13988617 749.21225708 399.61180359 750.34649658 399.06771851 C757.81249848 395.28000434 762.27283579 390.87030061 767 384 C767.82521233 382.8760755 768.65069116 381.75234658 769.4765625 380.62890625 C770.18554688 379.61699219 770.89453125 378.60507812 771.625 377.5625 C775.60222303 371.93072075 779.65446315 366.35881051 783.75 360.8125 C784.63764038 359.61004639 784.63764038 359.61004639 785.54321289 358.38330078 C787.36140282 355.92165336 789.1805784 353.46073719 791 351 C798.42110874 340.96027391 805.81196625 330.90201678 813.10571289 320.76928711 C817.61431413 314.5137479 822.18680605 308.30681654 826.76953125 302.10546875 C830.71415511 296.76142179 834.61958115 291.39081451 838.5 286 C845.84003533 275.80643537 853.30454606 265.70598373 860.77050781 255.60449219 C867.05501735 247.09906265 873.32019635 238.58191379 879.5 230 C886.84024221 219.80658134 894.30454358 209.70598709 901.77050781 199.60449219 C908.05501735 191.09906265 914.32019635 182.58191379 920.5 174 C927.84024221 163.80658134 935.30454358 153.70598709 942.77050781 143.60449219 C949.59965419 134.36195339 956.3920693 125.0961172 963.10571289 115.76928711 C967.53820185 109.61935125 972.0255735 103.51114042 976.54101562 97.421875 C980.65044419 91.86831926 984.69960059 86.27220012 988.7421875 80.66992188 C989.34474365 79.83523376 989.9472998 79.00054565 990.56811523 78.14056396 C992.04559241 76.09384075 993.52288213 74.04698253 995 72 C994.92777725 73.80534966 994.92777725 73.80534966 994.85409546 75.64717102 C994.66220561 80.45232683 994.47172358 85.25753773 994.28163528 90.06276512 C994.19232123 92.31779207 994.10273635 94.57280831 994.01288986 96.8278141 C993.43012267 111.47303523 992.88600249 126.11877303 992.39921522 140.7675097 C992.01198108 152.39326424 991.57796983 164.01674152 991.11078262 175.63955498 C990.8293061 182.6794875 990.57049681 189.71906811 990.35888672 196.76147461 C990.16934494 203.06658221 989.93925503 209.36874141 989.661919 215.67061883 C989.51858191 218.95795024 989.39989021 222.24292722 989.31880569 225.53246117 C988.91877457 241.20844296 987.56883619 252.00173501 976.38874054 263.53199768 C974.47073298 265.55947472 972.86783982 267.77536499 971.2578125 270.05078125 C970.47664062 271.11232422 970.47664062 271.11232422 969.6796875 272.1953125 C969.16664063 272.89398438 968.65359375 273.59265625 968.125 274.3125 C966.94012359 275.92319137 965.75522717 277.53386802 964.5703125 279.14453125 C963.68520996 280.34843506 963.68520996 280.34843506 962.78222656 281.57666016 C959.85769254 285.55322518 956.92864567 289.52646271 954 293.5 C952.83331112 295.08331696 951.66664447 296.66665031 950.5 298.25 C943.50000001 307.74999999 943.50000001 307.74999999 941.74926758 310.12597656 C940.5850201 311.70603832 939.42079477 313.28611639 938.2565918 314.86621094 C930.04312506 326.01363327 930.04312506 326.01363327 927.59472656 329.32421875 C926.40817533 330.93922876 925.23166995 332.5616686 924.06542969 334.19140625 C921.47067047 337.79663167 918.9230411 341.18468441 915.74609375 344.296875 C905.19913801 355.14924776 906.4758181 369.4291509 906.20379639 383.63096619 C906.02891942 391.92180457 905.38453033 400.15847709 904.70553589 408.42089844 C903.51405484 423.00950912 902.58412457 437.60297137 901.81787109 452.2194519 C901.28729146 462.31151874 900.61020277 472.37703348 899.74755859 482.44677734 C899.00907012 491.31007297 898.52800463 500.18181171 898.0625 509.0625 C897.33655109 522.89979441 896.37978872 536.70760156 895.30352783 550.52178955 C894.30261837 563.41431539 893.49475797 576.30638264 892.81787109 589.21972656 C892.28728914 599.31170092 891.61019487 609.3771256 890.74755859 619.44677734 C890.00907012 628.31007297 889.52800463 637.18181171 889.0625 646.0625 C888.33655109 659.89979441 887.37978872 673.70760156 886.30352783 687.52178955 C885.30261837 700.41431539 884.49475797 713.30638264 883.81787109 726.21972656 C883.28786922 736.30066757 882.61359799 746.35532482 881.74975586 756.41381836 C880.91780043 766.3818317 880.40283017 776.36298241 879.87600708 786.35070801 C879.31282242 796.98472281 878.59591097 807.58820225 877.68408203 818.19897461 C876.77255777 829.11617419 876.36397247 840.05271413 876 851 C856.46839909 838.15610948 836.94021 825.30703882 817.42028809 812.44540405 C815.53748656 811.20488708 813.65459489 809.96450691 811.77160645 808.72427368 C794.92195655 797.62577066 794.92195655 797.62577066 786.54296875 792.02734375 C777.92622418 786.2702661 769.26609113 780.57918219 760.60958862 774.88214111 C747.36299835 766.16342124 734.1199601 757.44046722 720.9375 748.625 C698.41357931 733.56700301 675.74548247 718.72098927 653 704 C649.53299124 707.35123869 646.48210212 710.78954348 643.5625 714.625 C643.14129883 715.17784668 642.72009766 715.73069336 642.28613281 716.30029297 C636.71295645 723.64784386 631.26929158 731.09282127 625.81445312 738.52832031 C622.88194254 742.52303737 619.94063339 746.51126088 617 750.5 C615.83328889 752.08330059 614.66662228 753.66663396 613.5 755.25 C555.75 833.625 498 912 382.5 1068.75 C381.92233887 1069.5339917 381.34467773 1070.3179834 380.74951172 1071.12573242 C379.58456151 1072.70668983 378.41952266 1074.28758192 377.25439453 1075.8684082 C374.3107302 1079.86255828 371.36868654 1083.8578843 368.4296875 1087.85546875 C362.50190275 1095.91517608 356.54832033 1103.95324903 350.53417969 1111.94873047 C344.89690914 1119.4520678 339.34128721 1127.01530541 333.78222656 1134.57666016 C330.85769254 1138.55322518 327.92864567 1142.52646271 325 1146.5 C323.83331112 1148.08331696 322.66664447 1149.66665031 321.5 1151.25 C272.5 1217.75 223.5 1284.25 174.5 1350.75 C173.92209717 1351.53431396 173.34419434 1352.31862793 172.7487793 1353.12670898 C171.58624831 1354.70439483 170.42365103 1356.28203183 169.26098633 1357.85961914 C166.28048844 1361.90395379 163.30127242 1365.94922297 160.32421875 1369.99609375 C159.71980957 1370.81730713 159.11540039 1371.63852051 158.49267578 1372.48461914 C157.30434941 1374.09932228 156.11651086 1375.71438456 154.92919922 1377.32983398 C152.34973528 1380.83443613 149.76065862 1384.32942967 147.12109375 1387.7890625 C146.48071167 1388.63029663 146.48071167 1388.63029663 145.82739258 1389.48852539 C144.71482196 1390.94491986 143.59596369 1392.39650526 142.4765625 1393.84765625 C140.81143238 1395.83984672 140.81143238 1395.83984672 141 1398 C140.18966309 1397.8460376 139.37932617 1397.6920752 138.54443359 1397.53344727 C134.45359035 1396.9177638 130.41757395 1396.66634936 126.2890625 1396.46484375 C125.44443451 1396.42186661 124.59980652 1396.37888947 123.72958374 1396.33460999 C121.93602371 1396.24461192 120.14236956 1396.15647279 118.34863281 1396.07006836 C115.69556451 1395.94093461 113.04314803 1395.80193807 110.390625 1395.66210938 C96.8770352 1394.99840648 83.57196435 1395 70 1395 C70 1489.71 70 1584.42 70 1682 C414.85 1682 759.7 1682 1115 1682 C1115 1150.04 1115 618.08 1115 70 C770.15 70 425.3 70 70 70 Z " fill="#000000" transform="translate(8,8)"/>
<path d="M0 0 C305.58 0 611.16 0 926 0 C919.25664677 10.11502984 919.25664677 10.11502984 916.80859375 13.40234375 C915.99068359 14.50545898 915.99068359 14.50545898 915.15625 15.63085938 C914.5890625 16.39205078 914.021875 17.15324219 913.4375 17.9375 C908.7498842 24.26229796 904.09702505 30.60904838 899.5 37 C892.16034899 47.19383576 884.69544931 57.29402252 877.22949219 67.39550781 C870.94498265 75.90093735 864.67980365 84.41808621 858.5 93 C851.15975779 103.19341866 843.69545642 113.29401291 836.22949219 123.39550781 C829.94498265 131.90093735 823.67980365 140.41808621 817.5 149 C810.15975779 159.19341866 802.69545642 169.29401291 795.22949219 179.39550781 C788.94498265 187.90093735 782.67980365 196.41808621 776.5 205 C769.15975779 215.19341866 761.69545642 225.29401291 754.22949219 235.39550781 C747.94498265 243.90093735 741.67980365 252.41808621 735.5 261 C729.32326971 269.5776458 723.06092244 278.09029102 716.77929688 286.59130859 C714.38223975 289.83628192 711.98770263 293.08309723 709.59667969 296.33251953 C708.41219781 297.93743737 707.22277495 299.53872094 706.02832031 301.13623047 C702.92030597 305.30659852 699.96321007 309.4916076 697.27539062 313.9465332 C692.90838238 320.2630987 688.84330781 324.17128564 681.9128418 327.54248047 C680.68669552 328.16329152 680.68669552 328.16329152 679.43577862 328.79664421 C677.61699532 329.71463551 675.79440565 330.62511302 673.96865463 331.52916718 C670.84475224 333.07691818 667.73213196 334.64579168 664.62075806 336.21856689 C657.94366396 339.58806863 651.25368217 342.93127898 644.56121278 346.27009058 C641.18612117 347.95444945 637.81220908 349.64116797 634.43815613 351.3276062 C628.06253185 354.5138777 621.68589434 357.69811571 615.3088662 360.88157642 C608.10163005 364.4796047 600.89552764 368.07990078 593.68952525 371.68039918 C581.26578116 377.88791575 568.84107811 384.09350936 556.41567993 390.29771423 C548.98075152 394.01028446 541.54703338 397.72526088 534.11499023 401.44360352 C531.030518 402.98475176 527.94350777 404.52070056 524.85546875 406.0546875 C523.90994141 406.52519531 522.96441406 406.99570312 521.99023438 407.48046875 C520.13425322 408.40393255 518.27749171 409.32582979 516.41992188 410.24609375 C511.29107964 412.80181011 506.2013483 415.41488809 501.14282131 418.10647011 C487.90729271 425.13648696 474.50313726 431.83072321 461.10017085 438.53354311 C459.06810439 439.54993603 457.03632512 440.56690076 455.00464058 441.58405685 C447.90342347 445.13925118 440.80120936 448.69244412 433.69799805 452.24365234 C427.09009361 455.54730159 420.48445778 458.85545596 413.87981313 462.16561663 C408.17980611 465.02214269 402.47827366 467.8756073 396.77552706 470.72666013 C393.38108872 472.42375185 389.98728292 474.12207968 386.59501457 475.8235054 C382.83500806 477.70921858 379.0718538 479.58856238 375.30834961 481.46728516 C374.18589844 482.0313205 373.06344727 482.59535583 371.90698242 483.17648315 C370.88833603 483.68370911 369.86968964 484.19093506 368.82017517 484.71353149 C367.93227767 485.15775263 367.04438017 485.60197376 366.12957668 486.05965614 C364 487 364 487 362 487 C362 487.66 362 488.32 362 489 C362.69222656 489.24298828 363.38445312 489.48597656 364.09765625 489.73632812 C367.48381053 491.21064967 370.40699966 493.13769037 373.4375 495.21875 C374.77814711 496.12573761 376.11932587 497.0319397 377.4609375 497.9375 C378.18764648 498.42927734 378.91435547 498.92105469 379.66308594 499.42773438 C383.94188411 502.30649119 388.25395257 505.13479989 392.5625 507.96875 C394.4505442 509.21220411 396.33856471 510.45569418 398.2265625 511.69921875 C400.15100922 512.96619512 402.07548854 514.23312197 404 515.5 C425.44532423 529.61714644 425.44532423 529.61714644 435.25537109 536.1730957 C444.47356835 542.32729698 453.74215707 548.40569604 463 554.5 C469.49891022 558.7781385 475.99597979 563.05902052 482.48925781 567.34570312 C484.88290769 568.92284933 487.28076923 570.49338329 489.6796875 572.0625 C491.05738963 572.96860106 492.43500053 573.87484087 493.8125 574.78125 C494.43503662 575.18573364 495.05757324 575.59021729 495.69897461 576.00695801 C499.88651194 578.77302388 499.88651194 578.77302388 501 581 C494.88845877 589.63219994 488.67329333 598.18159349 482.38623047 606.68676758 C478.38912484 612.09971674 474.43058361 617.53858909 470.5 623 C463.1600532 633.19362711 455.69545288 643.2940177 448.22949219 653.39550781 C441.94498265 661.90093735 435.67980365 670.41808621 429.5 679 C422.15975779 689.19341866 414.69545642 699.29401291 407.22949219 709.39550781 C400.40034581 718.63804661 393.6079307 727.9038828 386.89428711 737.23071289 C382.38568587 743.4862521 377.81319395 749.69318346 373.23046875 755.89453125 C369.28584489 761.23857821 365.38041885 766.60918549 361.5 772 C354.15996467 782.19356463 346.69545394 792.29401627 339.22949219 802.39550781 C332.94498265 810.90093735 326.67980365 819.41808621 320.5 828 C313.15975779 838.19341866 305.69545642 848.29401291 298.22949219 858.39550781 C291.94498265 866.90093735 285.67980365 875.41808621 279.5 884 C272.15975779 894.19341866 264.69545642 904.29401291 257.22949219 914.39550781 C250.94498265 922.90093735 244.67980365 931.41808621 238.5 940 C231.15975779 950.19341866 223.69545642 960.29401291 216.22949219 970.39550781 C209.94498265 978.90093735 203.67980365 987.41808621 197.5 996 C190.15975779 1006.19341866 182.69545642 1016.29401291 175.22949219 1026.39550781 C168.94498265 1034.90093735 162.67980365 1043.41808621 156.5 1052 C149.15975779 1062.19341866 141.69545642 1072.29401291 134.22949219 1082.39550781 C127.94498265 1090.90093735 121.67980365 1099.41808621 115.5 1108 C108.15975779 1118.19341866 100.69545642 1128.29401291 93.22949219 1138.39550781 C86.94498265 1146.90093735 80.67980365 1155.41808621 74.5 1164 C67.15975779 1174.19341866 59.69545642 1184.29401291 52.22949219 1194.39550781 C45.94498154 1202.90093885 39.67990331 1211.41815674 33.5 1220 C26.73895444 1229.38702412 19.88764516 1238.70557036 13 1248 C12.41669922 1248.78906738 11.83339844 1249.57813477 11.23242188 1250.39111328 C9.55438384 1252.65927699 7.87177283 1254.92396372 6.1875 1257.1875 C5.42264282 1258.22221436 5.42264282 1258.22221436 4.64233398 1259.27783203 C3.45269437 1260.87046387 2.22996983 1262.43830451 1 1264 C0.67 1264 0.34 1264 0 1264 C0 846.88 0 429.76 0 0 Z " fill="#EC1C23" transform="translate(78,78)"/>
<path d="M0 0 C0.33 0 0.66 0 1 0 C0.92777725 1.85029816 0.92777725 1.85029816 0.85409546 3.73797607 C0.66243992 8.65419593 0.47193054 13.5704598 0.28163528 18.48673248 C0.1923417 20.78959504 0.10275671 23.09244631 0.01288986 25.39528656 C-0.56509866 40.2138523 -1.1093663 55.03288425 -1.60078478 69.85458279 C-1.98724306 81.47867982 -2.42140476 93.10046135 -2.88921738 104.72156525 C-3.17077027 111.75247051 -3.42961562 118.78301706 -3.64111328 125.81640625 C-3.83065218 132.11676208 -4.06072706 138.41416675 -4.338081 144.71128917 C-4.48139392 147.99525165 -4.60009647 151.27686065 -4.68119431 154.56302643 C-5.08152749 170.23029485 -6.44115593 181.00654351 -17.61125946 192.5314312 C-19.52892914 194.55933331 -21.13204311 196.77533865 -22.7421875 199.05078125 C-23.52335938 200.11232422 -23.52335938 200.11232422 -24.3203125 201.1953125 C-24.83335937 201.89398438 -25.34640625 202.59265625 -25.875 203.3125 C-27.05987641 204.92319137 -28.24477283 206.53386802 -29.4296875 208.14453125 C-30.31479004 209.34843506 -30.31479004 209.34843506 -31.21777344 210.57666016 C-34.14230746 214.55322518 -37.07135433 218.52646271 -40 222.5 C-41.16668888 224.08331696 -42.33335553 225.66665031 -43.5 227.25 C-50.50000002 236.75000002 -50.50000002 236.75000002 -52.25073242 239.12597656 C-53.4149799 240.70603832 -54.57920523 242.28611639 -55.7434082 243.86621094 C-63.95687494 255.01363327 -63.95687494 255.01363327 -66.40527344 258.32421875 C-67.59182467 259.93922876 -68.76833005 261.5616686 -69.93457031 263.19140625 C-72.52932953 266.79663167 -75.0769589 270.18468441 -78.25390625 273.296875 C-88.80086199 284.14924776 -87.5241819 298.4291509 -87.79620361 312.63096619 C-87.97108058 320.92180457 -88.61546967 329.15847709 -89.29446411 337.42089844 C-90.48594516 352.00950912 -91.41587543 366.60297137 -92.18212891 381.2194519 C-92.71270854 391.31151874 -93.38979723 401.37703348 -94.25244141 411.44677734 C-94.99092988 420.31007297 -95.47199537 429.18181171 -95.9375 438.0625 C-96.66344891 451.89979441 -97.62021128 465.70760156 -98.69647217 479.52178955 C-99.69738163 492.41431539 -100.50524203 505.30638264 -101.18212891 518.21972656 C-101.71271086 528.31170092 -102.38980513 538.3771256 -103.25244141 548.44677734 C-103.99092988 557.31007297 -104.47199537 566.18181171 -104.9375 575.0625 C-105.66344891 588.89979441 -106.62021128 602.70760156 -107.69647217 616.52178955 C-108.69738163 629.41431539 -109.50524203 642.30638264 -110.18212891 655.21972656 C-110.71213078 665.30066757 -111.38640201 675.35532482 -112.25024414 685.41381836 C-113.08211776 695.3808515 -113.59654603 705.36098685 -114.12399292 715.34768677 C-114.69188342 726.05417948 -115.40142486 736.73316489 -116.31811523 747.41650391 C-116.96726409 755.11939118 -117.38081149 762.81962122 -117.65844727 770.54467773 C-117.68994873 771.35235596 -117.7214502 772.16003418 -117.75390625 772.9921875 C-117.77783447 773.69714355 -117.8017627 774.40209961 -117.82641602 775.12841797 C-118 777 -118 777 -119 780 C-123.15247063 778.52604788 -126.51350851 776.47366321 -130.16015625 774.01171875 C-130.76606094 773.60498428 -131.37196564 773.19824982 -131.99623108 772.77919006 C-133.32133749 771.88913857 -134.64506951 770.99703829 -135.96759033 770.10314941 C-139.62669549 767.63048429 -143.2964098 765.17363784 -146.96484375 762.71484375 C-147.75435425 762.1851297 -148.54386475 761.65541565 -149.3572998 761.10964966 C-159.57314788 754.26255396 -169.85103761 747.50942869 -180.125 740.75 C-183.77366304 738.34930082 -187.42217171 735.94836774 -191.0703125 733.546875 C-191.93796738 732.97572464 -192.80562225 732.40457428 -193.6995697 731.81611633 C-198.63555913 728.56459493 -203.5622089 725.29974402 -208.4765625 722.015625 C-217.08643754 716.26190261 -225.74023756 710.57501714 -234.39041138 704.88214111 C-247.63700165 696.16342124 -260.8800399 687.44046722 -274.0625 678.625 C-296.58642069 663.56700301 -319.25451753 648.72098927 -342 634 C-346.42608698 638.13760831 -349.89398827 642.72320869 -353.4375 647.625 C-354.6860831 649.33602129 -355.93478431 651.0469564 -357.18359375 652.7578125 C-358.13468018 654.06540527 -358.13468018 654.06540527 -359.10498047 655.39941406 C-362.05320014 659.44533469 -365.02715183 663.47216197 -368 667.5 C-369.16680565 669.08323091 -370.33347195 670.66656454 -371.5 672.25 C-378.5 681.75 -385.5 691.25 -392.5 700.75 C-393.3664917 701.92598755 -393.3664917 701.92598755 -394.25048828 703.12573242 C-395.41543849 704.70668983 -396.58047734 706.28758192 -397.74560547 707.8684082 C-400.6892698 711.86255828 -403.63131346 715.8578843 -406.5703125 719.85546875 C-412.49809725 727.91517608 -418.45167967 735.95324903 -424.46582031 743.94873047 C-430.10309086 751.4520678 -435.65871279 759.01530541 -441.21777344 766.57666016 C-444.14230746 770.55322518 -447.07135433 774.52646271 -450 778.5 C-451.16668888 780.08331696 -452.33335553 781.66665031 -453.5 783.25 C-511.25 861.625 -569 940 -684.5 1096.75 C-685.07766113 1097.5339917 -685.65532227 1098.3179834 -686.25048828 1099.12573242 C-687.41543849 1100.70668983 -688.58047734 1102.28758192 -689.74560547 1103.8684082 C-692.6892698 1107.86255828 -695.63131346 1111.8578843 -698.5703125 1115.85546875 C-704.49809725 1123.91517608 -710.45167967 1131.95324903 -716.46582031 1139.94873047 C-722.10309086 1147.4520678 -727.65871279 1155.01530541 -733.21777344 1162.57666016 C-736.14230746 1166.55322518 -739.07135433 1170.52646271 -742 1174.5 C-743.16668888 1176.08331696 -744.33335553 1177.66665031 -745.5 1179.25 C-822.5 1283.75 -822.5 1283.75 -824.25170898 1286.12719727 C-825.41283465 1287.70309174 -826.57380589 1289.2791 -827.73461914 1290.85522461 C-830.73477651 1294.92834175 -833.73797347 1298.99916558 -836.74609375 1303.06640625 C-837.36419922 1303.90300781 -837.98230469 1304.73960938 -838.61914062 1305.6015625 C-839.78479215 1307.179136 -840.95137484 1308.75602215 -842.11914062 1310.33203125 C-842.92448242 1311.42257812 -842.92448242 1311.42257812 -843.74609375 1312.53515625 C-844.57294678 1313.60612549 -844.57294678 1313.60612549 -845.41650391 1314.69873047 C-847.09967179 1316.99324504 -847.09967179 1316.99324504 -848.23583984 1319.78955078 C-849.85158437 1323.05597794 -851.04174349 1324.83797308 -854 1327 C-860.71933375 1328.53593027 -867.9681771 1327.33750524 -874.75 1326.75 C-876.82579829 1326.60842537 -878.90199158 1326.47253946 -880.97851562 1326.34204102 C-885.37070278 1326.06307947 -889.76055852 1325.76146942 -894.15039062 1325.44775391 C-904.48168003 1324.73900866 -914.82870068 1324.41284613 -925.17687988 1324.05358887 C-939.13191712 1323.56608784 -953.07461549 1323.05382037 -967 1322 C-964.06561169 1316.56358494 -960.68444273 1311.7915848 -956.875 1306.9375 C-952.84091899 1301.7311075 -948.86096726 1296.50609575 -945.0625 1291.125 C-941.17112644 1285.61601705 -937.19805213 1280.17285699 -933.1875 1274.75 C-928.58701835 1268.52680754 -924.02071585 1262.28137938 -919.5 1256 C-912.1600532 1245.80637289 -904.69545288 1235.7059823 -897.22949219 1225.60449219 C-890.94498265 1217.09906265 -884.67980365 1208.58191379 -878.5 1200 C-871.15975779 1189.80658134 -863.69545642 1179.70598709 -856.22949219 1169.60449219 C-849.94498265 1161.09906265 -843.67980365 1152.58191379 -837.5 1144 C-830.15975779 1133.80658134 -822.69545642 1123.70598709 -815.22949219 1113.60449219 C-808.94498265 1105.09906265 -802.67980365 1096.58191379 -796.5 1088 C-789.15975779 1077.80658134 -781.69545642 1067.70598709 -774.22949219 1057.60449219 C-767.40034581 1048.36195339 -760.6079307 1039.0961172 -753.89428711 1029.76928711 C-749.38568587 1023.5137479 -744.81319395 1017.30681654 -740.23046875 1011.10546875 C-736.28584489 1005.76142179 -732.38041885 1000.39081451 -728.5 995 C-721.15996467 984.80643537 -713.69545394 974.70598373 -706.22949219 964.60449219 C-699.94498265 956.09906265 -693.67980365 947.58191379 -687.5 939 C-680.15975779 928.80658134 -672.69545642 918.70598709 -665.22949219 908.60449219 C-658.94498265 900.09906265 -652.67980365 891.58191379 -646.5 883 C-639.15975779 872.80658134 -631.69545642 862.70598709 -624.22949219 852.60449219 C-617.94498265 844.09906265 -611.67980365 835.58191379 -605.5 827 C-598.15975779 816.80658134 -590.69545642 806.70598709 -583.22949219 796.60449219 C-576.94498265 788.09906265 -570.67980365 779.58191379 -564.5 771 C-557.15975779 760.80658134 -549.69545642 750.70598709 -542.22949219 740.60449219 C-535.94498265 732.09906265 -529.67980365 723.58191379 -523.5 715 C-516.15975779 704.80658134 -508.69545642 694.70598709 -501.22949219 684.60449219 C-494.94498265 676.09906265 -488.67980365 667.58191379 -482.5 659 C-475.15975779 648.80658134 -467.69545642 638.70598709 -460.22949219 628.60449219 C-448.33703613 612.50929075 -436.60944291 596.30039162 -425 580 C-428.24481985 576.41738973 -431.94116282 574.01972614 -436.046875 571.55078125 C-442.17961003 567.78857028 -448.22241789 563.91751608 -454.203125 559.91796875 C-455.00272141 559.38337036 -455.80231781 558.84877197 -456.62614441 558.29797363 C-458.29962507 557.17755302 -459.97260334 556.0563817 -461.64511108 554.93450928 C-466.20880345 551.87379799 -470.77817352 548.82158855 -475.34765625 545.76953125 C-476.29490067 545.13672241 -477.24214508 544.50391357 -478.21809387 543.85192871 C-490.82972668 535.43386441 -503.49921224 527.10347967 -516.16699219 518.77026367 C-517.9069192 517.62551588 -519.64682851 516.48074118 -521.38671875 515.3359375 C-522.21756485 514.78942032 -523.04841095 514.24290314 -523.9044342 513.67982483 C-529.00942014 510.31915732 -534.0996363 506.9372803 -539.1796875 503.5390625 C-545.28527064 499.4550851 -551.45411687 495.48054561 -557.68945312 491.59765625 C-559.49366736 490.45027577 -561.25249189 489.2320253 -563 488 C-563 487.34 -563 486.68 -563 486 C-562.27537662 485.6381492 -561.55075323 485.27629841 -560.80417156 484.90348244 C-543.08782107 476.05639941 -525.37260858 467.20704135 -507.6586256 458.35521889 C-499.09189372 454.07441975 -490.52479284 449.79436233 -481.95678711 445.51611328 C-474.47990286 441.78268979 -467.00374755 438.04781113 -459.52842695 434.31125772 C-455.57849564 432.33693802 -451.62822827 430.3632982 -447.67708397 428.39140701 C-425.5089496 417.33518179 -425.5089496 417.33518179 -403.548172 405.87411499 C-398.19800292 403.02404636 -392.71253199 400.47765526 -387.20703125 397.9453125 C-382.46142022 395.72916564 -377.80814041 393.38107975 -373.19184971 390.90949059 C-361.38665381 384.60300333 -349.36888105 378.74428548 -337.33385533 372.89328206 C-329.11004382 368.89341497 -320.90687961 364.85148574 -312.70253098 360.81188846 C-304.75916011 356.90108471 -296.80986898 353.00371476 -288.84008789 349.14697266 C-282.4502964 346.05471783 -276.0755569 342.93357919 -269.71641201 339.77875578 C-266.371521 338.12061268 -263.02133231 336.47681112 -259.65231514 334.86817551 C-244.40310867 327.57499343 -232.67309862 320.98874404 -224 306 C-222.84645437 304.37426495 -221.67784408 302.75875615 -220.4765625 301.16796875 C-219.52474891 299.84207291 -218.57420257 298.51526631 -217.625 297.1875 C-210.24951496 286.92678346 -202.74014081 276.76644535 -195.22949219 266.60449219 C-188.94498265 258.09906265 -182.67980365 249.58191379 -176.5 241 C-169.15975779 230.80658134 -161.69545642 220.70598709 -154.22949219 210.60449219 C-147.94498265 202.09906265 -141.67980365 193.58191379 -135.5 185 C-128.15975779 174.80658134 -120.69545642 164.70598709 -113.22949219 154.60449219 C-106.94498265 146.09906265 -100.67980365 137.58191379 -94.5 129 C-87.15975779 118.80658134 -79.69545642 108.70598709 -72.22949219 98.60449219 C-65.94498265 90.09906265 -59.67980365 81.58191379 -53.5 73 C-46.15975779 62.80658134 -38.69545642 52.70598709 -31.22949219 42.60449219 C-24.24580017 33.15279195 -17.29247602 23.68194834 -10.43725586 14.13647461 C-7.87308067 10.57050544 -5.2947925 7.01505724 -2.6875 3.48046875 C-2.19636719 2.81297607 -1.70523438 2.1454834 -1.19921875 1.45776367 C-0.80347656 0.97670166 -0.40773438 0.49563965 0 0 Z " fill="#000000" transform="translate(1003,79)"/>
<path d="M0 0 C391.05 0 782.1 0 1185 0 C1185 578.49 1185 1156.98 1185 1753 C793.95 1753 402.9 1753 0 1753 C0 1174.51 0 596.02 0 0 Z M26 26 C26 587.33 26 1148.66 26 1727 C399.89 1727 773.78 1727 1159 1727 C1159 1165.67 1159 604.34 1159 26 C785.11 26 411.22 26 26 26 Z " fill="#FBFBFB" transform="translate(8,8)"/>
<path d="M0 0 C5.37835348 0.44076133 9.12351018 3.46044126 13.4453125 6.4140625 C14.27667725 6.97251862 15.10804199 7.53097473 15.96459961 8.10635376 C18.68961681 9.93876576 21.4071582 11.78196632 24.125 13.625 C26.95541641 15.53140874 29.78781115 17.4348528 32.62033081 19.33813477 C34.54845023 20.63394152 36.47595599 21.93066184 38.40286255 23.22827148 C47.93002984 29.64051588 57.51969955 35.95563 67.125 42.25 C68.64472881 43.2468545 70.16442384 44.2437605 71.68408203 45.24072266 C75.12170037 47.4953767 78.56044797 49.7482971 82 52 C80.67626016 54.79275877 79.19609726 57.26493873 77.3828125 59.765625 C76.86468994 60.48226318 76.34656738 61.19890137 75.81274414 61.93725586 C74.97731079 63.08206421 74.97731079 63.08206421 74.125 64.25 C73.54419678 65.04994385 72.96339355 65.8498877 72.36499023 66.67407227 C68.15754717 72.45323833 63.89002807 78.1854077 59.58789062 83.89428711 C53.92555314 91.41054181 48.35631622 98.99486316 42.78222656 106.57666016 C39.85769254 110.55322518 36.92864567 114.52646271 34 118.5 C32.83331112 120.08331696 31.66664447 121.66665031 30.5 123.25 C-56.125 240.8125 -56.125 240.8125 -186.5 417.75 C-187.07766113 418.5339917 -187.65532227 419.3179834 -188.25048828 420.12573242 C-189.41543849 421.70668983 -190.58047734 423.28758192 -191.74560547 424.8684082 C-194.6892698 428.86255828 -197.63131346 432.8578843 -200.5703125 436.85546875 C-206.49809725 444.91517608 -212.45167967 452.95324903 -218.46582031 460.94873047 C-224.10309086 468.4520678 -229.65871279 476.01530541 -235.21777344 483.57666016 C-238.14230746 487.55322518 -241.07135433 491.52646271 -244 495.5 C-245.16668888 497.08331696 -246.33335553 498.66665031 -247.5 500.25 C-394.5 699.75 -394.5 699.75 -396.25097656 702.1262207 C-397.41452134 703.7053868 -398.57793338 705.28465072 -399.74121094 706.86401367 C-402.70454688 710.88692899 -405.67035854 714.90797964 -408.640625 718.92578125 C-409.24519531 719.74433594 -409.84976563 720.56289062 -410.47265625 721.40625 C-411.59937029 722.93164747 -412.72687797 724.4564593 -413.85546875 725.98046875 C-414.64630859 727.05167969 -414.64630859 727.05167969 -415.453125 728.14453125 C-416.0195874 728.87881348 -416.5860498 729.6130957 -417.16967773 730.36962891 C-418.63197415 732.47110704 -419.757699 734.42368354 -420.91040039 736.68896484 C-425.99950615 746.05473124 -425.99950615 746.05473124 -431.07891846 747.65493774 C-437.37446074 748.49959592 -443.65874405 747.65900687 -449.9375 747 C-451.99939911 746.83794844 -454.06193972 746.68388318 -456.125 746.53735352 C-460.48561339 746.22314444 -464.84204969 745.87668557 -469.19873047 745.51220703 C-479.50799857 744.68992925 -489.83974776 744.39340624 -500.17385864 744.04956055 C-505.46031204 743.87145541 -510.7458474 743.67160727 -516.03125 743.46484375 C-516.99023697 743.42741058 -517.94922394 743.38997742 -518.93727112 743.35140991 C-526.63600183 743.03912748 -534.31690203 742.58142776 -542 742 C-539.06561169 736.56358494 -535.68444273 731.7915848 -531.875 726.9375 C-527.84091899 721.7311075 -523.86096726 716.50609575 -520.0625 711.125 C-516.17112644 705.61601705 -512.19805213 700.17285699 -508.1875 694.75 C-503.58701835 688.52680754 -499.02071585 682.28137938 -494.5 676 C-487.1600532 665.80637289 -479.69545288 655.7059823 -472.22949219 645.60449219 C-465.94498265 637.09906265 -459.67980365 628.58191379 -453.5 620 C-446.15975779 609.80658134 -438.69545642 599.70598709 -431.22949219 589.60449219 C-424.94498265 581.09906265 -418.67980365 572.58191379 -412.5 564 C-405.15975779 553.80658134 -397.69545642 543.70598709 -390.22949219 533.60449219 C-383.94498265 525.09906265 -377.67980365 516.58191379 -371.5 508 C-364.15975779 497.80658134 -356.69545642 487.70598709 -349.22949219 477.60449219 C-342.40034581 468.36195339 -335.6079307 459.0961172 -328.89428711 449.76928711 C-324.38568587 443.5137479 -319.81319395 437.30681654 -315.23046875 431.10546875 C-311.28584489 425.76142179 -307.38041885 420.39081451 -303.5 415 C-296.15996467 404.80643537 -288.69545394 394.70598373 -281.22949219 384.60449219 C-274.94498265 376.09906265 -268.67980365 367.58191379 -262.5 359 C-255.15975779 348.80658134 -247.69545642 338.70598709 -240.22949219 328.60449219 C-233.94498265 320.09906265 -227.67980365 311.58191379 -221.5 303 C-214.15975779 292.80658134 -206.69545642 282.70598709 -199.22949219 272.60449219 C-192.94498265 264.09906265 -186.67980365 255.58191379 -180.5 247 C-173.15975779 236.80658134 -165.69545642 226.70598709 -158.22949219 216.60449219 C-151.94498265 208.09906265 -145.67980365 199.58191379 -139.5 191 C-132.15975779 180.80658134 -124.69545642 170.70598709 -117.22949219 160.60449219 C-110.94498265 152.09906265 -104.67980365 143.58191379 -98.5 135 C-91.15975779 124.80658134 -83.69545642 114.70598709 -76.22949219 104.60449219 C-69.94498265 96.09906265 -63.67980365 87.58191379 -57.5 79 C-50.15975779 68.80658134 -42.69545642 58.70598709 -35.22949219 48.60449219 C-23.33703613 32.50929075 -11.60944291 16.30039162 0 0 Z " fill="#0094D9" transform="translate(578,659)"/>
<path d="M0 0 C3.88889425 1.29629808 4.166712 2.6003561 6.08203125 6.16015625 C6.97438477 7.79694336 6.97438477 7.79694336 7.88476562 9.46679688 C8.19841064 10.05195068 8.51205566 10.63710449 8.83520508 11.23999023 C10.50232181 14.34891514 12.20024539 17.44098048 13.89453125 20.53515625 C14.23936554 21.16676666 14.58419983 21.79837708 14.93948364 22.4491272 C18.17893401 28.3670228 21.57082308 34.19017258 25 40 C29.96209951 48.43143233 34.77366699 56.93424477 39.5 65.5 C44.80206842 75.10816063 50.23960957 84.62179088 55.80078125 94.08203125 C59.95900268 101.17161148 64.0036613 108.31806095 68 115.5 C72.575664 123.7220259 77.23570748 131.8858143 82 140 C87.37279449 149.15054061 92.5927244 158.37668375 97.75219727 167.64892578 C101.72815635 174.77628267 105.80163998 181.83939092 109.9375 188.875 C115.57899163 198.47565504 121.01212614 208.17952252 126.39208984 217.92871094 C131.06543764 226.3748702 135.88724547 234.72345392 140.77880859 243.04467773 C146.87133297 253.43245778 152.73903566 263.94401444 158.58300781 274.47314453 C159.82905571 276.6951631 161.10725236 278.89392372 162.3984375 281.08984375 C164 284 164 284 164 286 C55.76 286 -52.48 286 -164 286 C-162.45460244 282.13650609 -160.88793449 278.87579302 -158.83203125 275.30078125 C-157.87478149 273.63088135 -157.87478149 273.63088135 -156.89819336 271.92724609 C-156.20304466 270.72228318 -155.5078113 269.5173691 -154.8125 268.3125 C-154.09031382 267.05565201 -153.3683941 265.79865088 -152.64672852 264.54150391 C-150.79256933 261.31362852 -148.93436047 258.08810651 -147.07458496 254.86346436 C-145.42607817 252.00474796 -143.77968312 249.14481546 -142.1328125 246.28515625 C-139.04520824 240.92721891 -135.95279067 235.57207499 -132.85888672 230.21777344 C-129.73675397 224.81329359 -126.61854119 219.40655282 -123.5 214 C-119.76363085 207.52233115 -116.02651653 201.04510017 -112.28515625 194.5703125 C-105.46497363 182.76370516 -98.6767674 170.93973 -91.92263794 159.09527588 C-86.76583392 150.05528292 -81.54456231 141.05474679 -76.28662109 132.07324219 C-71.83083656 124.45094222 -67.43602854 116.79468689 -63.0625 109.125 C-54.80834364 94.65049631 -46.48282628 80.21778154 -38.14550781 65.79101562 C-36.28397329 62.56931727 -34.4230475 59.34726845 -32.5625 56.125 C-31.64464722 54.53570679 -31.64464722 54.53570679 -30.70825195 52.91430664 C-27.39636508 47.17378928 -24.09747709 41.42613724 -20.81640625 35.66796875 C-20.468022 35.05661072 -20.11963776 34.44525269 -19.76069641 33.81536865 C-19.06115511 32.58770873 -18.36161591 31.3600476 -17.66207886 30.13238525 C-17.31984283 29.53182312 -16.97760681 28.93126099 -16.625 28.3125 C-16.11853439 27.42374176 -16.11853439 27.42374176 -15.60183716 26.51702881 C-10.5199006 17.60452006 -5.3570982 8.74992706 0 0 Z " fill="#010100" transform="translate(692,1063)"/>
<path d="M0 0 C0.33 0 0.66 0 1 0 C0.9518515 1.2335321 0.903703 2.46706421 0.85409546 3.73797607 C0.66243992 8.65419593 0.47193054 13.5704598 0.28163528 18.48673248 C0.1923417 20.78959504 0.10275671 23.09244631 0.01288986 25.39528656 C-0.56509866 40.2138523 -1.1093663 55.03288425 -1.60078478 69.85458279 C-1.98724306 81.47867982 -2.42140476 93.10046135 -2.88921738 104.72156525 C-3.17077027 111.75247051 -3.42961562 118.78301706 -3.64111328 125.81640625 C-3.83065218 132.11676208 -4.06072706 138.41416675 -4.338081 144.71128917 C-4.48139392 147.99525165 -4.60009647 151.27686065 -4.68119431 154.56302643 C-5.08152749 170.23029485 -6.44115593 181.00654351 -17.61125946 192.5314312 C-19.52892914 194.55933331 -21.13204311 196.77533865 -22.7421875 199.05078125 C-23.52335937 200.11232422 -23.52335937 200.11232422 -24.3203125 201.1953125 C-24.83335937 201.89398438 -25.34640625 202.59265625 -25.875 203.3125 C-27.05987641 204.92319137 -28.24477283 206.53386802 -29.4296875 208.14453125 C-30.01975586 208.94713379 -30.60982422 209.74973633 -31.21777344 210.57666016 C-34.14230746 214.55322518 -37.07135433 218.52646271 -40 222.5 C-41.16668888 224.08331696 -42.33335553 225.66665031 -43.5 227.25 C-50.5 236.75 -50.5 236.75 -52.25097656 239.1262207 C-53.41452134 240.7053868 -54.57793338 242.28465072 -55.74121094 243.86401367 C-58.70454688 247.88692899 -61.67035854 251.90797964 -64.640625 255.92578125 C-65.84389886 257.55457754 -67.04702566 259.18348248 -68.25 260.8125 C-68.82838623 261.59536377 -69.40677246 262.37822754 -70.00268555 263.18481445 C-74.09502769 268.73716516 -78.12342035 274.33200333 -82.06933594 279.98950195 C-83.0224948 281.34335571 -84.00760192 282.67464047 -85 284 C-85.33 284 -85.66 284 -86 284 C-86.25073985 275.05694537 -85.85307157 266.34160464 -84.9921875 257.4453125 C-84.89736084 256.43605713 -84.80253418 255.42680176 -84.70483398 254.38696289 C-84.47300522 251.92432907 -84.23800168 249.46204357 -84 247 C-84.759987 247.38137619 -85.519974 247.76275238 -86.30299091 248.15568542 C-104.77688065 257.42572559 -123.25406999 266.68915842 -141.73497486 275.94520569 C-150.67203891 280.42147928 -159.6079635 284.90000019 -168.54125977 289.38378906 C-176.32555052 293.29086343 -184.1119261 297.19374528 -191.90085715 301.09156132 C-196.02673201 303.15645792 -200.1515166 305.22346962 -204.27381325 307.29550171 C-208.15105362 309.24427597 -212.03104919 311.18744721 -215.91326332 313.12629318 C-217.34017247 313.84016163 -218.76604854 314.55609922 -220.1908226 315.27421951 C-222.13136134 316.25191628 -224.07542835 317.22220349 -226.02058411 318.19067383 C-227.65354038 319.009226 -227.65354038 319.009226 -229.31948566 319.84431458 C-232 321 -232 321 -235 321 C-225.50670943 307.79578263 -215.89547103 294.68262021 -206.22949219 281.60449219 C-199.94498265 273.09906265 -193.67980365 264.58191379 -187.5 256 C-180.15975779 245.80658134 -172.69545642 235.70598709 -165.22949219 225.60449219 C-158.94498265 217.09906265 -152.67980365 208.58191379 -146.5 200 C-139.15975779 189.80658134 -131.69545642 179.70598709 -124.22949219 169.60449219 C-117.94498265 161.09906265 -111.67980365 152.58191379 -105.5 144 C-98.15975779 133.80658134 -90.69545642 123.70598709 -83.22949219 113.60449219 C-76.94498265 105.09906265 -70.67980365 96.58191379 -64.5 88 C-57.15975779 77.80658134 -49.69545642 67.70598709 -42.22949219 57.60449219 C-35.40783435 48.37208834 -28.62301485 39.11630751 -21.91625977 29.80004883 C-15.68060482 21.14911496 -9.35529823 12.56336539 -3 4 C-2.19876709 2.88890869 -2.19876709 2.88890869 -1.38134766 1.75537109 C-0.69758057 0.8864624 -0.69758057 0.8864624 0 0 Z " fill="#0194D8" transform="translate(1003,79)"/>
<path d="M0 0 C36.72014619 0 36.72014619 0 53.3125 12.6875 C55.15587126 14.00793111 57.00482956 15.32059235 58.85888672 16.62597656 C62.68984141 19.33540289 66.49135568 22.07977208 70.27490234 24.85498047 C78.65231751 30.96742722 87.29383328 36.68574806 95.91928101 42.43960571 C98.50676885 44.17089164 101.08584712 45.91382834 103.66137695 47.6628418 C117.33887246 56.94542375 131.15787965 65.94938285 145 75 C145.495 39.36 145.495 39.36 146 3 C160.52 3 175.04 3 190 3 C190 40.29 190 77.58 190 116 C153.27985381 116 153.27985381 116 136.6875 103.3125 C134.84412874 101.99206889 132.99517044 100.67940765 131.14111328 99.37402344 C127.31015859 96.66459711 123.50864432 93.92022792 119.72509766 91.14501953 C111.34768249 85.03257278 102.70616672 79.31425194 94.08071899 73.56039429 C91.49323115 71.82910836 88.91415288 70.08617166 86.33862305 68.3371582 C72.66112754 59.05457625 58.84212035 50.05061715 45 41 C44.67 65.09 44.34 89.18 44 114 C29.48 114 14.96 114 0 114 C0 76.38 0 38.76 0 0 Z " fill="#000000" transform="translate(984,1824)"/>
<path d="M0 0 C6.0977762 3.49947648 8.78940494 9.24185913 11.68652344 15.41699219 C13.91575179 19.80086505 16.94474036 23.55367645 19.9375 27.4375 C21.11675172 29.02737965 22.29253056 30.61984102 23.46484375 32.21484375 C24.04862793 33.00487793 24.63241211 33.79491211 25.23388672 34.60888672 C28.74312623 39.35999147 32.24461276 44.11681291 35.74755859 48.87255859 C38.67420749 52.84531489 41.60270774 56.81667846 44.53515625 60.78515625 C50.76509718 69.220386 56.95916888 77.6786851 63.07714844 86.19555664 C65.99408304 90.24909299 68.94105667 94.27729779 71.92578125 98.28125 C72.57417969 99.15265625 73.22257813 100.0240625 73.890625 100.921875 C75.15085804 102.61243152 76.41505005 104.30004558 77.68359375 105.984375 C78.24820313 106.74234375 78.8128125 107.5003125 79.39453125 108.28125 C80.15020386 109.28768555 80.15020386 109.28768555 80.92114258 110.31445312 C82 112 82 112 82 114 C75.59624681 114.25460288 69.19380669 114.42908836 62.78613281 114.54931641 C60.60920452 114.59945368 58.43261048 114.6675863 56.25683594 114.75439453 C38.1898517 115.45690764 38.1898517 115.45690764 32.90429688 111.94042969 C30.8505376 109.38329804 29.41589968 106.94941936 28 104 C27.18531091 102.87422037 26.34577732 101.76542448 25.46875 100.6875 C24.49421875 99.3571875 24.49421875 99.3571875 23.5 98 C22.49453125 96.63875 22.49453125 96.63875 21.46875 95.25 C20 93 20 93 20 91 C-5.41 91 -30.82 91 -57 91 C-57.66 92.32 -58.32 93.64 -59 95 C-60.57470079 97.15720072 -62.16803688 99.27279972 -63.8125 101.375 C-64.23853516 101.92671875 -64.66457031 102.4784375 -65.10351562 103.046875 C-66.39175977 104.70736519 -67.68432134 106.3610908 -69 108 C-69.66112793 109.04575195 -70.32225586 110.09150391 -71.00341797 111.16894531 C-72.70465172 113.18740209 -73.62925044 113.91267287 -76.22239685 114.52346802 C-79.01730751 114.69509306 -81.75195013 114.67434479 -84.55078125 114.5859375 C-85.56472458 114.57744781 -86.57866791 114.56895813 -87.62333679 114.56021118 C-90.85414976 114.52668868 -94.08244461 114.45140836 -97.3125 114.375 C-99.50582327 114.34489905 -101.69918575 114.31752348 -103.89257812 114.29296875 C-109.26257439 114.22690184 -114.6311073 114.12656549 -120 114 C-117.87555481 110.19641066 -115.82418865 106.53475867 -113.109375 103.1171875 C-112.573125 102.43599854 -112.036875 101.75480957 -111.484375 101.05297852 C-110.62585938 99.97487915 -110.62585938 99.97487915 -109.75 98.875 C-108.49387488 97.27806445 -107.23870469 95.68037742 -105.984375 94.08203125 C-105.00500977 92.83607178 -105.00500977 92.83607178 -104.00585938 91.56494141 C-94.75200075 79.73180622 -85.74672131 67.70973392 -76.86279297 55.59741211 C-72.48073385 49.62991272 -67.99832475 43.75233639 -63.46533203 37.8984375 C-61.02141353 34.73217455 -58.59051438 31.55611947 -56.16821289 28.37329102 C-54.76353823 26.53996665 -53.3446531 24.71744399 -51.91186523 22.90600586 C-48.73124885 18.84391173 -45.86287446 15.04315338 -43.7578125 10.31640625 C-36.30266512 -5.34709635 -14.80735823 -3.92612163 0 0 Z M-20 34 C-25.22298504 41.16262631 -29.87976363 48.59836874 -34.36401367 56.23510742 C-35.45593566 58.09388298 -36.55467592 59.94850492 -37.65429688 61.80273438 C-41.18297309 66.68767128 -41.18297309 66.68767128 -43 72 C-26.83 72 -10.66 72 6 72 C2.87728526 66.37911347 -0.04005812 61.28244297 -3.8125 56.1875 C-7.81264576 50.69885798 -11.61375163 45.12617441 -15.30859375 39.42578125 C-16.75608336 37.3498204 -18.19371976 35.74681943 -20 34 Z " fill="#000000" transform="translate(144,1824)"/>
<path d="M0 0 C37.62 0 75.24 0 114 0 C114 6.6 114 13.2 114 20 C90.9 20 67.8 20 44 20 C44 27.59 44 35.18 44 43 C66.44 43 88.88 43 112 43 C112 49.27 112 55.54 112 62 C89.56 62 67.12 62 44 62 C44 71.57 44 81.14 44 91 C67.1 91 90.2 91 114 91 C114 97.6 114 104.2 114 111 C99.2839038 111.0231198 84.56781145 111.04097964 69.85170078 111.05181217 C63.01921026 111.05697493 56.18673121 111.06401723 49.35424805 111.07543945 C42.76664695 111.08644707 36.17905469 111.09227623 29.59144402 111.09487724 C27.07191721 111.096732 24.55239109 111.10035357 22.03286934 111.10573006 C18.51742235 111.11293676 15.00202539 111.1139911 11.48657227 111.11352539 C10.43353409 111.11712067 9.38049591 111.12071594 8.29554749 111.12442017 C7.34337341 111.1230455 6.39119934 111.12167084 5.41017151 111.12025452 C4.16160291 111.12163721 4.16160291 111.12163721 2.88781071 111.12304783 C1 111 1 111 0 110 C-0.09554399 108.57053529 -0.12188438 107.13637335 -0.12025452 105.70372009 C-0.12163201 104.77872428 -0.12300951 103.85372847 -0.12442875 102.90070248 C-0.12083064 101.87378072 -0.11723253 100.84685896 -0.11352539 99.78881836 C-0.11364593 98.6983574 -0.11376646 97.60789644 -0.11389065 96.48439121 C-0.11314114 92.93618835 -0.10551116 89.38803728 -0.09765625 85.83984375 C-0.09618695 83.65661647 -0.09516617 81.47338884 -0.09460449 79.29016113 C-0.08935022 71.17260207 -0.07538917 63.05505053 -0.0625 54.9375 C-0.041875 36.808125 -0.02125 18.67875 0 0 Z " fill="#000000" transform="translate(753,1827)"/>
<path d="M0 0 C1.19672081 -0.01052147 1.19672081 -0.01052147 2.4176178 -0.02125549 C4.98289686 -0.03868497 7.54794512 -0.04510906 10.11328125 -0.046875 C10.98915894 -0.04754974 11.86503662 -0.04822449 12.76745605 -0.04891968 C25.85977356 -0.03287885 38.59726083 0.34273052 51.42578125 3.203125 C52.20646973 3.37473145 52.9871582 3.54633789 53.79150391 3.72314453 C77.59892142 9.13458069 102.51407692 17.8021523 122.42578125 32.203125 C122.96170898 32.59000488 123.49763672 32.97688477 124.04980469 33.37548828 C130.26441069 37.89979108 135.44293511 42.22370964 140.42578125 48.203125 C71.12578125 48.203125 1.82578125 48.203125 -69.57421875 48.203125 C-69.57421875 36.66566259 -66.80831237 28.38248689 -59.01171875 19.828125 C-49.68238659 11.35519638 -37.30866454 5.8170867 -25.13671875 3.078125 C-24.42451172 2.90925781 -23.71230469 2.74039062 -22.97851562 2.56640625 C-15.32619223 0.80102011 -7.83672329 0.04623076 0 0 Z " fill="#ED1D23" transform="translate(683.57421875,1461.796875)"/>
<path d="M0 0 C43.23 0 86.46 0 131 0 C131 6.6 131 13.2 131 20 C116.48 20 101.96 20 87 20 C87 50.03 87 80.06 87 111 C72.81 111 58.62 111 44 111 C44 80.97 44 50.94 44 20 C29.48 20 14.96 20 0 20 C0 13.4 0 6.8 0 0 Z " fill="#000000" transform="translate(518,1827)"/>
<path d="M0 0 C14.19 0 28.38 0 43 0 C43 30.03 43 60.06 43 91 C62.8 91 82.6 91 103 91 C103 97.6 103 104.2 103 111 C69.01 111 35.02 111 0 111 C0 74.37 0 37.74 0 0 Z " fill="#000000" transform="translate(328,1827)"/>
</svg>
