<?xml version="1.0" encoding="UTF-8"?>
<svg version="1.1" xmlns="http://www.w3.org/2000/svg" width="200" height="200">
<path d="M0 0 C66 0 132 0 200 0 C200 66 200 132 200 200 C134 200 68 200 0 200 C0 134 0 68 0 0 Z " fill="#2E3191" transform="translate(0,0)"/>
<path d="M0 0 C0 51.81 0 103.62 0 157 C-62.37 157 -124.74 157 -189 157 C-189 156.34 -189 155.68 -189 155 C-188.34 155 -187.68 155 -187 155 C-186.773125 154.29875 -186.54625 153.5975 -186.3125 152.875 C-185.05393043 150.11813333 -183.59405577 148.1283929 -181.61328125 145.85546875 C-176.67353939 140.17416758 -171.96059175 134.2820316 -167.375 128.3125 C-160.36034809 119.25395184 -160.36034809 119.25395184 -157 116 C-156.34 116 -155.68 116 -155 116 C-155 115.34 -155 114.68 -155 114 C-154.34 114 -153.68 114 -153 114 C-152.731875 113.41734375 -152.46375 112.8346875 -152.1875 112.234375 C-150.98519009 109.97213399 -149.66174087 108.19423682 -148 106.25 C-147.484375 105.63640625 -146.96875 105.0228125 -146.4375 104.390625 C-145 103 -145 103 -143 103 C-142.61908203 102.12988281 -142.61908203 102.12988281 -142.23046875 101.2421875 C-138.94546457 95.25617989 -132.78845619 90.71044981 -127.59765625 86.3828125 C-126.07490144 85.06482912 -124.65796501 83.62746422 -123.25 82.1875 C-121 80 -121 80 -118 79 C-118 78.34 -118 77.68 -118 77 C-113.00090792 71.67488017 -106.70525677 67.35594149 -100.92529297 62.90844727 C-98.46024853 60.99977112 -96.14234145 59.14478624 -93.953125 56.91796875 C-91.52196486 54.53056949 -88.86013963 52.84922821 -86 51 C-83.73444664 49.41750419 -81.49353239 47.80101647 -79.25 46.1875 C-78.02098956 45.30837531 -76.79182174 44.42947059 -75.5625 43.55078125 C-73.35121904 41.9688375 -71.14328512 40.38259705 -68.9375 38.79296875 C-68.050625 38.16003906 -67.16375 37.52710938 -66.25 36.875 C-65.47140625 36.31554687 -64.6928125 35.75609375 -63.890625 35.1796875 C-62 34 -62 34 -60 34 C-60 33.34 -60 32.68 -60 32 C-58.1640625 30.703125 -58.1640625 30.703125 -55.625 29.25 C-54.71363281 28.72148438 -53.80226562 28.19296875 -52.86328125 27.6484375 C-51.91839844 27.10445312 -50.97351563 26.56046875 -50 26 C-48.26876679 24.96177152 -46.53951561 23.92022911 -44.8125 22.875 C-33.22784785 15.88868507 -21.25919047 9.59689652 -9.1875 3.5 C-8.49986572 3.14969727 -7.81223145 2.79939453 -7.10375977 2.43847656 C-2.23601539 0 -2.23601539 0 0 0 Z " fill="#2E3191" transform="translate(200,43)"/>
<path d="M0 0 C0 3.3 0 6.6 0 10 C-8.62418804 14.72007962 -17.29267684 19.20272336 -26.27514648 23.20898438 C-30.34067177 25.06096533 -33.55337271 27.10579381 -37 30 C-38.921875 31.0546875 -38.921875 31.0546875 -40.75 31.875 C-43.92165483 33.38303211 -46.73929326 35.12346603 -49.625 37.125 C-52.97838421 39.42645606 -56.01982102 40.97944129 -60 42 C-60 42.66 -60 43.32 -60 44 C-61.40625 45.12109375 -61.40625 45.12109375 -63.5 46.4375 C-68.13595626 49.42724886 -72.70278208 52.50268085 -77.25 55.625 C-77.93513672 56.09220459 -78.62027344 56.55940918 -79.32617188 57.04077148 C-82.24133325 59.04050108 -85.06337543 61.05115742 -87.81640625 63.2734375 C-90 65 -90 65 -92.6875 66 C-95.127078 66.74061307 -95.127078 66.74061307 -95.75390625 68.7578125 C-97.54539525 71.98136951 -100.32089811 73.75385597 -103.25 75.875 C-106.94338431 78.61680483 -110.5006064 81.28710646 -113.6875 84.625 C-114.8321875 85.800625 -114.8321875 85.800625 -116 87 C-116.66 87 -117.32 87 -118 87 C-118 87.66 -118 88.32 -118 89 C-122.47058824 93 -122.47058824 93 -125 93 C-125.25394531 93.59167969 -125.50789063 94.18335937 -125.76953125 94.79296875 C-127.13553212 97.2430973 -128.52936211 98.5359582 -130.6875 100.3125 C-135.8150122 104.65973861 -140.59883454 109.18889916 -144.8125 114.4375 C-145.534375 115.283125 -146.25625 116.12875 -147 117 C-147.66 117 -148.32 117 -149 117 C-149.28875 117.598125 -149.5775 118.19625 -149.875 118.8125 C-151 121 -151 121 -153 124 C-153.66 124 -154.32 124 -155 124 C-155 124.66 -155 125.32 -155 126 C-155.66 126 -156.32 126 -157 126 C-157.39445312 126.88945312 -157.39445312 126.88945312 -157.796875 127.796875 C-159.05402509 130.09892907 -160.33587918 131.47383383 -162.25 133.25 C-165.35562441 136.2657923 -167.93788595 139.4110809 -170.4765625 142.91015625 C-172.06187423 145.08487876 -173.70954007 147.19864701 -175.375 149.3125 C-178.8451173 153.73322849 -182.0838545 158.3028093 -185.30078125 162.91015625 C-185.86152344 163.59980469 -186.42226562 164.28945312 -187 165 C-187.66 165 -188.32 165 -189 165 C-189 165.66 -189 166.32 -189 167 C-192.63 167 -196.26 167 -200 167 C-198.80612245 161.03061224 -198.80612245 161.03061224 -196 158 C-195.34 158 -194.68 158 -194 158 C-193.62875 157.195625 -193.62875 157.195625 -193.25 156.375 C-190.37799063 150.91818219 -186.60483746 146.01695299 -182.875 141.125 C-182.43285156 140.53203125 -181.99070313 139.9390625 -181.53515625 139.328125 C-180.40550325 137.84694856 -179.20777843 136.41819279 -178 135 C-177.34 135 -176.68 135 -176 135 C-176 134.34 -176 133.68 -176 133 C-175.34 133 -174.68 133 -174 133 C-173.78730469 132.47921875 -173.57460937 131.9584375 -173.35546875 131.421875 C-171.43285083 127.9866499 -168.90000489 125.20258146 -166.3125 122.25 C-165.77012695 121.62601318 -165.22775391 121.00202637 -164.66894531 120.35913086 C-163.59479698 119.12398869 -162.51915527 117.89014339 -161.44189453 116.65771484 C-160.26027931 115.29923747 -159.09462144 113.92689535 -157.93359375 112.55078125 C-155.2680664 109.40286148 -152.56672626 106.55423758 -149.41015625 103.89453125 C-144.40522256 99.56208177 -139.82157298 94.84668364 -135.1875 90.125 C-129.19857556 84.08042554 -123.28275772 78.21626497 -116.55859375 72.9921875 C-113.49688688 70.60826307 -110.5684946 68.08959356 -107.625 65.5625 C-103.09956934 61.70976849 -98.50467009 57.96058021 -93.8125 54.3125 C-93.25965332 53.8781665 -92.70680664 53.44383301 -92.13720703 52.99633789 C-88.23958147 50 -88.23958147 50 -86 50 C-86 49.34 -86 48.68 -86 48 C-83.76953125 46.34375 -83.76953125 46.34375 -80.8125 44.5 C-79.84957031 43.8915625 -78.88664062 43.283125 -77.89453125 42.65625 C-75.30373304 41.17379596 -72.79817831 40.02309993 -70 39 C-70 38.34 -70 37.68 -70 37 C-67.83984375 35.4140625 -67.83984375 35.4140625 -64.9375 33.625 C-63.926875 32.99980469 -62.91625 32.37460938 -61.875 31.73046875 C-58.61010704 29.76532258 -55.31973328 27.87112239 -52 26 C-50.74123047 25.22076172 -50.74123047 25.22076172 -49.45703125 24.42578125 C-48.56371094 23.87277344 -47.67039063 23.31976563 -46.75 22.75 C-45.91984375 22.22921875 -45.0896875 21.7084375 -44.234375 21.171875 C-42 20 -42 20 -39 20 C-39 19.34 -39 18.68 -39 18 C-28.33333333 12.66666667 -17.66666667 7.33333333 -7 2 C-5.87851562 1.39285156 -5.87851562 1.39285156 -4.734375 0.7734375 C-3 0 -3 0 0 0 Z " fill="#F5F7FB" transform="translate(200,33)"/>
<path d="M0 0 C2.54782781 2.2225732 4.48933666 3.97867331 6 7 C8.24993359 7.02707139 10.49996095 7.04642829 12.75 7.0625 C14.62945312 7.07990234 14.62945312 7.07990234 16.546875 7.09765625 C19.32520596 7.01908354 21.37604146 6.75880479 24 6 C31.91046637 5.44487955 39.50623855 6.6708257 46.1875 11.125 C48.71560109 15.13509138 48.65981154 18.38131921 48 23 C47 26.0625 47 26.0625 46 28 C45.34 28 44.68 28 44 28 C44 27.01 44 26.02 44 25 C43.34 25 42.68 25 42 25 C41.690625 23.576875 41.690625 23.576875 41.375 22.125 C40.32505052 18.79501192 40.32505052 18.79501192 37.375 17.8125 C36.26125 17.544375 35.1475 17.27625 34 17 C32.2365625 16.195625 32.2365625 16.195625 30.4375 15.375 C22.37472319 12.33796935 13.36041548 13.65692659 5.16796875 15.5546875 C2.41976072 16.11918429 -0.20491723 16.14710962 -3 16 C-3.433125 14.88625 -3.86625 13.7725 -4.3125 12.625 C-5.69911119 8.82487666 -5.69911119 8.82487666 -9 7 C-12.10800717 6.56672762 -15.23996737 6.66821369 -18.375 6.6875 C-19.2724292 6.69096436 -20.1698584 6.69442871 -21.09448242 6.69799805 C-31.19741109 6.86201546 -39.72216202 8.93077282 -49 13 C-51.30692863 13.66546018 -53.62020693 14.30908154 -55.9375 14.9375 C-60.11483163 16.08526524 -63.92036766 17.28216476 -67.75 19.3125 C-68.8225 19.869375 -69.895 20.42625 -71 21 C-71.66 20.67 -72.32 20.34 -73 20 C-67.69678392 16.60168495 -62.32077909 13.43873738 -56.75 10.5 C-56.01346191 10.11126709 -55.27692383 9.72253418 -54.51806641 9.32202148 C-46.32777755 5.05405608 -38.00125784 1.2078557 -29 -1 C-28.34 -1.18433594 -27.68 -1.36867188 -27 -1.55859375 C-17.83037637 -3.9328713 -8.56806641 -4.35919168 0 0 Z " fill="#F3F4FA" transform="translate(105,25)"/>
<path d="M0 0 C-1.46623717 4.15433865 -3.16512788 7.60744812 -6 11 C-9.4609375 11.65625 -9.4609375 11.65625 -13.375 11.5 C-14.66148438 11.4690625 -15.94796875 11.438125 -17.2734375 11.40625 C-20.79915742 11.02189479 -23.70026157 10.26677265 -27 9 C-23.31843102 5.75671304 -19.18248888 4.39822422 -14.625 2.8125 C-13.8825 2.53986328 -13.14 2.26722656 -12.375 1.98632812 C-8.10425291 0.48100296 -4.5945479 -0.32818199 0 0 Z " fill="#E8EAF5" transform="translate(97,45)"/>
<path d="M0 0 C-0.99 1.32 -1.98 2.64 -3 4 C-2.01 4.66 -1.02 5.32 0 6 C-0.56847656 6.10957031 -1.13695312 6.21914063 -1.72265625 6.33203125 C-6.03833848 7.21822309 -9.84652743 8.28655715 -13.859375 10.15234375 C-16.82379293 11.32620997 -19.86122514 12.10297863 -22.9375 12.9375 C-27.11483163 14.08526524 -30.92036766 15.28216476 -34.75 17.3125 C-35.8225 17.869375 -36.895 18.42625 -38 19 C-38.66 18.67 -39.32 18.34 -40 18 C-7.83474479 -2.6115816 -7.83474479 -2.6115816 0 0 Z " fill="#ECEEF9" transform="translate(72,27)"/>
<path d="M0 0 C6 2 6 2 12 4 C12 4.33 12 4.66 12 5 C11.03578125 4.98839844 10.0715625 4.97679687 9.078125 4.96484375 C7.81484375 4.95582031 6.5515625 4.94679688 5.25 4.9375 C3.37054688 4.92009766 3.37054688 4.92009766 1.453125 4.90234375 C-1.36152603 4.98194361 -3.33278955 5.32261322 -6 6 C-8.24907152 6.06790675 -10.50001605 6.08499984 -12.75 6.0625 C-13.92046875 6.05347656 -15.0909375 6.04445313 -16.296875 6.03515625 C-17.18890625 6.02355469 -18.0809375 6.01195312 -19 6 C-14.79193397 3.19462264 -10.99598308 3.61472463 -6.03125 3.44140625 C-2.83354121 2.97576051 -1.89431361 2.53702715 0 0 Z " fill="#353884" transform="translate(131,27)"/>
<path d="M0 0 C0.33 0.99 0.66 1.98 1 3 C0.34 3.66 -0.32 4.32 -1 5 C-1 5.66 -1 6.32 -1 7 C-1.99 7.33 -2.98 7.66 -4 8 C-4.66 7.67 -5.32 7.34 -6 7 C-6 7.99 -6 8.98 -6 10 C-8 11.5 -8 11.5 -10 13 C-10 13.99 -10 14.98 -10 16 C-12.97 15.505 -12.97 15.505 -16 15 C-15.67 14.34 -15.34 13.68 -15 13 C-14.34 13 -13.68 13 -13 13 C-13 12.34 -13 11.68 -13 11 C-11.42578125 9.4140625 -11.42578125 9.4140625 -9.3125 7.625 C-8.22388672 6.69880859 -8.22388672 6.69880859 -7.11328125 5.75390625 C-4.76550888 3.80538537 -2.40435225 1.8784002 0 0 Z " fill="#313387" transform="translate(95,109)"/>
<path d="M0 0 C-3.63 3.3 -7.26 6.6 -11 10 C-11.99 9.67 -12.98 9.34 -14 9 C-14.99 9 -15.98 9 -17 9 C-16.360625 8.71125 -15.72125 8.4225 -15.0625 8.125 C-12.84793921 7.17176549 -12.84793921 7.17176549 -12 5 C-11.01 5 -10.02 5 -9 5 C-8.62875 4.071875 -8.62875 4.071875 -8.25 3.125 C-6.05756043 -0.60214727 -4.06146667 -1.35382222 0 0 Z " fill="#2A2D81" transform="translate(82,108)"/>
<path d="M0 0 C0.33 0 0.66 0 1 0 C1.94693195 3.7016431 2.30443767 5.39112465 0.5625 8.875 C0.046875 9.57625 -0.46875 10.2775 -1 11 C-3 10 -5 9 -7 8 C-5.85760183 6.66372225 -4.71098945 5.33104612 -3.5625 4 C-2.92441406 3.2575 -2.28632812 2.515 -1.62890625 1.75 C-1.09136719 1.1725 -0.55382813 0.595 0 0 Z " fill="#383A8E" transform="translate(55,146)"/>
<path d="M0 0 C1.32 0.33 2.64 0.66 4 1 C1.36 3.97 -1.28 6.94 -4 10 C-4.66 8.68 -5.32 7.36 -6 6 C-5.67 5.01 -5.34 4.02 -5 3 C-3.35 2.67 -1.7 2.34 0 2 C0 1.34 0 0.68 0 0 Z " fill="#333588" transform="translate(31,154)"/>
<path d="M0 0 C5.29333218 0.51642265 8.63789377 2.09192918 13 5 C13.33 5.99 13.66 6.98 14 8 C12.35 8.33 10.7 8.66 9 9 C8.34 7.68 7.68 6.36 7 5 C6.01 5.495 6.01 5.495 5 6 C5 4.68 5 3.36 5 2 C3.35 1.67 1.7 1.34 0 1 C0 0.67 0 0.34 0 0 Z " fill="#40408E" transform="translate(132,39)"/>
<path d="M0 0 C0.66 1.32 1.32 2.64 2 4 C1.2884375 4.8971875 1.2884375 4.8971875 0.5625 5.8125 C-1.16465744 8.00382924 -1.16465744 8.00382924 -2 11 C-2.99 11.33 -3.98 11.66 -5 12 C-5.35338623 9.03155565 -5.5417682 6.84401782 -3.88671875 4.265625 C-2.64496832 2.79651181 -1.32662082 1.39295186 0 0 Z " fill="#343489" transform="translate(31,173)"/>
<path d="M0 0 C2 1 2 1 3 3 C1.0848421 3.81604999 -0.83218834 4.62770632 -2.75 5.4375 C-3.81734375 5.88996094 -4.8846875 6.34242187 -5.984375 6.80859375 C-8.3413841 7.73979553 -10.52992835 8.4784072 -13 9 C-9.49391962 4.88416651 -4.95371163 2.09432982 0 0 Z " fill="#D8DFF6" transform="translate(45,37)"/>
<path d="M0 0 C1.32 0.33 2.64 0.66 4 1 C-1.14285714 6.57142857 -1.14285714 6.57142857 -5 7 C-5 7.66 -5 8.32 -5 9 C-5.66 8.67 -6.32 8.34 -7 8 C-4.69 5.36 -2.38 2.72 0 0 Z " fill="#444493" transform="translate(39,164)"/>
<path d="M0 0 C0 1.65 0 3.3 0 5 C-0.969375 5.45375 -1.93875 5.9075 -2.9375 6.375 C-6.07079582 7.65786221 -6.07079582 7.65786221 -7 10 C-7.66 9.67 -8.32 9.34 -9 9 C-7.90904165 5.72712496 -7.08205507 4.95539407 -4.5 2.8125 C-3.8709375 2.28269531 -3.241875 1.75289062 -2.59375 1.20703125 C-1 0 -1 0 0 0 Z " fill="#373A86" transform="translate(75,128)"/>
<path d="M0 0 C0.66 0.33 1.32 0.66 2 1 C1.34 2.32 0.68 3.64 0 5 C-0.66 5 -1.32 5 -2 5 C-2.28875 5.639375 -2.5775 6.27875 -2.875 6.9375 C-4 9 -4 9 -6 10 C-6.25 7.6875 -6.25 7.6875 -6 5 C-3.95575462 3.02389614 -2.8823175 2 0 2 C0 1.34 0 0.68 0 0 Z " fill="#3D3E88" transform="translate(49,135)"/>
<path d="M0 0 C-0.639375 0.309375 -1.27875 0.61875 -1.9375 0.9375 C-3.93610821 1.8345163 -3.93610821 1.8345163 -5 3 C-7.01964199 3.07244053 -9.04167124 3.08377188 -11.0625 3.0625 C-12.16722656 3.05347656 -13.27195312 3.04445312 -14.41015625 3.03515625 C-15.69212891 3.01775391 -15.69212891 3.01775391 -17 3 C-11.43378861 0.06790578 -6.24009471 -0.12480189 0 0 Z " fill="#3F418A" transform="translate(125,38)"/>
<path d="M0 0 C0.33 0.99 0.66 1.98 1 3 C0.34 3.66 -0.32 4.32 -1 5 C-1 5.66 -1 6.32 -1 7 C-1.99 7.33 -2.98 7.66 -4 8 C-4.66 7.67 -5.32 7.34 -6 7 C-6.33 7.66 -6.66 8.32 -7 9 C-6.82374165 6.62051228 -6.30280227 5.29774151 -4.59765625 3.62109375 C-3.09350908 2.37884514 -1.54870149 1.18623944 0 0 Z " fill="#3E3F8E" transform="translate(95,109)"/>
<path d="M0 0 C-0.50603992 2.16874252 -0.99983813 3.99967627 -2 6 C-4.97 5.505 -4.97 5.505 -8 5 C-6.45487538 1.90975077 -3.48715062 0 0 0 Z " fill="#3A3C8D" transform="translate(150,70)"/>
<path d="M0 0 C2.97 0.495 2.97 0.495 6 1 C2.80009492 3.74277578 -0.00499382 5.6302836 -4 7 C-3.67 5.68 -3.34 4.36 -3 3 C-2.01 3 -1.02 3 0 3 C0 2.01 0 1.02 0 0 Z " fill="#3E408E" transform="translate(146,56)"/>
<path d="M0 0 C1.42944945 2.35438733 2.08661261 3.48032433 1.625 6.25 C1.41875 6.8275 1.2125 7.405 1 8 C-0.9375 7.625 -0.9375 7.625 -3 7 C-3.33 6.34 -3.66 5.68 -4 5 C-3.01 5 -2.02 5 -1 5 C-0.67 3.35 -0.34 1.7 0 0 Z " fill="#303281" transform="translate(152,49)"/>
<path d="M0 0 C-2.97 2.475 -2.97 2.475 -6 5 C-6.33 3.68 -6.66 2.36 -7 1 C-3.375 -1.125 -3.375 -1.125 0 0 Z " fill="#333781" transform="translate(82,108)"/>
<path d="M0 0 C0.66 0.66 1.32 1.32 2 2 C1.34 2.66 0.68 3.32 0 4 C-0.33 4.66 -0.66 5.32 -1 6 C-2.32 6 -3.64 6 -5 6 C-5 5.01 -5 4.02 -5 3 C-2.5 1.3125 -2.5 1.3125 0 0 Z " fill="#3C3E90" transform="translate(128,84)"/>
<path d="M0 0 C0.66 0 1.32 0 2 0 C1.74438677 2.3431213 1.40729228 4.67843403 1 7 C0.01 7.495 0.01 7.495 -1 8 C-1.625 5.6875 -1.625 5.6875 -2 3 C-1.34 2.01 -0.68 1.02 0 0 Z " fill="#373A8F" transform="translate(8,180)"/>
<path d="M0 0 C1.65 0.33 3.3 0.66 5 1 C4.34 2.32 3.68 3.64 3 5 C1.35 4.67 -0.3 4.34 -2 4 C-1.34 2.68 -0.68 1.36 0 0 Z " fill="#373894" transform="translate(83,43)"/>
<path d="M0 0 C0.66 0.33 1.32 0.66 2 1 C0.02 2.98 -1.96 4.96 -4 7 C-4.99 6.67 -5.98 6.34 -7 6 C-4.69 4.02 -2.38 2.04 0 0 Z " fill="#E3E6F8" transform="translate(87,103)"/>
</svg>
