<?xml version="1.0" encoding="UTF-8"?>
<svg version="1.1" xmlns="http://www.w3.org/2000/svg" width="564" height="724">
<path d="M0 0 C33.165 -0.061875 66.33 -0.12375 100.5 -0.1875 C110.95236328 -0.21481201 121.40472656 -0.24212402 132.17382812 -0.27026367 C144.98730469 -0.28381348 144.98730469 -0.28381348 150.9954834 -0.28633118 C155.17066277 -0.28911381 159.34572643 -0.30030693 163.52087402 -0.31672668 C168.86283578 -0.33745372 174.20463167 -0.34344599 179.54662991 -0.33921683 C181.49694468 -0.3400999 183.44726585 -0.34595952 185.39754581 -0.35764539 C212.67545196 -0.51336887 236.83071228 6.15846016 258 24 C258.96164062 24.763125 259.92328125 25.52625 260.9140625 26.3125 C276.98816859 39.76056333 286.91630895 62.45775292 289 83 C290.23472135 111.35440621 287.20982909 138.68081942 268 161 C267.49082031 161.59296875 266.98164063 162.1859375 266.45703125 162.796875 C258.86729218 170.96755706 248.30735732 177.83942372 238 182 C237.34 182 236.68 182 236 182 C236 182.66 236 183.32 236 184 C237.32257813 184.17015625 237.32257813 184.17015625 238.671875 184.34375 C248.49696793 186.28109227 256.10198868 193.12565252 263 200 C263.63808594 200.61488281 264.27617187 201.22976562 264.93359375 201.86328125 C276.71249785 214.11439086 281.23629366 232.25846412 283.546875 248.61328125 C283.67485474 249.51629974 283.80283447 250.41931824 283.93469238 251.34970093 C285.48645651 262.87544757 286.03842649 274.46150975 286.65673828 286.06689453 C287.99760246 316.77541379 287.99760246 316.77541379 299 345 C299 345.66 299 346.32 299 347 C273.59 347 248.18 347 222 347 C216.21788864 328.49724366 216.21788864 328.49724366 215.375 321.125 C215.26220703 320.23699707 215.14941406 319.34899414 215.03320312 318.43408203 C213.96353321 309.60339543 213.25426878 300.73684188 212.5 291.875 C210.37580612 254.527615 210.37580612 254.527615 192.1875 223.125 C177.32772608 213.21848405 162.55499052 212.5428895 145.26171875 212.48828125 C143.50767843 212.47277946 141.75364912 212.45597634 139.99963379 212.43786621 C133.56237691 212.38037941 127.12491627 212.34789245 120.6875 212.3125 C106.270625 212.209375 91.85375 212.10625 77 212 C77 256.55 77 301.1 77 347 C51.59 347 26.18 347 0 347 C0 232.49 0 117.98 0 0 Z M77 60 C77 91.68 77 123.36 77 156 C92.5925 156.061875 108.185 156.12375 124.25 156.1875 C131.60394043 156.22846802 131.60394043 156.22846802 139.10644531 156.27026367 C143.54501029 156.28030401 143.54501029 156.28030401 147.98358154 156.28633118 C149.94307506 156.29090354 151.90256074 156.30138254 153.86199951 156.31672668 C170.69033615 156.44178924 187.76613517 155.83800582 200.9375 143.75 C211.66702143 131.79350166 212.92188576 115.55718371 212.1640625 100.22705078 C211.35453355 89.23817717 207.67988823 80.71986339 200.75 72.25 C185.50184806 59.77423932 168.47261751 59.4086578 149.65625 59.609375 C147.78613769 59.61527377 145.91601871 59.61934358 144.04589844 59.62158203 C137.19716334 59.64234938 130.34857064 59.6981933 123.5 59.75 C100.4825 59.87375 100.4825 59.87375 77 60 Z " fill="#000000" transform="translate(18,0)"/>
<path d="M0 0 C0.775784 -0.00067474 1.55156799 -0.00134949 2.3508606 -0.00204468 C42.29864398 0.05294796 81.61777149 9.36670387 111.125 37.5625 C131.62239798 58.77492349 138.375 83.43958187 138.375 112.25 C113.625 112.25 88.875 112.25 63.375 112.25 C62.385 105.32 62.385 105.32 61.375 98.25 C56.81271025 85.21488643 50.76952118 74.90154516 38.1640625 68.66015625 C17.30669486 59.56563241 -8.62870276 57.57562529 -30.2265625 65.1640625 C-35.22337762 67.21960852 -39.28646645 70.06250596 -43.625 73.25 C-44.285 73.25 -44.945 73.25 -45.625 73.25 C-45.9034375 73.83007812 -46.181875 74.41015625 -46.46875 75.0078125 C-47.92268165 77.82726103 -49.65307272 80.41423148 -51.40625 83.0546875 C-54.2845058 88.239238 -55.01255034 93.20288427 -55 99.0625 C-54.99983887 99.76665039 -54.99967773 100.47080078 -54.99951172 101.19628906 C-54.871592 107.04289346 -53.58121376 111.2870134 -50.625 116.25 C-50.21894531 117.29414063 -50.21894531 117.29414063 -49.8046875 118.359375 C-48.17173378 120.97642665 -46.51107911 121.25239371 -43.625 122.25 C-41.64271097 123.30666321 -39.66391654 124.36989304 -37.6875 125.4375 C-31.89249076 128.4065884 -26.009577 130.60549161 -19.80078125 132.546875 C-18.85343109 132.84528793 -17.90608093 133.14370087 -16.93002319 133.45115662 C-4.98086162 137.15094642 7.13186769 140.22358107 19.25 143.3125 C21.54831972 143.90374267 23.84649729 144.49553823 26.14453125 145.08789062 C35.12117303 147.3971044 44.10091818 149.69208873 53.09863281 151.91796875 C54.17742706 152.18524277 55.25622131 152.45251678 56.3677063 152.72789001 C58.38804903 153.22717847 60.4090572 153.72378594 62.43087769 154.21705627 C82.81491191 159.24953954 100.73271588 167.4197574 117.375 180.25 C118.41914062 181.03310547 118.41914062 181.03310547 119.484375 181.83203125 C136.41786465 195.30891407 146.68792137 216.03148297 149.96875 237.0546875 C153.06338723 264.57105956 147.68115574 293.76389239 130.1875 315.8125 C128.92281056 317.29692312 127.65282754 318.7768713 126.375 320.25 C125.611875 321.260625 124.84875 322.27125 124.0625 323.3125 C106.03826558 343.01340739 79.46418561 353.9425647 53.875 359.5 C52.84681152 359.72659302 52.84681152 359.72659302 51.79785156 359.95776367 C36.99277655 362.9501711 21.998174 363.66100857 6.9375 363.625 C5.63863861 363.62418427 5.63863861 363.62418427 4.3135376 363.62335205 C-24.33451128 363.54120569 -52.76906406 359.10716858 -78.625 346.25 C-79.77484375 345.6828125 -80.9246875 345.115625 -82.109375 344.53125 C-108.39622619 330.95588084 -128.55351702 308.59493544 -137.72607422 280.32470703 C-141.75401888 266.78930937 -142.625 253.3449257 -142.625 239.25 C-117.875 239.25 -93.125 239.25 -67.625 239.25 C-66.635 247.17 -66.635 247.17 -65.625 255.25 C-63.41740048 264.75838744 -59.91367759 272.76935084 -53.625 280.25 C-53.12613281 280.87132812 -52.62726563 281.49265625 -52.11328125 282.1328125 C-39.11482087 296.73561686 -16.81214671 301.69015495 1.75 303 C23.43816648 304.17121611 46.48588755 301.3409114 63.625 287.0625 C70.02050242 281.11458329 74.01013849 273.88430375 74.578125 265.11328125 C74.73396064 253.30873172 73.42162625 246.27831557 65.0390625 237.65625 C44.3795464 218.99604191 11.85511912 214.87310158 -14.26296997 208.35665894 C-53.10524206 198.63745912 -96.84029341 187.29683625 -119.625 151.25 C-131.64602553 130.13658405 -133.84298271 104.32598496 -128.59375 80.77734375 C-123.56772672 62.47694446 -113.76275167 46.00845882 -99.625 33.25 C-98.965 33.25 -98.305 33.25 -97.625 33.25 C-97.625 32.59 -97.625 31.93 -97.625 31.25 C-77.08431575 14.02967993 -51.80977237 5.31484669 -25.625 1.25 C-24.63910889 1.0953125 -24.63910889 1.0953125 -23.63330078 0.9375 C-15.80664663 -0.10779605 -7.88211502 0.00616435 0 0 Z " fill="#000000" transform="translate(142.625,360.75)"/>
<path d="M0 0 C81.51 0 163.02 0 247 0 C247 21.45 247 42.9 247 65 C190.9 65 134.8 65 77 65 C77 89.09 77 113.18 77 138 C129.8 138 182.6 138 237 138 C237 158.13 237 178.26 237 199 C184.2 199 131.4 199 77 199 C77 226.39 77 253.78 77 282 C133.1 282 189.2 282 247 282 C247 303.45 247 324.9 247 347 C165.49 347 83.98 347 0 347 C0 232.49 0 117.98 0 0 Z " fill="#000000" transform="translate(317,369)"/>
<path d="M0 0 C25.41 0 50.82 0 77 0 C77 114.51 77 229.02 77 347 C51.59 347 26.18 347 0 347 C0 232.49 0 117.98 0 0 Z " fill="#000000" transform="translate(352,0)"/>
<path d="M0 0 C29.7 0 59.4 0 90 0 C90 30.03 90 60.06 90 91 C60.3 91 30.6 91 0 91 C0 60.97 0 30.94 0 0 Z " fill="#BEBD00" transform="translate(474,256)"/>
</svg>
