<?xml version="1.0" encoding="UTF-8"?>
<svg version="1.1" xmlns="http://www.w3.org/2000/svg" width="220" height="220">
<path d="M0 0 C3.3 0 6.6 0 10 0 C11.20568053 4.67201205 11.09382426 9.21496292 11 14 C13.31 14 15.62 14 18 14 C18 12.68 18 11.36 18 10 C21.63 10 25.26 10 29 10 C29 11.32 29 12.64 29 14 C30.32 13.67 31.64 13.34 33 13 C32.484375 12.0925 31.96875 11.185 31.4375 10.25 C30 7 30 7 30.3125 4.625 C30.539375 4.08875 30.76625 3.5525 31 3 C32.37562854 4.28965176 33.70766393 5.62689293 35 7 C35 7.66 35 8.32 35 9 C35.78246094 9.06058594 36.56492188 9.12117188 37.37109375 9.18359375 C38.38300781 9.26738281 39.39492187 9.35117188 40.4375 9.4375 C41.95150391 9.55931641 41.95150391 9.55931641 43.49609375 9.68359375 C46 10 46 10 47 11 C47.07868364 12.43670504 47.1380758 13.87449105 47.1875 15.3125 C47.57718007 19.1423244 47.71834557 19.73799588 50.6875 22.5 C55.14523758 24.51859815 58.28534659 25.57155114 63 24 C63.84622034 21.10874716 64.4136231 18.94682443 63.17578125 16.11328125 C62.14667822 14.39088775 61.07508503 12.69407337 60 11 C60 10.34 60 9.68 60 9 C61.58323688 8.972807 63.16661062 8.95351694 64.75 8.9375 C66.07257813 8.92009766 66.07257813 8.92009766 67.421875 8.90234375 C69.83894273 8.99389935 71.74188893 9.14093601 74 10 C74.99 11.485 74.99 11.485 76 13 C79.06556598 13.73343428 79.06556598 13.73343428 82 14 C82 12.68 82 11.36 82 10 C85.63 10 89.26 10 93 10 C93 11.32 93 12.64 93 14 C101.25 14 109.5 14 118 14 C117.67 12.68 117.34 11.36 117 10 C120.63 10 124.26 10 128 10 C128.33 10.99 128.66 11.98 129 13 C130.98 13.33 132.96 13.66 135 14 C135 12.68 135 11.36 135 10 C138.63 10 142.26 10 146 10 C146 11.32 146 12.64 146 14 C148.31 14 150.62 14 153 14 C152.67 12.35 152.34 10.7 152 9 C155.63 9 159.26 9 163 9 C165.38297872 17.78723404 165.38297872 17.78723404 165 22 C163.18884376 23.81115624 160.70122499 23.11995376 158.29098511 23.12442017 C157.47171539 23.12082489 156.65244568 23.11722961 155.80834961 23.11352539 C154.94988937 23.11367142 154.09142914 23.11381744 153.20695496 23.1139679 C150.35539262 23.11326847 147.50389475 23.1054747 144.65234375 23.09765625 C142.68079158 23.09579218 140.70923895 23.09436822 138.73768616 23.09336853 C133.53773733 23.08954251 128.33781625 23.07971152 123.13787842 23.06866455 C117.83606339 23.05845222 112.5342439 23.05387129 107.23242188 23.04882812 C96.82160237 23.03808933 86.41080349 23.02101191 76 23 C75.57654297 24.18142578 75.57654297 24.18142578 75.14453125 25.38671875 C74 28 74 28 71.6875 29.8125 C63.78108399 32.35863397 55.8078916 31.50441806 48 29 C44.67493463 28.55239505 41.3448488 28.25574297 38 28 C38 26.68 38 25.36 38 24 C29.65667456 22.80809637 21.40676978 22.90716451 13 23 C13.04125 23.78375 13.0825 24.5675 13.125 25.375 C13 28 13 28 11 30 C8.96875 30.25878906 8.96875 30.25878906 6.5 30.265625 C5.613125 30.26820312 4.72625 30.27078125 3.8125 30.2734375 C2.884375 30.26570313 1.95625 30.25796875 1 30.25 C-0.3921875 30.26160156 -0.3921875 30.26160156 -1.8125 30.2734375 C-3.1428125 30.26957031 -3.1428125 30.26957031 -4.5 30.265625 C-5.3146875 30.26336914 -6.129375 30.26111328 -6.96875 30.25878906 C-9 30 -9 30 -11 28 C-12.14222874 24.00219942 -12.08107875 20.1350163 -12 16 C-8.7 16 -5.4 16 -2 16 C-1.67 17.98 -1.34 19.96 -1 22 C-0.01 22 0.98 22 2 22 C1.855625 21.0821875 1.71125 20.164375 1.5625 19.21875 C0.58361714 12.74724667 -0.26184366 6.54609151 0 0 Z " fill="#706C6D" transform="translate(28,96)"/>
<path d="M0 0 C0.7028714 -0.00100708 1.4057428 -0.00201416 2.12991333 -0.00305176 C37.107837 0.03065378 79.56968604 8.047954 105.75 33.25 C111.93900222 40.91563138 114.82620997 48.36810687 114.75 58.25 C113.71524649 66.30484593 111.21098643 72.24114762 105.75 78.25 C104.75 75.25 104.75 75.25 105.4921875 73.33984375 C105.86601562 72.62957031 106.23984375 71.91929687 106.625 71.1875 C109.89935391 64.10069906 110.65916892 58.11239874 108.1875 50.625 C102.14455605 35.98168871 88.89880675 26.64030599 74.72705078 20.52270508 C54.21526903 12.01584499 32.39356816 6.17928383 10.078125 6.046875 C9.28163544 6.03990601 8.48514587 6.03293701 7.66452026 6.02575684 C5.10962571 6.0084703 2.55495059 6.00203758 0 6 C-1.30907318 5.99848938 -1.30907318 5.99848938 -2.64459229 5.99694824 C-15.74049446 6.00717777 -28.39890543 6.53183395 -41.25 9.25 C-42.34779785 9.4668042 -42.34779785 9.4668042 -43.46777344 9.68798828 C-58.67488804 12.71934026 -72.99057573 17.76613008 -86.80664062 24.79785156 C-91.93841646 27.35386118 -91.93841646 27.35386118 -95.25 26.25 C-70.4298859 5.44392052 -31.23991468 0.03122109 0 0 Z " fill="#DE4848" transform="translate(100.25,70.75)"/>
<path d="M0 0 C3.63 0 7.26 0 11 0 C11 1.65 11 3.3 11 5 C12.2375 4.979375 13.475 4.95875 14.75 4.9375 C17.07385479 4.92933179 18.93040195 4.98210336 21.1875 5.5625 C23.13107966 6.17009872 23.13107966 6.17009872 25.625 5.4375 C26.40875 5.293125 27.1925 5.14875 28 5 C28.66 5.66 29.32 6.32 30 7 C30.66 6.34 31.32 5.68 32 5 C34.58064129 4.85502015 37.04943884 4.81322455 39.625 4.875 C40.33140625 4.88402344 41.0378125 4.89304687 41.765625 4.90234375 C43.51056098 4.92592397 45.25532295 4.96179539 47 5 C47 5.66 47 6.32 47 7 C47.86625 6.67 48.7325 6.34 49.625 6 C54.31344704 4.61083051 58.32419329 4.56129024 63 6 C61.125 10.75 61.125 10.75 60 13 C61.32 13 62.64 13 64 13 C64 14.65 64 16.3 64 18 C61.06281233 18.19461488 58.12550068 18.38097593 55.1875 18.5625 C54.35412109 18.61857422 53.52074219 18.67464844 52.66210938 18.73242188 C51.85966797 18.78076172 51.05722656 18.82910156 50.23046875 18.87890625 C49.49207764 18.9260376 48.75368652 18.97316895 47.99291992 19.02172852 C46 19 46 19 43 18 C41.17735126 17.9176274 39.35182671 17.89256463 37.52734375 17.90234375 C36.46322266 17.90556641 35.39910156 17.90878906 34.30273438 17.91210938 C32.63694336 17.92467773 32.63694336 17.92467773 30.9375 17.9375 C29.82310547 17.94201172 28.70871094 17.94652344 27.56054688 17.95117188 C24.70698672 17.96328523 21.85352008 17.98099408 19 18 C14.33333333 18 9.66666667 18 5 18 C4.67 15.69 4.34 13.38 4 11 C3.690625 11.969375 3.38125 12.93875 3.0625 13.9375 C2 17 2 17 1 18 C-1.33297433 18.04092937 -3.66705225 18.04241723 -6 18 C-7.27382218 14.17853346 -6.97333827 11.89335307 -6 8 C-3.58235424 6.07828158 -2.11532786 5 1 5 C0.67 3.35 0.34 1.7 0 0 Z M7 5 C7.66 5.66 8.32 6.32 9 7 C9.33 6.34 9.66 5.68 10 5 C9.01 5 8.02 5 7 5 Z M28 9 C29 11 29 11 29 11 Z M50 9 C49.67 9.66 49.34 10.32 49 11 C49.66 11 50.32 11 51 11 C50.67 10.34 50.34 9.68 50 9 Z M11 11 C11 12.65 11 14.3 11 16 C11.33 16 11.66 16 12 16 C12 14.35 12 12.7 12 11 C11.67 11 11.34 11 11 11 Z M38 11 C39 13 39 13 39 13 Z " fill="#807F82" transform="translate(109,120)"/>
<path d="M0 0 C3.3 0 6.6 0 10 0 C11.20568053 4.67201205 11.09382426 9.21496292 11 14 C13.31 14 15.62 14 18 14 C18 12.68 18 11.36 18 10 C21.63 10 25.26 10 29 10 C29 11.32 29 12.64 29 14 C30.010625 13.835 31.02125 13.67 32.0625 13.5 C37.23861764 14.15728478 38.55936279 16.22012901 41.71484375 20.15234375 C43 22 43 22 43 23 C33.1 23 23.2 23 13 23 C13 24.65 13 26.3 13 28 C10.55013068 30.44986932 9.862922 30.25631311 6.5 30.265625 C5.613125 30.26820312 4.72625 30.27078125 3.8125 30.2734375 C2.884375 30.26570313 1.95625 30.25796875 1 30.25 C-0.3921875 30.26160156 -0.3921875 30.26160156 -1.8125 30.2734375 C-3.1428125 30.26957031 -3.1428125 30.26957031 -4.5 30.265625 C-5.3146875 30.26336914 -6.129375 30.26111328 -6.96875 30.25878906 C-9 30 -9 30 -11 28 C-12.14222874 24.00219942 -12.08107875 20.1350163 -12 16 C-8.7 16 -5.4 16 -2 16 C-1.67 17.98 -1.34 19.96 -1 22 C-0.01 22 0.98 22 2 22 C1.855625 21.0821875 1.71125 20.164375 1.5625 19.21875 C0.58361714 12.74724667 -0.26184366 6.54609151 0 0 Z " fill="#6E6B6C" transform="translate(28,96)"/>
<path d="M0 0 C1.7074998 1.28062485 3.37373596 2.61767557 5 4 C5 4.66 5 5.32 5 6 C6.17369141 6.09087891 6.17369141 6.09087891 7.37109375 6.18359375 C8.88896484 6.30927734 8.88896484 6.30927734 10.4375 6.4375 C11.95150391 6.55931641 11.95150391 6.55931641 13.49609375 6.68359375 C16 7 16 7 17 8 C17.07868364 9.43670504 17.1380758 10.87449105 17.1875 12.3125 C17.57718007 16.1423244 17.71834557 16.73799588 20.6875 19.5 C25.14523758 21.51859815 28.28534659 22.57155114 33 21 C33.84622034 18.10874716 34.4136231 15.94682443 33.17578125 13.11328125 C32.14667822 11.39088775 31.07508503 9.69407337 30 8 C30 7.34 30 6.68 30 6 C33.3 6 36.6 6 40 6 C43.07024996 10.98915618 43.84831976 15.26840367 43 21 C41.5 23.5625 41.5 23.5625 40 25 C40.495 25.99 40.495 25.99 41 27 C33.58146731 29.47284423 25.30051818 28.34167564 18 26 C14.67493463 25.55239505 11.3448488 25.25574297 8 25 C8 23.68 8 22.36 8 21 C9.65 21 11.3 21 13 21 C11.92027262 19.5805831 10.83604137 18.1645917 9.75 16.75 C9.14671875 15.96109375 8.5434375 15.1721875 7.921875 14.359375 C6.0680539 12.08354585 4.08220448 10.06455868 2 8 C0.06470585 4.90352936 0 3.86069323 0 0 Z " fill="#D83639" transform="translate(58,99)"/>
<path d="M0 0 C3.63 0 7.26 0 11 0 C11 1.65 11 3.3 11 5 C12.216875 4.95875 13.43375 4.9175 14.6875 4.875 C18.25202537 4.8624045 20.73530848 5.50756959 24 7 C24.99 7 25.98 7 27 7 C27.125 14.75 27.125 14.75 26 17 C23.03 16.67 20.06 16.34 17 16 C17 16.66 17 17.32 17 18 C13.04 18 9.08 18 5 18 C4.67 15.69 4.34 13.38 4 11 C3.690625 11.969375 3.38125 12.93875 3.0625 13.9375 C2 17 2 17 1 18 C-1.33297433 18.04092937 -3.66705225 18.04241723 -6 18 C-7.27382218 14.17853346 -6.97333827 11.89335307 -6 8 C-3.58235424 6.07828158 -2.11532786 5 1 5 C0.67 3.35 0.34 1.7 0 0 Z M7 5 C7.66 5.66 8.32 6.32 9 7 C9.33 6.34 9.66 5.68 10 5 C9.01 5 8.02 5 7 5 Z M11 11 C11 12.65 11 14.3 11 16 C11.33 16 11.66 16 12 16 C12 14.35 12 12.7 12 11 C11.67 11 11.34 11 11 11 Z " fill="#78787B" transform="translate(109,120)"/>
<path d="M0 0 C0.495 0.165 0.99 0.33 1.5 0.5 C-0.375 5.25 -0.375 5.25 -1.5 7.5 C-0.18 7.5 1.14 7.5 2.5 7.5 C2.5 9.15 2.5 10.8 2.5 12.5 C-3.44 12.83 -9.38 13.16 -15.5 13.5 C-15.83 11.85 -16.16 10.2 -16.5 8.5 C-17.49 8.17 -18.48 7.84 -19.5 7.5 C-18.51 7.17 -17.52 6.84 -16.5 6.5 C-15.13823419 4.51924973 -13.80406884 2.51920337 -12.5 0.5 C-8.76025568 -1.36987216 -4.03209172 -0.80641834 0 0 Z M-11.5 3.5 C-11.83 4.16 -12.16 4.82 -12.5 5.5 C-11.84 5.5 -11.18 5.5 -10.5 5.5 C-10.83 4.84 -11.16 4.18 -11.5 3.5 Z " fill="#D95855" transform="translate(170.5,125.5)"/>
<path d="M0 0 C1.38294718 0.01329757 2.76582404 0.03715018 4.1484375 0.0703125 C4.85484375 0.07933594 5.56125 0.08835937 6.2890625 0.09765625 C8.03399848 0.12123647 9.77876045 0.15710789 11.5234375 0.1953125 C11.20632812 0.95199219 10.88921875 1.70867187 10.5625 2.48828125 C9.44945927 5.38804525 8.95165958 8.12638762 8.5234375 11.1953125 C6.8734375 11.1953125 5.2234375 11.1953125 3.5234375 11.1953125 C3.1934375 8.8853125 2.8634375 6.5753125 2.5234375 4.1953125 C2.2140625 5.1646875 1.9046875 6.1340625 1.5859375 7.1328125 C0.5234375 10.1953125 0.5234375 10.1953125 -0.4765625 11.1953125 C-2.80953683 11.23624187 -5.14361475 11.23772973 -7.4765625 11.1953125 C-7.4765625 9.8753125 -7.4765625 8.5553125 -7.4765625 7.1953125 C-6.1565625 6.8653125 -4.8365625 6.5353125 -3.4765625 6.1953125 C-4.4665625 6.1953125 -5.4565625 6.1953125 -6.4765625 6.1953125 C-5.58828476 1.75392382 -4.83361544 0.27155143 0 0 Z " fill="#727275" transform="translate(110.4765625,126.8046875)"/>
<path d="M0 0 C-3.38355709 2.25570473 -6.80424114 3.36040676 -10.625 4.625 C-17.88254095 7.08010355 -24.72784294 10.06964795 -31.55322266 13.54736328 C-36.69064691 16.1031177 -36.69064691 16.1031177 -40 15 C-33.73490347 9.74812663 -26.86560543 6.30390993 -19.4375 3 C-18.55167236 2.59015869 -17.66584473 2.18031738 -16.75317383 1.75805664 C-10.61665681 -0.88358843 -6.56824649 -1.28030794 0 0 Z " fill="#E26360" transform="translate(45,82)"/>
<path d="M0 0 C0 0.66 0 1.32 0 2 C0.99 2.66 1.98 3.32 3 4 C-19.80127986 8.5691466 -19.80127986 8.5691466 -29 9 C-28.34 8.67 -27.68 8.34 -27 8 C-27 7.34 -27 6.68 -27 6 C-24.1047827 5.18525038 -21.20887172 4.37312678 -18.3125 3.5625 C-17.49587891 3.33240234 -16.67925781 3.10230469 -15.83789062 2.86523438 C-5.58118207 0 -5.58118207 0 0 0 Z " fill="#DF4E4D" transform="translate(67,74)"/>
<path d="M0 0 C3.63 0 7.26 0 11 0 C11 1.65 11 3.3 11 5 C13.64 5 16.28 5 19 5 C19 5.33 19 5.66 19 6 C15.37 6 11.74 6 8 6 C8.33 6.66 8.66 7.32 9 8 C8.24074219 7.94199219 7.48148438 7.88398437 6.69921875 7.82421875 C3.72926554 7.68939597 0.95184921 7.62993041 -2 8 C-4.30487721 10.30317533 -4.30487721 10.30317533 -5 13 C-4.01 13 -3.02 13 -2 13 C-2.33 13.66 -2.66 14.32 -3 15 C-3.99 14.67 -4.98 14.34 -6 14 C-6.3125 11.1875 -6.3125 11.1875 -6 8 C-3.61107499 6.11400657 -2.08148442 5 1 5 C0.67 3.35 0.34 1.7 0 0 Z " fill="#B0ABAA" transform="translate(109,120)"/>
<path d="M0 0 C3.3 0 6.6 0 10 0 C13.07024996 4.98915618 13.84831976 9.26840367 13 15 C11.5 17.5625 11.5 17.5625 10 19 C10.33 19.66 10.66 20.32 11 21 C7.04 21.495 7.04 21.495 3 22 C3.825 21.21625 4.65 20.4325 5.5 19.625 C8.52267867 16.02861178 8.49185321 12.92763301 8.37109375 8.3671875 C7.98323328 5.89304598 7.23995434 4.16120555 6 2 C4.02 2 2.04 2 0 2 C0 1.34 0 0.68 0 0 Z " fill="#BBC4B7" transform="translate(88,105)"/>
<path d="M0 0 C1.81293089 0.14037521 3.6253443 0.28744889 5.4375 0.4375 C6.95150391 0.55931641 6.95150391 0.55931641 8.49609375 0.68359375 C11 1 11 1 12 2 C12.20768229 3.47396739 12.36716017 4.9549126 12.5 6.4375 C12.79146944 9.84497505 12.79146944 9.84497505 14 13 C10.57719483 11.53417985 8.43519517 9.61937745 5.875 6.9375 C3.22095 4.08428067 3.22095 4.08428067 0 2 C0 1.34 0 0.68 0 0 Z " fill="#7B6E6F" transform="translate(63,105)"/>
<path d="M0 0 C2.05078125 0.03255208 4.1015625 0.06510417 6.15234375 0.09765625 C5.84296875 0.79890625 5.53359375 1.50015625 5.21484375 2.22265625 C4.11931697 5.18702282 3.58811383 7.97463733 3.15234375 11.09765625 C1.50234375 11.09765625 -0.14765625 11.09765625 -1.84765625 11.09765625 C-2.04172103 9.45258407 -2.2277356 7.80656031 -2.41015625 6.16015625 C-2.51457031 5.24363281 -2.61898437 4.32710937 -2.7265625 3.3828125 C-2.76652344 2.62871094 -2.80648437 1.87460938 -2.84765625 1.09765625 C-1.84765625 0.09765625 -1.84765625 0.09765625 0 0 Z " fill="#68686B" transform="translate(115.84765625,126.90234375)"/>
<path d="M0 0 C1.65 0.33 3.3 0.66 5 1 C4.67 2.98 4.34 4.96 4 7 C2.35 7.33 0.7 7.66 -1 8 C-1 8.99 -1 9.98 -1 11 C-0.01 11.33 0.98 11.66 2 12 C-0.97 11.505 -0.97 11.505 -4 11 C-4 10.01 -4 9.02 -4 8 C-4.99 7.67 -5.98 7.34 -7 7 C-6.01 6.67 -5.02 6.34 -4 6 C-2.60287726 4.04402816 -1.26220093 2.04563599 0 0 Z M1 3 C0.67 3.66 0.34 4.32 0 5 C0.66 5 1.32 5 2 5 C1.67 4.34 1.34 3.68 1 3 Z " fill="#DE4A49" transform="translate(158,126)"/>
<path d="M0 0 C1.32 0 2.64 0 4 0 C6.37564257 5.31025986 6.43294755 10.41246628 5 16 C3.44921875 17.80078125 3.44921875 17.80078125 2 19 C1.01 18.67 0.02 18.34 -1 18 C-0.505 17.525625 -0.01 17.05125 0.5 16.5625 C2.71453814 12.77933067 2.46539201 9.28770998 2 5 C1.13346586 2.06919326 1.13346586 2.06919326 0 0 Z " fill="#383435" transform="translate(98,106)"/>
<path d="M0 0 C2.64 0 5.28 0 8 0 C8.1875 2.3125 8.1875 2.3125 8 5 C6.5625 6.6875 6.5625 6.6875 5 8 C4.67 8.66 4.34 9.32 4 10 C3.01 10 2.02 10 1 10 C1.020625 9.0925 1.04125 8.185 1.0625 7.25 C1.0110245 4.57327412 0.7784983 2.53011948 0 0 Z " fill="#786466" transform="translate(147,127)"/>
<path d="M0 0 C3.63 0 7.26 0 11 0 C11 1.65 11 3.3 11 5 C7.7 5 4.4 5 1 5 C0.67 3.35 0.34 1.7 0 0 Z " fill="#7D7878" transform="translate(45,100)"/>
<path d="M0 0 C1.65 0.33 3.3 0.66 5 1 C5.125 7.625 5.125 7.625 4 11 C4.99 11.66 5.98 12.32 7 13 C3.04 13 -0.92 13 -5 13 C-5.33 12.34 -5.66 11.68 -6 11 C-4.68 11.33 -3.36 11.66 -2 12 C-1.67 10.68 -1.34 9.36 -1 8 C-1 9.32 -1 10.64 -1 12 C-0.01 12 0.98 12 2 12 C2.33 8.7 2.66 5.4 3 2 C2.01 2 1.02 2 0 2 C-0.33 2.99 -0.66 3.98 -1 5 C-0.67 3.35 -0.34 1.7 0 0 Z " fill="#98989B" transform="translate(133,125)"/>
<path d="M0 0 C1.37707039 4.13121117 0.03858183 5.95270747 -1.7421875 9.76953125 C-3.44768199 12.79387086 -5.37888189 14.74292607 -8 17 C-7.34309381 13.21760329 -6.279869 9.78158474 -4.9375 6.1875 C-4.57527344 5.21167969 -4.21304688 4.23585937 -3.83984375 3.23046875 C-3.42412109 2.12638672 -3.42412109 2.12638672 -3 1 C-2.34 1.33 -1.68 1.66 -1 2 C-0.67 1.34 -0.34 0.68 0 0 Z " fill="#E67D77" transform="translate(213,132)"/>
<path d="M0 0 C0 0.66 0 1.32 0 2 C0.66 2.33 1.32 2.66 2 3 C-1.09478879 4.03159626 -2.52631393 3.97482862 -5.6875 3.5625 C-6.89986328 3.40974609 -6.89986328 3.40974609 -8.13671875 3.25390625 C-8.75160156 3.17011719 -9.36648437 3.08632812 -10 3 C-10 1.68 -10 0.36 -10 -1 C-5.94568308 -2.15837626 -3.78187881 -1.83691257 0 0 Z " fill="#807373" transform="translate(76,121)"/>
<path d="M0 0 C1.90845703 0.04060547 1.90845703 0.04060547 3.85546875 0.08203125 C5.31919922 0.13423828 5.31919922 0.13423828 6.8125 0.1875 C6.4825 0.8475 6.1525 1.5075 5.8125 2.1875 C0.44385108 3.91638694 -4.67653321 4.63775442 -10.1875 3.1875 C-7.45798749 -0.67846382 -4.44588996 -0.12236394 0 0 Z " fill="#DA282D" transform="translate(87.1875,71.8125)"/>
<path d="M0 0 C0.886875 0.103125 1.77375 0.20625 2.6875 0.3125 C2.6875 1.9625 2.6875 3.6125 2.6875 5.3125 C-0.9425 5.3125 -4.5725 5.3125 -8.3125 5.3125 C-4.12788462 0.38942308 -4.12788462 0.38942308 0 0 Z " fill="#716F71" transform="translate(170.3125,132.6875)"/>
<path d="M0 0 C8.57142857 -0.14285714 8.57142857 -0.14285714 12 1 C11.34 2.65 10.68 4.3 10 6 C9.01 5.67 8.02 5.34 7 5 C7 4.01 7 3.02 7 2 C6.01 2 5.02 2 4 2 C3.67 4.64 3.34 7.28 3 10 C2.34 9.67 1.68 9.34 1 9 C1.66 6.69 2.32 4.38 3 2 C2.01 2 1.02 2 0 2 C0 1.34 0 0.68 0 0 Z " fill="#C39895" transform="translate(160,125)"/>
<path d="M0 0 C3.3 0 6.6 0 10 0 C12 4 12 4 12 7 C10.125 6.75 10.125 6.75 8 6 C6.75 3.9375 6.75 3.9375 6 2 C4.02 2 2.04 2 0 2 C0 1.34 0 0.68 0 0 Z " fill="#F0E4DE" transform="translate(88,105)"/>
<path d="M0 0 C0 0.66 0 1.32 0 2 C0.99 2.66 1.98 3.32 3 4 C-0.63 4.33 -4.26 4.66 -8 5 C-7.67 4.34 -7.34 3.68 -7 3 C-7.66 2.34 -8.32 1.68 -9 1 C-5.846632 0.29925156 -3.27275026 0 0 0 Z " fill="#E2605E" transform="translate(67,74)"/>
<path d="M0 0 C0.99 0 1.98 0 3 0 C3.125 7.75 3.125 7.75 2 10 C1.01 10 0.02 10 -1 10 C-0.67 6.7 -0.34 3.4 0 0 Z " fill="#636366" transform="translate(133,127)"/>
<path d="M0 0 C-0.33 1.32 -0.66 2.64 -1 4 C-3.97 4.66 -6.94 5.32 -10 6 C-10 5.01 -10 4.02 -10 3 C-8.70990357 2.49596232 -7.41786211 1.99690074 -6.125 1.5 C-5.04605469 1.08234375 -5.04605469 1.08234375 -3.9453125 0.65625 C-2 0 -2 0 0 0 Z " fill="#928A89" transform="translate(72,96)"/>
<path d="M0 0 C1.49080078 0.02707031 1.49080078 0.02707031 3.01171875 0.0546875 C3.77097656 0.07789062 4.53023437 0.10109375 5.3125 0.125 C5.6425 0.785 5.9725 1.445 6.3125 2.125 C5.55324219 2.06699219 4.79398438 2.00898437 4.01171875 1.94921875 C1.04176554 1.81439597 -1.73565079 1.75493041 -4.6875 2.125 C-6.99237721 4.42817533 -6.99237721 4.42817533 -7.6875 7.125 C-6.6975 7.125 -5.7075 7.125 -4.6875 7.125 C-5.0175 7.785 -5.3475 8.445 -5.6875 9.125 C-6.6775 8.795 -7.6675 8.465 -8.6875 8.125 C-8.875 5.25 -8.875 5.25 -8.6875 2.125 C-5.26655758 -0.15562828 -4.00562778 -0.09425007 0 0 Z " fill="#868789" transform="translate(111.6875,125.875)"/>
<path d="M0 0 C2.97 0 5.94 0 9 0 C9 0.99 9 1.98 9 3 C6.03 3 3.06 3 0 3 C0 2.01 0 1.02 0 0 Z " fill="#656466" transform="translate(110,121)"/>
<path d="M0 0 C2.5 1.5625 2.5 1.5625 5 4 C5.3125 7.75 5.3125 7.75 5 11 C2.65808437 8.8709858 1.16445046 6.95591271 0 4 C0 2.68 0 1.36 0 0 Z " fill="#E36562" transform="translate(58,99)"/>
<path d="M0 0 C1.32 0.66 2.64 1.32 4 2 C2.73581754 2.69965443 1.46334598 3.38434763 0.1875 4.0625 C-0.52019531 4.44535156 -1.22789063 4.82820313 -1.95703125 5.22265625 C-4 6 -4 6 -7 5 C-4.69 3.35 -2.38 1.7 0 0 Z " fill="#E5766F" transform="translate(12,92)"/>
<path d="M0 0 C0.82638376 2.89234315 1 4.88742431 1 8 C1.99 8.33 2.98 8.66 4 9 C1.03 8.505 1.03 8.505 -2 8 C-2 7.01 -2 6.02 -2 5 C-2.99 4.67 -3.98 4.34 -5 4 C-4.01 3.67 -3.02 3.34 -2 3 C-1.34 2.01 -0.68 1.02 0 0 Z " fill="#D9272C" transform="translate(156,129)"/>
<path d="M0 0 C1.80411967 2.75924185 2.0127245 3.88972103 1.625 7.25 C1.41875 8.1575 1.2125 9.065 1 10 C-0.65 10.33 -2.3 10.66 -4 11 C-3.525625 10.29875 -3.05125 9.5975 -2.5625 8.875 C-0.91260143 5.83918663 -0.39631536 3.40831214 0 0 Z " fill="#464141" transform="translate(101,114)"/>
<path d="M0 0 C0.33 1.32 0.66 2.64 1 4 C1.99 4 2.98 4 4 4 C4.33 3.01 4.66 2.02 5 1 C5.66 1 6.32 1 7 1 C7 1.99 7 2.98 7 4 C4.59454362 5.20272819 3.05003047 5.10071472 0.375 5.0625 C-0.85089844 5.04896484 -0.85089844 5.04896484 -2.1015625 5.03515625 C-3.04128906 5.01775391 -3.04128906 5.01775391 -4 5 C-2.68 4.67 -1.36 4.34 0 4 C0 2.68 0 1.36 0 0 Z " fill="#9E8B8C" transform="translate(147,133)"/>
<path d="M0 0 C0.99 0 1.98 0 3 0 C3.33 1.32 3.66 2.64 4 4 C1.525 5.485 1.525 5.485 -1 7 C-0.67 4.69 -0.34 2.38 0 0 Z " fill="#6A6162" transform="translate(164,127)"/>
<path d="M0 0 C2.31 0.33 4.62 0.66 7 1 C3.5647952 3.29013653 2.014669 3.17842973 -2 3 C-1.34 2.01 -0.68 1.02 0 0 Z " fill="#E15856" transform="translate(29,84)"/>
</svg>
