<?xml version="1.0" encoding="UTF-8"?>
<svg version="1.1" xmlns="http://www.w3.org/2000/svg" width="168" height="140">
<path d="M0 0 C55.44 0 110.88 0 168 0 C168 46.2 168 92.4 168 140 C112.56 140 57.12 140 0 140 C0 93.8 0 47.6 0 0 Z " fill="#2E9191" transform="translate(0,0)"/>
<path d="M0 0 C0.99 0.33 1.98 0.66 3 1 C2.67 1.66 2.34 2.32 2 3 C1.04622371 7.10113774 1.04622371 7.10113774 2 11 C5.62544143 14.55841646 9.76020057 17.23815882 14 20 C15.88072113 21.24137546 17.75632841 22.49055906 19.625 23.75 C20.42164062 24.26046875 21.21828125 24.7709375 22.0390625 25.296875 C24.40118496 27.34843953 25.14054339 29.01577564 26 32 C25.625 34.3125 25.625 34.3125 25 36 C21.85262818 35.30058404 18.97411124 34.23921302 16 33 C16 32.34 16 31.68 16 31 C15.05125 31.12375 14.1025 31.2475 13.125 31.375 C7.6235091 31.44278018 3.39378399 27.97044551 -1 25 C-0.505 28.96 -0.505 28.96 0 33 C1.05960938 33.42152344 2.11921875 33.84304687 3.2109375 34.27734375 C4.59897649 34.83068362 5.98699633 35.38407153 7.375 35.9375 C8.07367188 36.21529297 8.77234375 36.49308594 9.4921875 36.77929688 C14.7734375 38.88671875 14.7734375 38.88671875 17 40 C17 40.66 17 41.32 17 42 C16.34 42 15.68 42 15 42 C15 42.66 15 43.32 15 44 C11.8125 44.75 11.8125 44.75 8 45 C6.32916181 43.67189785 4.66270287 42.33827304 3 41 C0.24003334 40.64337509 -2.20210222 40.81031201 -5 41 C-5 43.97 -5 46.94 -5 50 C-5.33 50 -5.66 50 -6 50 C-6 47.03 -6 44.06 -6 41 C-7.12277344 41.2165625 -8.24554688 41.433125 -9.40234375 41.65625 C-25.45336102 44.67723852 -25.45336102 44.67723852 -32 44 C-33.7265625 42.6015625 -33.7265625 42.6015625 -35 41 C-35 40.34 -35 39.68 -35 39 C-35.66 38.67 -36.32 38.34 -37 38 C-35.12612523 37.6603981 -33.25083303 37.32861309 -31.375 37 C-30.33085938 36.814375 -29.28671875 36.62875 -28.2109375 36.4375 C-25.09425135 36.01284203 -22.14069188 35.92454794 -19 36 C-19 35.34 -19 34.68 -19 34 C-14.05 33.67 -9.1 33.34 -4 33 C-4 30.36 -4 27.72 -4 25 C-4.99 25.66 -5.98 26.32 -7 27 C-9.17494749 27.40727235 -11.36628423 27.72999323 -13.5625 28 C-17.77626508 28.54830755 -21.9144285 29.14146439 -26.0625 30.0625 C-31.9816577 31.31748001 -37.97084106 31.64089649 -44 32 C-44 31.34 -44 30.68 -44 30 C-44.639375 29.731875 -45.27875 29.46375 -45.9375 29.1875 C-48 28 -48 28 -49 25 C-49.66 25 -50.32 25 -51 25 C-51 24.34 -51 23.68 -51 23 C-50.34 23 -49.68 23 -49 23 C-49 22.34 -49 21.68 -49 21 C-9.83068821 11.75916305 -9.83068821 11.75916305 -1 12 C-1.01160156 11.21753906 -1.02320313 10.43507813 -1.03515625 9.62890625 C-1.04417969 8.61699219 -1.05320313 7.60507812 -1.0625 6.5625 C-1.07410156 5.55316406 -1.08570313 4.54382813 -1.09765625 3.50390625 C-1 1 -1 1 0 0 Z " fill="#2E8C8F" transform="translate(95,24)"/>
<path d="M0 0 C2.375 -0.125 2.375 -0.125 5 0 C5.66 0.66 6.32 1.32 7 2 C7.66 2 8.32 2 9 2 C9.39960937 2.48210937 9.79921875 2.96421875 10.2109375 3.4609375 C12.86068542 5.74041497 15.18776774 5.48019421 18.625 5.625 C24.91666667 5.91666667 24.91666667 5.91666667 26 7 C26.07244053 9.01964199 26.08377188 11.04167124 26.0625 13.0625 C26.05347656 14.16722656 26.04445312 15.27195312 26.03515625 16.41015625 C26.02355469 17.26480469 26.01195312 18.11945313 26 19 C22.7 19 19.4 19 16 19 C15.34 17.35 14.68 15.7 14 14 C13.67 15.98 13.34 17.96 13 20 C11.68 20 10.36 20 9 20 C9 16.04 9 12.08 9 8 C7.68 8.33 6.36 8.66 5 9 C4.67 12.3 4.34 15.6 4 19 C-0.66394653 20.1306537 -5.43181967 20.67981244 -10.125 19.4375 C-12.62296909 18.85464055 -14.54079819 19.38519955 -17 20 C-17 19.34 -17 18.68 -17 18 C-17.94875 18.185625 -18.8975 18.37125 -19.875 18.5625 C-23 19 -23 19 -25 18 C-24.67 15.69 -24.34 13.38 -24 11 C-22.02 10.67 -20.04 10.34 -18 10 C-18 9.34 -18 8.68 -18 8 C-19.98 8.33 -21.96 8.66 -24 9 C-24 8.01 -24 7.02 -24 6 C-20.535 5.505 -20.535 5.505 -17 5 C-16.67 4.01 -16.34 3.02 -16 2 C-13.16032769 2 -10.76264289 2.40267181 -8 3 C-8 3.66 -8 4.32 -8 5 C-5.69 5 -3.38 5 -1 5 C-0.67 3.35 -0.34 1.7 0 0 Z " fill="#449D93" transform="translate(67,91)"/>
<path d="M0 0 C3.47574164 1.30706382 6.58642023 2.83552946 9.765625 4.75 C11.10173828 5.53890625 11.10173828 5.53890625 12.46484375 6.34375 C14.31008434 7.44105997 16.15130757 8.54515608 17.98828125 9.65625 C23.66293034 12.98755479 28.49535742 14.93801754 35 16 C35 18.31 35 20.62 35 23 C32 24 32 24 29 23 C29 23.66 29 24.32 29 25 C27.35 25 25.7 25 24 25 C24 25.66 24 26.32 24 27 C25.32 27.33 26.64 27.66 28 28 C28 28.99 28 29.98 28 31 C23.52955587 30.60676649 19.20896875 30.13571489 14.875 28.9375 C11.09729351 27.85094296 11.09729351 27.85094296 7.5 28.0625 C3.05360633 27.98310011 0.08330901 26.719288 -4 25 C-4 22.03 -4 19.06 -4 16 C1.20022673 14.94232677 1.20022673 14.94232677 4 15 C5.70250393 16.28725907 7.37064759 17.62131719 9 19 C12.70940775 19.33465889 12.70940775 19.33465889 16 19 C16 18.34 16 17.68 16 17 C16.66 17 17.32 17 18 17 C18 16.34 18 15.68 18 15 C17.45472656 14.82984375 16.90945312 14.6596875 16.34765625 14.484375 C10.71615022 12.67459186 5.36060431 10.49654622 0 8 C0 5.36 0 2.72 0 0 Z " fill="#399192" transform="translate(94,49)"/>
<path d="M0 0 C0 2.31 0 4.62 0 7 C-5.08907179 8.68885126 -10.08881334 10.09253848 -15.3984375 10.8828125 C-22.13409303 11.96770153 -28.75721062 13.46212533 -35.39306641 15.03173828 C-37.39239898 15.50411077 -39.39332547 15.96922825 -41.39453125 16.43359375 C-47.0293236 17.7557555 -52.50922176 19.16942228 -58 21 C-60.45018787 21.42497905 -62.90963927 21.79938632 -65.375 22.125 C-66.62023437 22.29257812 -67.86546875 22.46015625 -69.1484375 22.6328125 C-70.08945313 22.75398438 -71.03046875 22.87515625 -72 23 C-72 21.68 -72 20.36 -72 19 C-68.61045776 16.74030517 -65.96009898 16.12562829 -62 15.1875 C-60.55700062 14.83974715 -59.11430455 14.49073389 -57.671875 14.140625 C-56.91197266 13.95693359 -56.15207031 13.77324219 -55.36914062 13.58398438 C-51.31633909 12.58498383 -47.28399962 11.50947193 -43.25 10.4375 C-38.05171558 9.05834215 -32.85162271 7.70623163 -27.625 6.4375 C-22.3441785 5.13954528 -17.18111375 3.53975858 -12.0078125 1.8671875 C-7.98449235 0.70721728 -4.18954948 0 0 0 Z " fill="#EBF6F7" transform="translate(94,28)"/>
<path d="M0 0 C0.33 0 0.66 0 1 0 C1.05414063 1.63001953 1.05414063 1.63001953 1.109375 3.29296875 C1.60975667 7.18303321 1.60975667 7.18303321 4.765625 8.92578125 C5.91546875 9.38339844 7.0653125 9.84101562 8.25 10.3125 C9.95929688 11.01826172 9.95929688 11.01826172 11.703125 11.73828125 C13.33507812 12.36283203 13.33507812 12.36283203 15 13 C16.6668203 13.66628245 18.33354945 14.33279329 20 15 C20 15.66 20 16.32 20 17 C19.34 17 18.68 17 18 17 C18 17.66 18 18.32 18 19 C14.8125 19.75 14.8125 19.75 11 20 C9.32916181 18.67189785 7.66270287 17.33827304 6 16 C3.24003334 15.64337509 0.79789778 15.81031201 -2 16 C-2 18.97 -2 21.94 -2 25 C-2.33 25 -2.66 25 -3 25 C-3 22.03 -3 19.06 -3 16 C-4.12277344 16.2165625 -5.24554688 16.433125 -6.40234375 16.65625 C-22.45336102 19.67723852 -22.45336102 19.67723852 -29 19 C-30.7265625 17.6015625 -30.7265625 17.6015625 -32 16 C-32 15.34 -32 14.68 -32 14 C-32.66 13.67 -33.32 13.34 -34 13 C-32.12612523 12.6603981 -30.25083303 12.32861309 -28.375 12 C-27.33085938 11.814375 -26.28671875 11.62875 -25.2109375 11.4375 C-22.09425135 11.01284203 -19.14069188 10.92454794 -16 11 C-16 10.34 -16 9.68 -16 9 C-11.05 8.34 -6.1 7.68 -1 7 C-0.67 4.69 -0.34 2.38 0 0 Z " fill="#2C898C" transform="translate(92,49)"/>
<path d="M0 0 C0.66 0 1.32 0 2 0 C2 2.64 2 5.28 2 8 C1.1843457 8.11069824 0.36869141 8.22139648 -0.47167969 8.33544922 C-3.55830277 8.75524044 -6.64469771 9.17666449 -9.73095703 9.59912109 C-11.69937781 9.86808306 -13.66804533 10.13523731 -15.63671875 10.40234375 C-21.60696845 11.22060132 -27.56063216 12.07353036 -33.5 13.09375 C-37.7614941 13.82071076 -41.93710209 14.34372405 -46.25 14.625 C-47.89742187 14.73714844 -47.89742187 14.73714844 -49.578125 14.8515625 C-50.77695312 14.92503906 -50.77695312 14.92503906 -52 15 C-51.67 13.35 -51.34 11.7 -51 10 C-49.96101563 9.80664062 -48.92203125 9.61328125 -47.8515625 9.4140625 C-35.23731591 7.06332463 -35.23731591 7.06332463 -22.6640625 4.50390625 C-16.41170234 3.19880194 -10.14207768 2.28976469 -3.80859375 1.46484375 C-1.10295993 1.29701181 -1.10295993 1.29701181 0 0 Z " fill="#E5F5F6" transform="translate(89,49)"/>
<path d="M0 0 C2.83967231 0 5.23735711 0.40267181 8 1 C8 1.66 8 2.32 8 3 C10.31 3 12.62 3 15 3 C15 3.99 15 4.98 15 6 C13.02 6.33 11.04 6.66 9 7 C8.67 9.64 8.34 12.28 8 15 C9.98 15 11.96 15 14 15 C14 15.66 14 16.32 14 17 C13.33613281 16.98839844 12.67226563 16.97679688 11.98828125 16.96484375 C5.43693213 16.88106591 5.43693213 16.88106591 -1 18 C-1 17.34 -1 16.68 -1 16 C-1.94875 16.185625 -2.8975 16.37125 -3.875 16.5625 C-7 17 -7 17 -9 16 C-8.67 13.69 -8.34 11.38 -8 9 C-6.02 8.67 -4.04 8.34 -2 8 C-2 7.34 -2 6.68 -2 6 C-3.98 6.33 -5.96 6.66 -8 7 C-8 6.01 -8 5.02 -8 4 C-4.535 3.505 -4.535 3.505 -1 3 C-0.67 2.01 -0.34 1.02 0 0 Z " fill="#44A298" transform="translate(51,93)"/>
<path d="M0 0 C0 2.97 0 5.94 0 9 C-1.27875 9.06058594 -2.5575 9.12117188 -3.875 9.18359375 C-5.5833411 9.26807216 -7.29167401 9.35271641 -9 9.4375 C-9.83917969 9.47681641 -10.67835937 9.51613281 -11.54296875 9.55664062 C-15.49024907 9.75553459 -19.39328232 10.01234042 -23.3125 10.53125 C-26.27230139 10.90749594 -29.02674469 11.10895711 -32 11.0625 C-32.763125 11.05347656 -33.52625 11.04445313 -34.3125 11.03515625 C-35.1478125 11.01775391 -35.1478125 11.01775391 -36 11 C-35.67 9.35 -35.34 7.7 -35 6 C-33.12612523 5.6603981 -31.25083303 5.32861309 -29.375 5 C-28.33085938 4.814375 -27.28671875 4.62875 -26.2109375 4.4375 C-23.09425135 4.01284203 -20.14069188 3.92454794 -17 4 C-17 3.34 -17 2.68 -17 2 C-14.91727106 1.66291092 -12.83378963 1.33046884 -10.75 1 C-9.58984375 0.814375 -8.4296875 0.62875 -7.234375 0.4375 C-4 0 -4 0 0 0 Z " fill="#F5FDFD" transform="translate(89,65)"/>
<path d="M0 0 C2 0 2 0 4 1.9375 C4.66128906 2.62392578 4.66128906 2.62392578 5.3359375 3.32421875 C10.71967271 8.74586759 16.56798724 13.69389335 22.5 18.5 C26.27757496 21.57163727 30.017077 24.67567502 33.6875 27.875 C34.51636719 28.59429687 35.34523437 29.31359375 36.19921875 30.0546875 C38 32 38 32 38 35 C34.27244486 33.31717171 31.04952148 31.0105717 27.75 28.625 C26.84822021 27.97712524 26.84822021 27.97712524 25.92822266 27.31616211 C19.08139019 22.37454283 12.31318161 17.32131888 5.60351562 12.19506836 C4.29070086 11.21665358 2.92837983 10.30498756 1.5546875 9.4140625 C0 8 0 8 -0.390625 5.95703125 C-0.26041667 3.97135417 -0.13020833 1.98567708 0 0 Z " fill="#DCF3F4" transform="translate(96,27)"/>
<path d="M0 0 C0.99 0 1.98 0 3 0 C3 0.66 3 1.32 3 2 C5.01822917 1.90234375 7.03645833 1.8046875 9.0546875 1.70703125 C9.69664063 1.80371094 10.33859375 1.90039062 11 2 C13.28062828 5.42094242 13.21925007 6.68187222 13.125 10.6875 C13.10695313 11.68136719 13.08890625 12.67523438 13.0703125 13.69921875 C13.04710938 14.45847656 13.02390625 15.21773437 13 16 C11.54207116 16.05399736 10.08357288 16.09279177 8.625 16.125 C7.40683594 16.15980469 7.40683594 16.15980469 6.1640625 16.1953125 C4 16 4 16 2 14 C1.8046875 11.8359375 1.8046875 11.8359375 1.875 9.375 C1.89304687 8.55773437 1.91109375 7.74046875 1.9296875 6.8984375 C1.95289062 6.27195312 1.97609375 5.64546875 2 5 C0.35 5.66 -1.3 6.32 -3 7 C-3.33 9.97 -3.66 12.94 -4 16 C-4.99 16 -5.98 16 -7 16 C-7 11.71 -7 7.42 -7 3 C-5.68 3 -4.36 3 -3 3 C-1.97980427 2.0206121 -0.97850195 1.02104551 0 0 Z " fill="#4D969A" transform="translate(104,94)"/>
<path d="M0 0 C0 0.66 0 1.32 0 2 C2.64 2.33 5.28 2.66 8 3 C5.30801595 4.4481954 2.87253077 5.37890388 -0.1171875 6 C-1.27541016 6.2475 -1.27541016 6.2475 -2.45703125 6.5 C-3.25496094 6.665 -4.05289063 6.83 -4.875 7 C-11.05757868 8.27914533 -11.05757868 8.27914533 -17.109375 10.0546875 C-20.51840785 11.16953338 -23.82156233 11.65567804 -27.375 12.125 C-29.24285156 12.37636719 -29.24285156 12.37636719 -31.1484375 12.6328125 C-32.08945312 12.75398438 -33.03046875 12.87515625 -34 13 C-34 11.68 -34 10.36 -34 9 C-30.60657549 6.73771699 -27.40318766 5.97354566 -23.5 5.0625 C-22.05702527 4.71595112 -20.61431739 4.36828927 -19.171875 4.01953125 C-18.46353516 3.8488916 -17.75519531 3.67825195 -17.02539062 3.50244141 C-13.40149605 2.60345695 -9.81804639 1.56178994 -6.234375 0.515625 C-4 0 -4 0 0 0 Z " fill="#DDEFF2" transform="translate(56,38)"/>
<path d="M0 0 C3.63533727 1.36923806 6.93924742 3.00363845 10.30859375 4.93359375 C11.30310547 5.50013672 12.29761719 6.06667969 13.32226562 6.65039062 C14.35029297 7.24013672 15.37832031 7.82988281 16.4375 8.4375 C25.10382891 13.43460683 25.10382891 13.43460683 34 18 C34 19.32 34 20.64 34 22 C32.6016978 21.57045619 31.20646093 21.13092966 29.8125 20.6875 C29.03519531 20.44386719 28.25789063 20.20023438 27.45703125 19.94921875 C25 19 25 19 22.52734375 17.515625 C19.97013587 15.98209075 17.56729735 15.0221934 14.75 14.0625 C9.70581535 12.28984895 4.84780017 10.25033687 0 8 C0 5.36 0 2.72 0 0 Z " fill="#EAF4F9" transform="translate(94,49)"/>
<path d="M0 0 C5.27083484 0.67574806 10.02018689 2.22694899 15 4 C15.68449219 4.23847656 16.36898437 4.47695312 17.07421875 4.72265625 C21.91908506 6.4645237 26.42859271 8.63266408 31 11 C31 11.99 31 12.98 31 14 C25.09240235 13.57802874 19.54162684 12.50268032 13.8125 11.0625 C13.13574219 10.89266602 12.45898438 10.72283203 11.76171875 10.54785156 C7.78054455 9.52328467 3.88350661 8.34684599 0 7 C0 4.69 0 2.38 0 0 Z " fill="#CEE6E6" transform="translate(91,66)"/>
<path d="M0 0 C0.99 0 1.98 0 3 0 C3.33 1.65 3.66 3.3 4 5 C4.763125 4.938125 5.52625 4.87625 6.3125 4.8125 C9 5 9 5 10.8125 6 C12.80825156 9.36126578 12.3677757 12.13835515 12 16 C9 18 9 18 0 18 C0 12.06 0 6.12 0 0 Z " fill="#C2E8ED" transform="translate(121,92)"/>
<path d="M0 0 C3.375 -0.125 3.375 -0.125 7 0 C9 2 9 2 9.1953125 4.6015625 C9.17210937 5.59929687 9.14890625 6.59703125 9.125 7.625 C9.10695312 8.62789062 9.08890625 9.63078125 9.0703125 10.6640625 C9.03550781 11.82035156 9.03550781 11.82035156 9 13 C5.7 13 2.4 13 -1 13 C-2.125 7.25 -2.125 7.25 -1 5 C2.0625 4.375 2.0625 4.375 5 4 C5 3.34 5 2.68 5 2 C3.02 2.33 1.04 2.66 -1 3 C-0.67 2.01 -0.34 1.02 0 0 Z " fill="#91C7C9" transform="translate(144,97)"/>
<path d="M0 0 C6.15234375 -0.09765625 6.15234375 -0.09765625 8 0 C9 1 9 1 9.09765625 3.72265625 C9.08605469 4.82480469 9.07445313 5.92695312 9.0625 7.0625 C9.05347656 8.16722656 9.04445313 9.27195312 9.03515625 10.41015625 C9.02355469 11.26480469 9.01195313 12.11945313 9 13 C5.7 13 2.4 13 -1 13 C-1.625 10.125 -1.625 10.125 -2 7 C0 5 0 5 3.125 4.875 C4.07375 4.91625 5.0225 4.9575 6 5 C6 4.01 6 3.02 6 2 C4.02 2.33 2.04 2.66 0 3 C0 2.01 0 1.02 0 0 Z " fill="#BDE8E9" transform="translate(84,97)"/>
<path d="M0 0 C2.91852208 1.33922829 5.1900426 2.85450497 7.6015625 4.96875 C8.25640625 5.53980469 8.91125 6.11085938 9.5859375 6.69921875 C10.25882813 7.29347656 10.93171875 7.88773438 11.625 8.5 C12.6459375 9.39138672 12.6459375 9.39138672 13.6875 10.30078125 C16.18349214 12.48600757 18.65367537 14.65367537 21 17 C21 17.99 21 18.98 21 20 C17.04862237 18.2449216 13.66793458 15.71500276 10.1875 13.1875 C9.59646484 12.76146484 9.00542969 12.33542969 8.39648438 11.89648438 C7.20547744 11.03797229 6.01520588 10.17843907 4.82568359 9.31787109 C1.89209492 7.20025788 -1.05435446 5.1007997 -4 3 C-3.34 2.67 -2.68 2.34 -2 2 C-1.34 2.33 -0.68 2.66 0 3 C0 2.01 0 1.02 0 0 Z " fill="#DDF1F5" transform="translate(113,42)"/>
<path d="M0 0 C-1.32 0.33 -2.64 0.66 -4 1 C-4 1.66 -4 2.32 -4 3 C-1.03 3.495 -1.03 3.495 2 4 C2 4.33 2 4.66 2 5 C-6.31913693 6.5439119 -14.55569721 7.48244596 -23 8 C-22.67 6.35 -22.34 4.7 -22 3 C-20.86820313 2.79503906 -19.73640625 2.59007812 -18.5703125 2.37890625 C-17.08851239 2.10693028 -15.60674315 1.83478613 -14.125 1.5625 C-13.37863281 1.42779297 -12.63226563 1.29308594 -11.86328125 1.15429688 C-2.13885339 -0.64165602 -2.13885339 -0.64165602 0 0 Z " fill="#D3EEEE" transform="translate(60,56)"/>
<path d="M0 0 C6.15234375 -0.09765625 6.15234375 -0.09765625 8 0 C9 1 9 1 9.09765625 3.50390625 C9.08605469 4.51324219 9.07445312 5.52257812 9.0625 6.5625 C9.05347656 7.57441406 9.04445313 8.58632812 9.03515625 9.62890625 C9.02355469 10.41136719 9.01195312 11.19382812 9 12 C1.25 13.125 1.25 13.125 -1 12 C-0.67 9.69 -0.34 7.38 0 5 C1.98 4.67 3.96 4.34 6 4 C6 3.34 6 2.68 6 2 C4.02 2.33 2.04 2.66 0 3 C0 2.01 0 1.02 0 0 Z " fill="#A1D0CF" transform="translate(43,97)"/>
<path d="M0 0 C3.375 -0.125 3.375 -0.125 7 0 C9 2 9 2 9.1953125 4.6015625 C9.17210938 5.59929687 9.14890625 6.59703125 9.125 7.625 C9.10695313 8.62789062 9.08890625 9.63078125 9.0703125 10.6640625 C9.03550781 11.82035156 9.03550781 11.82035156 9 13 C7.52093108 13.02689216 6.04172517 13.04634621 4.5625 13.0625 C3.32693359 13.07990234 3.32693359 13.07990234 2.06640625 13.09765625 C0 13 0 13 -1 12 C-1.125 9 -1.125 9 -1 6 C0 5 0 5 3.0625 4.9375 C4.5165625 4.9684375 4.5165625 4.9684375 6 5 C6 4.01 6 3.02 6 2 C4.02 2 2.04 2 0 2 C0 1.34 0 0.68 0 0 Z " fill="#BCE5E7" transform="translate(108,97)"/>
<path d="M0 0 C0.99 0 1.98 0 3 0 C3.33 1.65 3.66 3.3 4 5 C5.98 5 7.96 5 10 5 C11.32229189 7.64458379 11.09677194 9.67761301 11.0625 12.625 C11.05347656 13.62789062 11.04445313 14.63078125 11.03515625 15.6640625 C11.02355469 16.43492188 11.01195313 17.20578125 11 18 C10.34 18 9.68 18 9 18 C8.67 14.7 8.34 11.4 8 8 C6.68 8 5.36 8 4 8 C3.67 11.3 3.34 14.6 3 18 C2.01 18 1.02 18 0 18 C0 12.06 0 6.12 0 0 Z " fill="#D0F5F3" transform="translate(68,92)"/>
<path d="M0 0 C4.16138263 -0.08159574 7.9472484 0.01751476 12 1 C12 1.99 12 2.98 12 4 C13.98 3.67 15.96 3.34 18 3 C18 3.99 18 4.98 18 6 C16.88625 6.309375 15.7725 6.61875 14.625 6.9375 C11.2054845 7.82326483 11.2054845 7.82326483 9 9 C8.34227572 12.02934491 8.34227572 12.02934491 8 15 C6.68 15 5.36 15 4 15 C4 11.37 4 7.74 4 4 C4.33 4 4.66 4 5 4 C5 7.3 5 10.6 5 14 C5.66 14 6.32 14 7 14 C6.67 9.71 6.34 5.42 6 1 C4.02 1 2.04 1 0 1 C0 0.67 0 0.34 0 0 Z " fill="#5CACA4" transform="translate(72,96)"/>
<path d="M0 0 C4.84659077 0.59104765 8.60748167 1.97944157 13 4 C13 5.32 13 6.64 13 8 C8.48382401 8.07654536 4.40914783 8.10228696 0 7 C0 4.69 0 2.38 0 0 Z " fill="#EFFBFC" transform="translate(91,66)"/>
<path d="M0 0 C-3.465 1.485 -3.465 1.485 -7 3 C-4.03 3.495 -4.03 3.495 -1 4 C-4.61105522 6.17028067 -8.10792974 6.58806497 -12.25 7.125 C-14.14492188 7.37636719 -14.14492188 7.37636719 -16.078125 7.6328125 C-17.52445313 7.81457031 -17.52445313 7.81457031 -19 8 C-19 6.68 -19 5.36 -19 4 C-15.91433716 1.94289144 -13.63014688 1.21653907 -10.0625 0.3125 C-8.50208984 -0.09548828 -8.50208984 -0.09548828 -6.91015625 -0.51171875 C-4.1294044 -0.97828785 -2.61519118 -0.93894816 0 0 Z " fill="#C7E7E6" transform="translate(41,43)"/>
<path d="M0 0 C3.0625 0.3125 3.0625 0.3125 4.9375 1.5625 C6.0625 3.3125 6.0625 3.3125 6.0625 7.3125 C3.7525 7.3125 1.4425 7.3125 -0.9375 7.3125 C0.3825 6.9825 1.7025 6.6525 3.0625 6.3125 C2.7325 5.3225 2.4025 4.3325 2.0625 3.3125 C0.7425 3.6425 -0.5775 3.9725 -1.9375 4.3125 C-2.2675 6.2925 -2.5975 8.2725 -2.9375 10.3125 C-0.2975 10.6425 2.3425 10.9725 5.0625 11.3125 C5.0625 11.9725 5.0625 12.6325 5.0625 13.3125 C3.5824159 13.19887738 2.10339926 13.07127092 0.625 12.9375 C-0.19871094 12.86789063 -1.02242187 12.79828125 -1.87109375 12.7265625 C-2.55300781 12.58992188 -3.23492188 12.45328125 -3.9375 12.3125 C-5.05195498 10.08359005 -5.10230286 8.78194894 -5.125 6.3125 C-5.13917969 5.61125 -5.15335938 4.91 -5.16796875 4.1875 C-4.74628104 0.75682033 -3.22792433 0.34339621 0 0 Z " fill="#C5EBEC" transform="translate(32.9375,96.6875)"/>
<path d="M0 0 C2.125 0.375 2.125 0.375 4 1 C4 1.99 4 2.98 4 4 C4.99 4.66 5.98 5.32 7 6 C5.02 6.33 3.04 6.66 1 7 C3.64 7.66 6.28 8.32 9 9 C9 6.69 9 4.38 9 2 C9.66 2.33 10.32 2.66 11 3 C10.52 9.36 10.52 9.36 8.375 12 C4.95845996 13.43854318 2.54068412 12.86846969 -1 12 C-1.33 11.34 -1.66 10.68 -2 10 C0.64 10.33 3.28 10.66 6 11 C6 10.34 6 9.68 6 9 C5.05125 9.020625 4.1025 9.04125 3.125 9.0625 C0 9 0 9 -2 8 C-2.125 5.125 -2.125 5.125 -2 2 C-1.34 1.34 -0.68 0.68 0 0 Z " fill="#5AABA4" transform="translate(32,99)"/>
<path d="M0 0 C0.33 0 0.66 0 1 0 C1.33 6.93 1.66 13.86 2 21 C0.02 21.33 -1.96 21.66 -4 22 C-4.33 21.34 -4.66 20.68 -5 20 C-4.01 20 -3.02 20 -2 20 C-2.33 19.34 -2.66 18.68 -3 18 C-3.31120284 15.44122107 -3.50964666 12.88148388 -3.71875 10.3125 C-3.87136047 7.97731545 -3.87136047 7.97731545 -5 6 C-4.01 6.33 -3.02 6.66 -2 7 C-2 7.66 -2 8.32 -2 9 C-1.34 9 -0.68 9 0 9 C-0.185625 7.88625 -0.37125 6.7725 -0.5625 5.625 C-1 2 -1 2 0 0 Z " fill="#3D8588" transform="translate(120,91)"/>
<path d="M0 0 C-3.25926602 1.81419386 -6.44061447 2.70527554 -10.0625 3.5625 C-13.09794964 4.28665548 -16.03867649 5.01289216 -19 6 C-19 7.32 -19 8.64 -19 10 C-17.02 9.67 -15.04 9.34 -13 9 C-15.5654594 11.5654594 -17.47686668 11.54046087 -21 12 C-21 9.36 -21 6.72 -21 4 C-19.02858358 3.26489557 -17.05672825 2.53093333 -15.08203125 1.8046875 C-12.89822237 0.99843321 -12.89822237 0.99843321 -10.5 -0.25 C-6.7853501 -1.36439497 -3.80598072 -0.64508148 0 0 Z " fill="#52A49F" transform="translate(41,41)"/>
<path d="M0 0 C1.670625 0.061875 1.670625 0.061875 3.375 0.125 C3.375 0.785 3.375 1.445 3.375 2.125 C1.725 2.455 0.075 2.785 -1.625 3.125 C-1.955 5.765 -2.285 8.405 -2.625 11.125 C-0.645 11.125 1.335 11.125 3.375 11.125 C3.375 11.785 3.375 12.445 3.375 13.125 C-0 13.25 -0 13.25 -3.625 13.125 C-5.625 11.125 -5.625 11.125 -5.890625 9.03125 C-5.88289063 7.84015625 -5.88289063 7.84015625 -5.875 6.625 C-5.88015625 5.8309375 -5.8853125 5.036875 -5.890625 4.21875 C-5.38436796 0.22825337 -3.79812269 0.13096975 0 0 Z " fill="#CDEEEE" transform="translate(61.625,96.875)"/>
<path d="M0 0 C2.75 2.5625 2.75 2.5625 5 5 C0.39146203 4.27991594 -3.67237409 2.68704061 -8 1 C-8 3.31 -8 5.62 -8 8 C-6.9171875 7.938125 -6.9171875 7.938125 -5.8125 7.875 C-2.79270631 8.00921305 -0.73064271 8.75170619 2 10 C1.01 10.66 0.02 11.32 -1 12 C-3.8447272 11.35816862 -6.30321201 10.14945062 -9 9 C-9 6.03 -9 3.06 -9 0 C-5.6473588 -0.8381603 -3.21728297 -1.4075613 0 0 Z " fill="#67A8A4" transform="translate(99,65)"/>
<path d="M0 0 C3.96 0 7.92 0 12 0 C12 0.66 12 1.32 12 2 C10.35 2 8.7 2 7 2 C7 6.95 7 11.9 7 17 C6.34 17 5.68 17 5 17 C5 12.05 5 7.1 5 2 C3.35 2 1.7 2 0 2 C0 1.34 0 0.68 0 0 Z " fill="#CBF5F3" transform="translate(14,93)"/>
<path d="M0 0 C2.64 0 5.28 0 8 0 C8 0.66 8 1.32 8 2 C7.35546875 2.23460938 6.7109375 2.46921875 6.046875 2.7109375 C3.7922092 3.81161073 3.7922092 3.81161073 3.390625 6.1640625 C3.34421875 6.97617188 3.2978125 7.78828125 3.25 8.625 C3.19328125 9.44226563 3.1365625 10.25953125 3.078125 11.1015625 C3.05234375 11.72804688 3.0265625 12.35453125 3 13 C2.01 13 1.02 13 0 13 C0 8.71 0 4.42 0 0 Z " fill="#CAF1F0" transform="translate(97,97)"/>
<path d="M0 0 C0.66 0.66 1.32 1.32 2 2 C2.99 1.67 3.98 1.34 5 1 C5 1.66 5 2.32 5 3 C6.98 2.34 8.96 1.68 11 1 C11.66 1.99 12.32 2.98 13 4 C12.67 4.99 12.34 5.98 12 7 C12 6.34 12 5.68 12 5 C10.081875 4.9690625 10.081875 4.9690625 8.125 4.9375 C7.40570313 4.92589844 6.68640625 4.91429688 5.9453125 4.90234375 C3.91814596 4.87350758 3.91814596 4.87350758 2 6 C1.67 5.34 1.34 4.68 1 4 C-0.65 3.67 -2.3 3.34 -4 3 C-4 7.62 -4 12.24 -4 17 C-4.33 17 -4.66 17 -5 17 C-5 12.05 -5 7.1 -5 2 C-3.35 2 -1.7 2 0 2 C0 1.34 0 0.68 0 0 Z " fill="#61ADA4" transform="translate(26,93)"/>
<path d="M0 0 C0 2.97 0 5.94 0 9 C-2.97 9 -5.94 9 -9 9 C-9 8.34 -9 7.68 -9 7 C-6.69 7 -4.38 7 -2 7 C-2 5.35 -2 3.7 -2 2 C-2.99 2.165 -3.98 2.33 -5 2.5 C-9.02732942 3.08474517 -12.93474623 3.07132024 -17 3 C-17 2.67 -17 2.34 -17 2 C-14.91727106 1.66291092 -12.83378963 1.33046884 -10.75 1 C-9.58984375 0.814375 -8.4296875 0.62875 -7.234375 0.4375 C-4 0 -4 0 0 0 Z " fill="#A3CFD0" transform="translate(89,65)"/>
<path d="M0 0 C6.15234375 -0.09765625 6.15234375 -0.09765625 8 0 C9 1 9 1 9.09765625 3.50390625 C9.08605469 4.51324219 9.07445312 5.52257812 9.0625 6.5625 C9.05347656 7.57441406 9.04445313 8.58632812 9.03515625 9.62890625 C9.02355469 10.41136719 9.01195312 11.19382812 9 12 C8.34 12 7.68 12 7 12 C7 10.02 7 8.04 7 6 C5.68 6 4.36 6 3 6 C3 5.34 3 4.68 3 4 C3.99 4 4.98 4 6 4 C6 3.34 6 2.68 6 2 C4.02 2.33 2.04 2.66 0 3 C0 2.01 0 1.02 0 0 Z " fill="#A6DADD" transform="translate(43,97)"/>
<path d="M0 0 C6.15234375 -0.09765625 6.15234375 -0.09765625 8 0 C9 1 9 1 9.09765625 3.72265625 C9.08605469 4.82480469 9.07445313 5.92695312 9.0625 7.0625 C9.05347656 8.16722656 9.04445313 9.27195312 9.03515625 10.41015625 C9.02355469 11.26480469 9.01195313 12.11945313 9 13 C8.34 13 7.68 13 7 13 C6.87625 12.05125 6.7525 11.1025 6.625 10.125 C6.28312823 6.91332809 6.28312823 6.91332809 4 5 C4.66 5 5.32 5 6 5 C6 4.01 6 3.02 6 2 C4.02 2.33 2.04 2.66 0 3 C0 2.01 0 1.02 0 0 Z " fill="#D2F4F5" transform="translate(84,97)"/>
<path d="M0 0 C1.67542976 0.28604898 3.34385343 0.61781233 5 1 C5.125 6.75 5.125 6.75 4 9 C2.68 9 1.36 9 0 9 C-1.36623674 6.26752652 -1.128426 4.01801098 -1 1 C-0.67 0.67 -0.34 0.34 0 0 Z " fill="#328E8A" transform="translate(125,99)"/>
<path d="M0 0 C2.33294775 -0.04241723 4.66702567 -0.04092937 7 0 C8 1 8 1 8.09765625 3.50390625 C8.08605469 4.51324219 8.07445312 5.52257812 8.0625 6.5625 C8.05347656 7.57441406 8.04445312 8.58632812 8.03515625 9.62890625 C8.02355469 10.41136719 8.01195312 11.19382812 8 12 C7.34 11.67 6.68 11.34 6 11 C6 9.35 6 7.7 6 6 C4.68 6 3.36 6 2 6 C2 5.34 2 4.68 2 4 C2.99 4 3.98 4 5 4 C5 3.34 5 2.68 5 2 C3.02 2.33 1.04 2.66 -1 3 C-0.67 2.01 -0.34 1.02 0 0 Z " fill="#A1D5DA" transform="translate(144,97)"/>
<path d="M0 0 C2.64 0 5.28 0 8 0 C7.01 0.495 7.01 0.495 6 1 C6 1.66 6 2.32 6 3 C9.3 3 12.6 3 16 3 C16 3.33 16 3.66 16 4 C10.27959989 4.8320582 4.77759884 5.12036664 -1 5 C-0.67 3.35 -0.34 1.7 0 0 Z " fill="#CCECEC" transform="translate(54,71)"/>
<path d="M0 0 C-0.33 1.32 -0.66 2.64 -1 4 C2.63 4 6.26 4 10 4 C10 4.33 10 4.66 10 5 C3.4 5 -3.2 5 -10 5 C-10 4.34 -10 3.68 -10 3 C-9.34 3 -8.68 3 -8 3 C-8 2.34 -8 1.68 -8 1 C-5.10765685 0.17361624 -3.11257569 0 0 0 Z " fill="#E1F4F5" transform="translate(70,69)"/>
<path d="M0 0 C2.49055871 3.76435592 2.03090984 6.86617377 1.625 11.25 C1.51414063 12.51328125 1.40328125 13.7765625 1.2890625 15.078125 C1.14597656 16.52445313 1.14597656 16.52445313 1 18 C-0.32 18 -1.64 18 -3 18 C-2.22095672 5.33029613 -2.22095672 5.33029613 0 0 Z " fill="#2D8A85" transform="translate(135,92)"/>
<path d="M0 0 C-0.33 2.97 -0.66 5.94 -1 9 C-1.99 9 -2.98 9 -4 9 C-4 6.69 -4 4.38 -4 2 C-4.99 2.66 -5.98 3.32 -7 4 C-9.48046875 4.1953125 -9.48046875 4.1953125 -12.1875 4.125 C-13.08855469 4.10695313 -13.98960938 4.08890625 -14.91796875 4.0703125 C-15.60503906 4.04710937 -16.29210937 4.02390625 -17 4 C-17 3.67 -17 3.34 -17 3 C-15.906875 2.87625 -14.81375 2.7525 -13.6875 2.625 C-8.43536253 1.73480721 -5.62085272 -0.21210765 0 0 Z " fill="#79B8B8" transform="translate(95,47)"/>
<path d="M0 0 C3.375 -0.125 3.375 -0.125 7 0 C9 2 9 2 9.1953125 4.3828125 C9.17210938 5.28773437 9.14890625 6.19265625 9.125 7.125 C9.10695313 8.03507812 9.08890625 8.94515625 9.0703125 9.8828125 C9.04710938 10.58148438 9.02390625 11.28015625 9 12 C7 9 7 9 6 7 C3.98330173 5.86649466 3.98330173 5.86649466 2 5 C3.32 5 4.64 5 6 5 C6 4.01 6 3.02 6 2 C4.02 2 2.04 2 0 2 C0 1.34 0 0.68 0 0 Z " fill="#CEF1F4" transform="translate(108,97)"/>
<path d="M0 0 C2.74770527 0.28923213 4.55993297 0.68133077 6.8125 2.3125 C8 4 8 4 8 8 C4.21616321 7.07506212 2.43306306 6.60628829 0.125 3.375 C-0.24625 2.59125 -0.6175 1.8075 -1 1 C-0.67 0.67 -0.34 0.34 0 0 Z " fill="#E9F8FA" transform="translate(105,37)"/>
<path d="M0 0 C1.32 0 2.64 0 4 0 C4 0.66 4 1.32 4 2 C3.34 2 2.68 2 2 2 C2.04125 3.27875 2.0825 4.5575 2.125 5.875 C2.1953125 8.0546875 2.1953125 8.0546875 2 10 C1.34 10.66 0.68 11.32 0 12 C-2.125 11.625 -2.125 11.625 -4 11 C-3.01 11 -2.02 11 -1 11 C-1.01160156 10.28972656 -1.02320312 9.57945313 -1.03515625 8.84765625 C-1.04869141 7.46900391 -1.04869141 7.46900391 -1.0625 6.0625 C-1.07410156 5.14597656 -1.08570312 4.22945313 -1.09765625 3.28515625 C-1 1 -1 1 0 0 Z " fill="#449E99" transform="translate(72,99)"/>
<path d="M0 0 C0.99 0 1.98 0 3 0 C3 4.29 3 8.58 3 13 C2.01 13 1.02 13 0 13 C0 8.71 0 4.42 0 0 Z " fill="#D6F3F6" transform="translate(136,97)"/>
<path d="M0 0 C3.465 1.485 3.465 1.485 7 3 C7 4.32 7 5.64 7 7 C5.51800098 6.55090939 4.03944764 6.09043436 2.5625 5.625 C1.73878906 5.36976562 0.91507812 5.11453125 0.06640625 4.8515625 C-2 4 -2 4 -3 2 C-2.01 2 -1.02 2 0 2 C0 1.34 0 0.68 0 0 Z " fill="#D3ECEE" transform="translate(121,64)"/>
<path d="M0 0 C-3.26545761 1.88391785 -6.28111761 2.49287967 -10 3 C-10.33 4.32 -10.66 5.64 -11 7 C-11.66 7 -12.32 7 -13 7 C-14 4 -14 4 -13.3125 1.875 C-12 0 -12 0 -10.375 -0.8125 C-6.81910301 -1.09322871 -3.52592181 -0.52888827 0 0 Z " fill="#499D94" transform="translate(48,57)"/>
<path d="M0 0 C0.99 0.33 1.98 0.66 3 1 C2.34 1 1.68 1 1 1 C1.02320312 1.62648438 1.04640625 2.25296875 1.0703125 2.8984375 C1.08835937 3.71570313 1.10640625 4.53296875 1.125 5.375 C1.14820312 6.18710938 1.17140625 6.99921875 1.1953125 7.8359375 C1 10 1 10 -1 12 C-3.125 11.625 -3.125 11.625 -5 11 C-4.01 11 -3.02 11 -2 11 C-2.02320312 10.37351562 -2.04640625 9.74703125 -2.0703125 9.1015625 C-2.08835937 8.28429687 -2.10640625 7.46703125 -2.125 6.625 C-2.14820312 5.81289062 -2.17140625 5.00078125 -2.1953125 4.1640625 C-2 2 -2 2 0 0 Z " fill="#449A9B" transform="translate(102,99)"/>
<path d="M0 0 C2.125 0.375 2.125 0.375 4 1 C4 1.99 4 2.98 4 4 C4.99 4.66 5.98 5.32 7 6 C4.36 6 1.72 6 -1 6 C-1.33 6.66 -1.66 7.32 -2 8 C-2.125 5.125 -2.125 5.125 -2 2 C-1.34 1.34 -0.68 0.68 0 0 Z " fill="#7CBFB7" transform="translate(32,99)"/>
<path d="M0 0 C-1.31914629 2.63829259 -2.23857335 2.98263229 -5 4 C-7.33203812 4.0777346 -9.66839059 4.08967728 -12 4 C-9.08799649 -0.36800527 -5.03924577 -1.93817145 0 0 Z " fill="#F5FDFD" transform="translate(45,43)"/>
<path d="M0 0 C-1.9626228 2.04795423 -3.4277307 2.94976638 -6.26953125 3.19921875 C-8.51954383 3.18858877 -10.75385562 3.12958525 -13 3 C-13.33 3.66 -13.66 4.32 -14 5 C-16.97 4.505 -16.97 4.505 -20 4 C-20 3.67 -20 3.34 -20 3 C-13.19925959 1.09579269 -7.08076251 -0.40850553 0 0 Z " fill="#5FA4A1" transform="translate(84,38)"/>
<path d="M0 0 C2 0 2 0 4.5625 2.375 C7 5 7 5 8 7 C5.36 7.33 2.72 7.66 0 8 C0 5.36 0 2.72 0 0 Z " fill="#D0EBEA" transform="translate(96,27)"/>
<path d="M0 0 C0.33 0 0.66 0 1 0 C1 2.64 1 5.28 1 8 C1.66 8 2.32 8 3 8 C3 5.69 3 3.38 3 1 C3.33 1 3.66 1 4 1 C4.144375 2.11375 4.28875 3.2275 4.4375 4.375 C4.78372035 7.82142047 4.78372035 7.82142047 6 10 C3.36 10.33 0.72 10.66 -2 11 C-2 10.34 -2 9.68 -2 9 C-1.34 9 -0.68 9 0 9 C0 6.03 0 3.06 0 0 Z " fill="#69B8B0" transform="translate(52,100)"/>
<path d="M0 0 C4.6875 3.61328125 4.6875 3.61328125 6 5 C6 5.99 6 6.98 6 8 C2.4213696 6.34832443 -0.74820188 4.21713508 -4 2 C-3.34 1.67 -2.68 1.34 -2 1 C-1.34 1.33 -0.68 1.66 0 2 C0 1.34 0 0.68 0 0 Z " fill="#C9E8EA" transform="translate(128,54)"/>
<path d="M0 0 C3.02346601 -0.2519555 4.6402007 -0.20421041 7.3125 1.3125 C9 3 9 3 9 6 C5.59687262 4.94124926 2.98646769 3.99097846 0 2 C0 1.34 0 0.68 0 0 Z " fill="#DFF3F4" transform="translate(119,50)"/>
<path d="M0 0 C0.66 0 1.32 0 2 0 C2 0.66 2 1.32 2 2 C3.98 1.67 5.96 1.34 8 1 C8 1.66 8 2.32 8 3 C6.02 3.33 4.04 3.66 2 4 C1.67 5.98 1.34 7.96 1 10 C-0.80411967 7.24075815 -1.0127245 6.11027897 -0.625 2.75 C-0.41875 1.8425 -0.2125 0.935 0 0 Z " fill="#3E8D8D" transform="translate(141,98)"/>
<path d="M0 0 C0 0.33 0 0.66 0 1 C-6.27 1.99 -12.54 2.98 -19 4 C-19 3.34 -19 2.68 -19 2 C-12.53991163 0.04978464 -6.7281627 -0.22262303 0 0 Z " fill="#64A8AE" transform="translate(72,68)"/>
<path d="M0 0 C0.66 0 1.32 0 2 0 C1.979375 1.03125 1.95875 2.0625 1.9375 3.125 C1.99276661 6.55152969 2.34550715 9.64572414 3 13 C2.01 13.33 1.02 13.66 0 14 C0 9.38 0 4.76 0 0 Z " fill="#317D80" transform="translate(139,97)"/>
<path d="M0 0 C1.53166168 4.08443115 0.63081652 7.79455657 0 12 C-1.5 10.875 -1.5 10.875 -3 9 C-3.375 6 -3.375 6 -3 3 C-1.5 1.125 -1.5 1.125 0 0 Z " fill="#2B817B" transform="translate(106,97)"/>
<path d="M0 0 C-2 2 -2 2 -3.9453125 2.1953125 C-5.96354167 2.13020833 -7.98177083 2.06510417 -10 2 C-9.67 1.01 -9.34 0.02 -9 -1 C-3.375 -2.25 -3.375 -2.25 0 0 Z " fill="#F9FCFE" transform="translate(65,58)"/>
<path d="M0 0 C2.31 0 4.62 0 7 0 C7 0.66 7 1.32 7 2 C5.35 2.33 3.7 2.66 2 3 C1.67 4.98 1.34 6.96 1 9 C0.67 9 0.34 9 0 9 C0 7.35 0 5.7 0 4 C-0.66 4 -1.32 4 -2 4 C-1.34 2.68 -0.68 1.36 0 0 Z " fill="#B1E5E3" transform="translate(58,97)"/>
<path d="M0 0 C0.99 0.33 1.98 0.66 3 1 C3 4.63 3 8.26 3 12 C2.34 12 1.68 12 1 12 C0.67 8.04 0.34 4.08 0 0 Z " fill="#DFFBFB" transform="translate(76,98)"/>
<path d="M0 0 C0.99 0.33 1.98 0.66 3 1 C3.33 2.98 3.66 4.96 4 7 C1.03 6.01 -1.94 5.02 -5 4 C-3.68 3.34 -2.36 2.68 -1 2 C-0.67 1.34 -0.34 0.68 0 0 Z " fill="#CDE9E8" transform="translate(108,57)"/>
<path d="M0 0 C0.66 0 1.32 0 2 0 C2.66 2.64 3.32 5.28 4 8 C2.02 8.33 0.04 8.66 -2 9 C-2.33 8.34 -2.66 7.68 -3 7 C-2.01 7 -1.02 7 0 7 C0 4.69 0 2.38 0 0 Z " fill="#238285" transform="translate(118,104)"/>
<path d="M0 0 C0.66 0 1.32 0 2 0 C2 3.3 2 6.6 2 10 C1.34 10 0.68 10 0 10 C0 8.02 0 6.04 0 4 C-1.32 3.67 -2.64 3.34 -4 3 C-2.68 3 -1.36 3 0 3 C0 2.01 0 1.02 0 0 Z " fill="#EBFCFE" transform="translate(50,99)"/>
<path d="M0 0 C5.75 0.875 5.75 0.875 8 2 C8 2.99 8 3.98 8 5 C4.5625 4.1875 4.5625 4.1875 1 3 C0.67 2.01 0.34 1.02 0 0 Z " fill="#E9F6FA" transform="translate(114,75)"/>
<path d="M0 0 C3.875 1.75 3.875 1.75 5 4 C4.01 4 3.02 4 2 4 C2 4.66 2 5.32 2 6 C-2.875 4.25 -2.875 4.25 -4 2 C-2.68 2.33 -1.36 2.66 0 3 C0 2.01 0 1.02 0 0 Z " fill="#CFEBEB" transform="translate(113,42)"/>
<path d="M0 0 C0.66 0 1.32 0 2 0 C2 3.3 2 6.6 2 10 C1.34 9.67 0.68 9.34 0 9 C0 7.35 0 5.7 0 4 C-1.32 3.67 -2.64 3.34 -4 3 C-2.68 3 -1.36 3 0 3 C0 2.01 0 1.02 0 0 Z " fill="#E8FBFE" transform="translate(150,99)"/>
<path d="M0 0 C2.64 0 5.28 0 8 0 C8 0.99 8 1.98 8 3 C7.34 3.66 6.68 4.32 6 5 C6 4.01 6 3.02 6 2 C4.02 2.33 2.04 2.66 0 3 C0 2.01 0 1.02 0 0 Z " fill="#B4E5E7" transform="translate(84,97)"/>
<path d="M0 0 C6.875 3.75 6.875 3.75 8 6 C5.69 5.67 3.38 5.34 1 5 C0.67 3.35 0.34 1.7 0 0 Z " fill="#468F97" transform="translate(100,38)"/>
<path d="M0 0 C1.65 0.33 3.3 0.66 5 1 C4.01 1.66 3.02 2.32 2 3 C1.67 3.99 1.34 4.98 1 6 C-1.64 5.67 -4.28 5.34 -7 5 C-7 4.67 -7 4.34 -7 4 C-4.69 4 -2.38 4 0 4 C0 2.68 0 1.36 0 0 Z " fill="#BBE2E2" transform="translate(104,70)"/>
<path d="M0 0 C2.26273207 3.55818936 2.07331744 6.12547951 1.625 10.25 C1.51414063 11.32765625 1.40328125 12.4053125 1.2890625 13.515625 C1.19367188 14.33546875 1.09828125 15.1553125 1 16 C0.67 16 0.34 16 0 16 C-0.19504458 13.89651926 -0.38078496 11.79217415 -0.5625 9.6875 C-0.66691406 8.51574219 -0.77132812 7.34398438 -0.87890625 6.13671875 C-1 3 -1 3 0 0 Z " fill="#368380" transform="translate(135,92)"/>
<path d="M0 0 C1.98 0 3.96 0 6 0 C6.33 0.99 6.66 1.98 7 3 C4.69 3 2.38 3 0 3 C0 2.01 0 1.02 0 0 Z " fill="#258683" transform="translate(125,93)"/>
<path d="M0 0 C4.21878192 -0.19622241 7.17010894 0.19769832 11 2 C10.01 2.66 9.02 3.32 8 4 C5.95703125 3.5390625 5.95703125 3.5390625 3.8125 2.625 C3.09707031 2.32851562 2.38164063 2.03203125 1.64453125 1.7265625 C1.10183594 1.48679687 0.55914062 1.24703125 0 1 C0 0.67 0 0.34 0 0 Z " fill="#50979E" transform="translate(90,73)"/>
<path d="M0 0 C2.475 0.99 2.475 0.99 5 2 C4.01 2.33 3.02 2.66 2 3 C2 5.97 2 8.94 2 12 C1.67 12 1.34 12 1 12 C1 9.03 1 6.06 1 3 C0.01 2.67 -0.98 2.34 -2 2 C-1.34 1.34 -0.68 0.68 0 0 Z " fill="#358782" transform="translate(88,62)"/>
<path d="M0 0 C-0.33 0.66 -0.66 1.32 -1 2 C-3.64860427 2.59355614 -6.29197322 2.74209269 -9 3 C-6.27596221 -1.08605669 -4.4643819 -1.38549783 0 0 Z " fill="#F2FDFC" transform="translate(33,46)"/>
<path d="M0 0 C2.97 0 5.94 0 9 0 C5.99382731 3.00617269 3.17618402 2.59585316 -1 3 C-0.67 2.01 -0.34 1.02 0 0 Z " fill="#D0ECEE" transform="translate(85,34)"/>
<path d="M0 0 C1.32 0 2.64 0 4 0 C3.67 1.32 3.34 2.64 3 4 C1.68 4 0.36 4 -1 4 C-0.67 2.68 -0.34 1.36 0 0 Z " fill="#55A59D" transform="translate(86,104)"/>
<path d="M0 0 C0.103125 0.639375 0.20625 1.27875 0.3125 1.9375 C0.539375 2.618125 0.76625 3.29875 1 4 C1.99 4.33 2.98 4.66 4 5 C4.33 5.99 4.66 6.98 5 8 C3.68 8 2.36 8 1 8 C-0.35439668 5.29120665 -0.06501451 2.99066732 0 0 Z " fill="#5497A1" transform="translate(124,100)"/>
<path d="M0 0 C1.32 0 2.64 0 4 0 C3.67 1.32 3.34 2.64 3 4 C1.68 4 0.36 4 -1 4 C-0.67 2.68 -0.34 1.36 0 0 Z " fill="#479292" transform="translate(110,104)"/>
<path d="M0 0 C0.33 0.66 0.66 1.32 1 2 C2.32 2 3.64 2 5 2 C5.33 1.34 5.66 0.68 6 0 C6.33 0.99 6.66 1.98 7 3 C6.67 3.33 6.34 3.66 6 4 C3.66055264 3.71269945 1.3260857 3.38063221 -1 3 C-0.67 2.01 -0.34 1.02 0 0 Z " fill="#B1DCE7" transform="translate(124,106)"/>
<path d="M0 0 C0.99 0.33 1.98 0.66 3 1 C3 2.32 3 3.64 3 5 C0.69 5 -1.62 5 -4 5 C-2.68 4.67 -1.36 4.34 0 4 C0 2.68 0 1.36 0 0 Z " fill="#CFF6F7" transform="translate(36,99)"/>
<path d="M0 0 C0.66 0.99 1.32 1.98 2 3 C1.67 3.99 1.34 4.98 1 6 C1 5.34 1 4.68 1 4 C-1.31 3.67 -3.62 3.34 -6 3 C-2.25 0 -2.25 0 0 0 Z " fill="#53A7A0" transform="translate(37,94)"/>
</svg>
