<?xml version="1.0" encoding="UTF-8"?>
<svg version="1.1" xmlns="http://www.w3.org/2000/svg" width="1024" height="1024">
<path d="M0 0 C2.1269132 0.00564374 4.25381843 0.00846195 6.3807373 0.0110817 C26.60046725 0.04729097 46.54764512 0.42785221 66.59460449 3.31805801 C67.88946777 3.49498184 69.18433105 3.67190567 70.51843262 3.85419083 C137.2432387 13.01507904 201.39394 34.25011892 259.59460449 68.31805801 C260.49163086 68.84222305 261.38865723 69.36638809 262.31286621 69.90643692 C273.31679964 76.36134872 284.06884593 83.10950821 294.59460449 90.31805801 C293.03599186 94.02877395 290.75772857 96.43212325 287.94885254 99.28607559 C287.47866699 99.76619095 287.00848145 100.2463063 286.52404785 100.74097061 C284.97369673 102.32043038 283.41574795 103.89209023 281.85632324 105.46258926 C280.77256422 106.55785656 279.68880877 107.6531274 278.60505676 108.74840164 C276.3350181 111.03941787 274.06038317 113.32576772 271.7833252 115.60980606 C268.86420988 118.5399223 265.96412473 121.48814491 263.06805706 124.4410181 C260.83817927 126.70809422 258.59504581 128.96169003 256.348032 131.21177101 C255.27253854 132.29332444 254.20205756 133.37988607 253.13672447 134.4714489 C251.64775421 135.99445273 250.14108749 137.49747336 248.62854004 138.99701309 C247.77519577 139.85764862 246.9218515 140.71828415 246.04264832 141.60499954 C243.59460449 143.31805801 243.59460449 143.31805801 240.92637634 143.16165543 C238.33828095 142.2253243 236.15679179 141.08331467 233.80554199 139.65008926 C232.87822266 139.0936171 231.95090332 138.53714493 230.9954834 137.96380997 C229.99694336 137.35883682 228.99840332 136.75386368 227.96960449 136.13055801 C190.02896877 113.63357657 150.3048969 97.25004486 107.59460449 86.31805801 C106.64053711 86.07071915 105.68646973 85.82338028 104.70349121 85.5685463 C92.95025606 82.56320181 81.07611312 80.47745752 69.09460449 78.63055801 C67.13829102 78.32662125 67.13829102 78.32662125 65.14245605 78.01654434 C44.48451857 74.9591798 24.03259219 73.94124551 3.15710449 74.00555801 C1.92648285 74.00738083 0.69586121 74.00920364 -0.572052 74.0110817 C-19.36076003 74.05786944 -37.79801599 74.55447996 -56.40539551 77.31805801 C-57.60970215 77.49498184 -58.81400879 77.67190567 -60.05480957 77.85419083 C-141.19615135 90.14318818 -216.50118229 123.64954582 -279.40539551 176.31805801 C-280.04412598 176.85237442 -280.68285645 177.38669083 -281.34094238 177.93719864 C-290.31716413 185.47017271 -290.31716413 185.47017271 -298.71691895 193.63202286 C-300.45827576 195.3708618 -302.27651022 196.9552303 -304.15148926 198.54852676 C-308.2203672 202.0885622 -311.9331613 205.86098889 -315.59289551 209.81805801 C-316.23726562 210.51165421 -316.88163574 211.2052504 -317.54553223 211.91986465 C-328.89154895 224.19768658 -339.43492561 236.89926755 -349.40539551 250.31805801 C-349.94164551 251.03332657 -350.47789551 251.74859512 -351.03039551 252.48553848 C-402.61666619 321.44807402 -435.25090082 410.33356489 -435.60852051 496.78290176 C-435.61553482 497.92663757 -435.62254913 499.07037338 -435.629776 500.24876785 C-435.64717274 503.9177385 -435.65362808 507.58654764 -435.65539551 511.25555801 C-435.65607025 512.51060135 -435.656745 513.76564468 -435.65744019 515.05871964 C-435.64152721 533.68106909 -435.1821482 551.87709018 -432.40539551 570.31805801 C-432.22847168 571.54443985 -432.05154785 572.77082169 -431.8692627 574.03436661 C-425.27414749 619.03264399 -412.14440625 662.34553206 -392.40539551 703.31805801 C-391.99321777 704.18479141 -391.58104004 705.05152481 -391.15637207 705.94452286 C-382.09988275 724.93687858 -371.42845998 743.05329048 -359.40539551 760.31805801 C-359.00256348 760.89958633 -358.59973145 761.48111465 -358.18469238 762.08026505 C-346.11604257 779.44209843 -332.70445341 795.74945759 -318.40539551 811.31805801 C-317.8804248 811.89346329 -317.3554541 812.46886856 -316.8145752 813.06171036 C-310.42311792 820.0576674 -304.04102647 826.9277047 -296.88195801 833.15399551 C-294.59274095 835.15435238 -292.36942063 837.21265055 -290.15319824 839.29315567 C-283.82787122 845.20504241 -277.18504085 850.59312621 -270.31213379 855.85272598 C-268.3217303 857.38235489 -266.34546415 858.92904599 -264.37023926 860.47821426 C-202.16855365 909.01647139 -125.74227409 939.57610923 -47.40539551 948.31805801 C-46.65092133 948.40419357 -45.89644714 948.49032913 -45.11911011 948.57907486 C-29.39534397 950.33209696 -13.77942669 950.67926965 2.03210449 950.63055801 C3.26272614 950.6287352 4.49334778 950.62691238 5.76126099 950.62503433 C24.55083329 950.57824444 42.98614577 950.07822819 61.59460449 947.31805801 C62.80422852 947.14113419 64.01385254 946.96421036 65.26013184 946.7819252 C109.8751909 940.05918761 152.95443354 926.89695271 193.59460449 907.31805801 C194.46133789 906.90588028 195.32807129 906.49370255 196.22106934 906.06903458 C215.21342506 897.01254526 233.32983696 886.34112248 250.59460449 874.31805801 C251.17613281 873.91522598 251.75766113 873.51239395 252.35681152 873.09735489 C269.9285222 860.88281406 286.38598526 847.31164079 302.0501709 832.74481583 C303.66283271 831.25502834 305.28917541 829.78142252 306.91882324 828.31024551 C312.70667253 823.06694743 318.21786006 817.75801332 323.36022949 811.86493301 C325.38814699 809.55339069 327.46983188 807.30334064 329.57409668 805.06146622 C335.48391174 798.73705427 340.87092102 792.09607212 346.12927246 785.2247963 C347.65890137 783.2343928 349.20559247 781.25812666 350.75476074 779.28290176 C405.57898389 709.02576247 440.17831804 617.72368869 440.83288574 528.13446426 C440.84757652 526.4517392 440.84757652 526.4517392 440.86256409 524.73501968 C441.12126433 487.36402255 438.68669021 451.81085543 430.59460449 415.31805801 C430.26686035 413.79511124 430.26686035 413.79511124 429.93249512 412.24139786 C420.05314518 366.92557963 401.44903009 322.47863308 376.98522949 283.12665176 C376.57208496 282.46004532 376.15894043 281.79343887 375.73327637 281.10663223 C374.74615545 279.55610739 373.69881044 278.04423887 372.64147949 276.54071426 C371.59460449 274.31805801 371.59460449 274.31805801 372.2338562 272.48865128 C373.96177985 269.73235942 376.01206365 267.66171403 378.31970215 265.36590958 C378.79791916 264.88740051 379.27613617 264.40889145 379.7688446 263.91588211 C381.34408932 262.34202607 382.92628985 260.77536509 384.50866699 259.20868301 C385.60483662 258.11624515 386.7005643 257.02336367 387.79586792 255.93005753 C390.67500337 253.05854559 393.56009505 250.19309147 396.44647217 247.32886124 C399.39270264 244.40311675 402.33325518 241.47167787 405.27429199 238.54071426 C411.04219037 232.7942432 416.81639413 227.05415996 422.59460449 221.31805801 C425.84238946 222.83896765 427.38137338 224.00890018 429.33679199 227.04462051 C429.838479 227.81684952 430.34016602 228.58907852 430.85705566 229.3847084 C431.65526733 230.65109146 431.65526733 230.65109146 432.46960449 231.94305801 C433.03332764 232.82534073 433.59705078 233.70762344 434.17785645 234.616642 C475.79769964 300.35179867 502.58372269 373.59118441 511.90710449 450.94305801 C512.02920792 451.95606476 512.02920792 451.95606476 512.15377808 452.98953629 C513.79832611 466.83799319 514.74771353 480.60928558 514.79772949 494.56024551 C514.80825096 496.53228455 514.80825096 496.53228455 514.81898499 498.54416275 C514.83837141 502.76046616 514.84341847 506.97671452 514.84460449 511.19305801 C514.84504635 511.91106583 514.8454882 512.62907364 514.84594345 513.36883926 C514.85276584 534.50186199 514.605579 555.35580037 511.59460449 576.31805801 C511.42299805 577.59165176 511.2513916 578.86524551 511.07458496 580.17743301 C499.23182449 667.81278842 465.1568191 749.9700898 399.09460449 837.41962051 C396.75664158 840.13019626 394.51396587 842.89502592 392.28210449 845.69305801 C382.38040793 857.78554807 371.24483966 868.763139 360.21960449 879.81805801 C359.65589142 880.38444992 359.09217834 880.95084183 358.51138306 881.53439713 C352.38759168 887.68023696 346.23293042 893.7220824 339.59460449 899.31805801 C338.58473812 900.19479699 337.57558105 901.07235388 336.56726074 901.95087051 C312.68005642 922.40729515 286.79475069 940.55075188 259.59460449 956.31805801 C258.94008301 956.69752579 258.28556152 957.07699356 257.61120605 957.46796036 C201.38287833 989.83491301 139.74582458 1010.83085702 75.59460449 1020.13055801 C74.58282135 1020.2796109 74.58282135 1020.2796109 73.55059814 1020.43167496 C50.81005996 1023.73672238 28.0692875 1024.70056236 5.10797882 1024.63611603 C3.06012391 1024.63046283 1.01227733 1024.62765048 -1.0355835 1024.62503433 C-21.30254057 1024.58741799 -41.29889864 1024.10195093 -61.40539551 1021.31805801 C-62.69751953 1021.14645157 -63.98964355 1020.97484512 -65.32092285 1020.79803848 C-152.91372863 1009.03478111 -235.1209226 974.83315239 -322.50695801 908.81805801 C-325.21753376 906.4800951 -327.98236342 904.23741939 -330.78039551 902.00555801 C-342.87288556 892.10386145 -353.85047649 880.96829318 -364.90539551 869.94305801 C-365.47178741 869.37934494 -366.03817932 868.81563187 -366.62173462 868.23483658 C-372.76757445 862.1110452 -378.8094199 855.95638394 -384.40539551 849.31805801 C-385.28213448 848.30819164 -386.15969138 847.29903457 -387.03820801 846.29071426 C-416.0083793 812.46190923 -439.45358836 775.0574599 -459.40539551 735.31805801 C-460.05484131 734.03318497 -460.05484131 734.03318497 -460.71740723 732.72235489 C-484.25002557 685.87060999 -498.45324584 633.91456153 -505.71789551 582.13055801 C-505.93868774 580.56084244 -505.93868774 580.56084244 -506.16394043 578.95941544 C-506.62810093 575.41696638 -507.03197711 571.87095547 -507.40539551 568.31805801 C-507.53459885 567.11205444 -507.53459885 567.11205444 -507.66641235 565.88168716 C-509.50078725 548.22367631 -509.76671323 530.61723173 -509.71789551 512.88055801 C-509.71567284 511.45213198 -509.71349633 510.02370587 -509.71136475 508.59527969 C-509.66887322 488.04062339 -509.36246397 467.70127323 -506.40539551 447.31805801 C-506.30593628 446.62200455 -506.20647705 445.92595108 -506.10400391 445.20880508 C-498.29437764 390.81829426 -483.30356431 338.84287952 -459.40539551 289.31805801 C-458.93134277 288.32757462 -458.45729004 287.33709122 -457.96887207 286.31659317 C-441.0482618 251.11335958 -419.57934356 216.76379094 -393.90539551 187.21649551 C-391.5674326 184.50591976 -389.32475688 181.74109011 -387.09289551 178.94305801 C-377.19119894 166.85056796 -366.05563068 155.87297703 -355.03039551 144.81805801 C-354.46668243 144.25166611 -353.90296936 143.6852742 -353.32217407 143.1017189 C-347.19838269 136.95587907 -341.04372144 130.91403363 -334.40539551 125.31805801 C-333.39552914 124.44131904 -332.38637207 123.56376215 -331.37805176 122.68524551 C-311.93560844 106.03520681 -291.11501156 90.87060509 -269.40539551 77.31805801 C-268.79695801 76.93730118 -268.18852051 76.55654434 -267.56164551 76.16424942 C-256.12645547 69.05173676 -244.30067534 62.62255632 -232.40539551 56.31805801 C-231.08475098 55.61761368 -231.08475098 55.61761368 -229.73742676 54.90301895 C-175.38162001 26.3235645 -114.4330322 8.73305035 -53.40539551 2.31805801 C-52.60172546 2.23192245 -51.79805542 2.1457869 -50.97003174 2.05704117 C-33.98809199 0.29210918 -17.06085424 -0.04598791 0 0 Z " fill="#000000" transform="translate(509.4053955078125,-0.3180580139160156)"/>
<path d="M0 0 C77.55 0 155.1 0 235 0 C235 77.22 235 154.44 235 234 C230.05 234 225.1 234 220 234 C216.83282741 230.35789203 214.94869354 227.99151296 212.94570923 223.83297729 C211.73473319 221.3197658 210.3986479 218.88044067 209.06938171 216.42832947 C208.38526422 215.16168457 207.70797631 213.89132815 207.03742981 212.6174469 C203.69633903 206.28768571 199.83263313 200.35684778 195.8125 194.4375 C195.14774658 193.45209229 194.48299316 192.46668457 193.7980957 191.45141602 C184.10309882 177.16512086 173.93613049 163.35981347 163 150 C160.17386849 151.28515191 158.1380069 152.61833676 155.96435547 154.82878113 C155.39247498 155.40513809 154.82059448 155.98149506 154.23138428 156.57531738 C153.61619934 157.2055481 153.0010144 157.83577881 152.3671875 158.48510742 C151.70978577 159.15024857 151.05238403 159.81538971 150.37506104 160.50068665 C148.94991535 161.94347161 147.52698484 163.38844727 146.10601807 164.83534813 C143.85882099 167.12193133 141.60420443 169.40094163 139.34716797 171.67781067 C132.93159628 178.1514723 126.52582998 184.6347079 120.13476562 191.13256836 C116.2245004 195.10710677 112.30227598 199.06950019 108.37213135 203.02437782 C106.87470028 204.53610901 105.38196522 206.05250636 103.89398193 207.57353783 C101.81814853 209.69484578 99.72753529 211.80044338 97.6328125 213.90307617 C97.01762756 214.53937958 96.40244263 215.17568298 95.76861572 215.83126831 C94.03564453 217.5521698 94.03564453 217.5521698 91 220 C87.49552509 219.70266369 86.86456697 218.85907909 84.30078125 216.19140625 C83.29597586 214.98899753 82.30035136 213.77887589 81.3125 212.5625 C80.23793784 211.27393952 79.16241088 209.98618301 78.0859375 208.69921875 C77.29654785 207.74861572 77.29654785 207.74861572 76.49121094 206.77880859 C73.11222991 202.74815114 69.54488995 198.88422984 66 195 C65.08197459 193.98833266 64.16400878 192.97661124 63.24609375 191.96484375 C56.55851312 184.61032915 49.82579908 177.48931671 42.28125 171.00390625 C40.08589683 169.07545389 37.95031902 167.09171219 35.81811523 165.09399414 C29.21426876 158.92490714 22.2489904 153.38997512 15 148 C15.58147295 144.78642187 16.47172702 143.15513377 18.77772522 140.86151123 C19.36809067 140.26702179 19.95845612 139.67253235 20.56671143 139.06002808 C21.21766785 138.41985748 21.86862427 137.77968689 22.53930664 137.12011719 C23.22220261 136.43678314 23.90509857 135.7534491 24.60868835 135.04940796 C26.86880648 132.79138069 29.13936701 130.54416637 31.41015625 128.296875 C32.97879687 126.73382925 34.54677668 125.17012005 36.11412048 123.60577393 C40.24216225 119.4891894 44.37913377 115.38169305 48.51800537 111.27600098 C52.73942052 107.08526751 56.95236145 102.88603425 61.16601562 98.6875 C69.43572101 90.44997431 77.71488141 82.22202122 86 74 C68.96382012 56.74437828 46.72940826 43.146722 26.125 30.5 C25.38137207 30.03674316 24.63774414 29.57348633 23.87158203 29.09619141 C20.01828978 26.7233352 16.16579215 24.55449611 12.078125 22.609375 C11.28905762 22.21169922 10.49999023 21.81402344 9.68701172 21.40429688 C8.19170989 20.65775125 6.6721667 19.957191 5.12939453 19.31445312 C3.0859375 18.265625 3.0859375 18.265625 0 15 C0 10.05 0 5.1 0 0 Z " fill="#000000" transform="translate(769,20)"/>
<path d="M0 0 C8.62441207 7.4247758 15.28374089 16.06192098 17 27.625 C17.99877049 41.50954711 15.91543387 53.10818131 7.125 64.2578125 C-3.33631282 75.91140729 -18.82048582 80.91824865 -34 82.625 C-57.01273983 83.68078015 -79.61328058 82.66130108 -97.93359375 66.96875 C-106.60530797 58.76325698 -110.940262 49.38684046 -111.40454102 37.46630859 C-111.58195691 25.53607547 -109.07581569 15.68807922 -101 6.625 C-100.54496094 6.04363281 -100.08992188 5.46226562 -99.62109375 4.86328125 C-78.29358058 -19.91672752 -24.85034092 -18.38589413 0 0 Z M-62 10.625 C-68.82436262 20.58541365 -70.41789055 31.88503401 -68.5 43.70703125 C-66.45088089 52.96299542 -63.01829839 60.27946774 -55 65.625 C-50.15401586 67.73063552 -45.92541478 68.01762009 -40.87890625 66.4375 C-34.21418435 63.5554581 -30.72264116 58.12579901 -28 51.625 C-26.2176954 45.73159557 -25.64418665 40.39121377 -25.6875 34.25 C-25.69313965 33.41364014 -25.6987793 32.57728027 -25.70458984 31.71557617 C-25.89715297 21.92059545 -27.78459456 13.69381707 -35 6.625 C-44.5136781 -0.34775786 -54.48037625 1.75570019 -62 10.625 Z " fill="#000000" transform="translate(420,471.375)"/>
<path d="M0 0 C0.87011719 0.43054688 1.74023438 0.86109375 2.63671875 1.3046875 C13.67077617 7.28639704 20.23884448 16.1288529 24 28 C26.81088122 39.56785734 25.12579814 51.89060768 19.3125 62.25 C10.9401048 75.05483972 -1.89634151 82.34156249 -16.7199707 85.59741211 C-24.10387005 86.88187308 -31.26028056 87.35117614 -38.75 87.3125 C-39.88453613 87.30758545 -41.01907227 87.3026709 -42.18798828 87.29760742 C-61.04120696 87.03586902 -77.68064478 82.99310525 -92 70 C-101.42466264 59.48852941 -103.87689659 48.28966577 -103.390625 34.55078125 C-102.85623558 26.34722722 -99.99531626 19.50904846 -95 13 C-94.34 12.05125 -93.68 11.1025 -93 10.125 C-72.43312176 -13.62039578 -26.11448052 -13.38223746 0 0 Z M-54.25 14.4375 C-60.81849978 24.16462263 -62.19196057 35.53791451 -61 47 C-59.37728912 54.98339043 -57.07468765 63.12846599 -50.3359375 68.26953125 C-45.95169242 71.00244173 -41.94364247 72.59081989 -36.80078125 71.55859375 C-31.65247729 70.06941492 -28.48627084 68.20403248 -25 64 C-24.46375 63.4225 -23.9275 62.845 -23.375 62.25 C-17.17028123 52.09682382 -16.53568397 38.43058421 -18.53125 26.94140625 C-20.81885764 18.77315505 -25.10513458 12.91119184 -32 8 C-40.70012708 5.09995764 -48.40766796 7.49422599 -54.25 14.4375 Z " fill="#000000" transform="translate(871,467)"/>
<path d="M0 0 C30.03 0 60.06 0 91 0 C91 4.95 91 9.9 91 15 C84.4 15 77.8 15 71 15 C77.08677865 26.7634552 83.21829411 38.49789393 89.5625 50.125 C90.06233398 51.04168457 90.56216797 51.95836914 91.07714844 52.90283203 C92.94200249 56.30769047 94.80607577 59.6846158 96.83984375 62.9921875 C98 65 98 65 98 67 C98.66 67 99.32 67 100 67 C100.26554688 66.29834717 100.53109375 65.59669434 100.8046875 64.8737793 C102.07936707 61.80918509 103.55483714 58.94373135 105.125 56.01953125 C105.7449585 54.86291992 106.36491699 53.70630859 107.00366211 52.51464844 C107.66896197 51.28052018 108.33441061 50.04647213 109 48.8125 C109.676595 47.55375465 110.35310825 46.29496536 111.02954102 45.03613281 C116.26425688 35.30789979 121.58636658 25.62989851 127 16 C121.72 15.67 116.44 15.34 111 15 C111 10.05 111 5.1 111 0 C131.79 0 152.58 0 174 0 C174 4.95 174 9.9 174 15 C171.95232422 14.690625 171.95232422 14.690625 169.86328125 14.375 C164.00484256 13.84036926 158.48772178 13.62488537 153 16 C147.35256439 21.56849728 144.57941591 29.51737727 141.49169922 36.68554688 C139.19566054 41.787187 136.38796362 46.55289802 133.5625 51.375 C128.00111755 61.10315705 122.67473698 70.94959718 117.40454102 80.83740234 C116.84307373 81.88879395 116.28160645 82.94018555 115.703125 84.0234375 C115.20458008 84.96106934 114.70603516 85.89870117 114.19238281 86.86474609 C113 89 113 89 112 90 C110.43452952 90.09326716 108.86487228 90.11745582 107.29663086 90.11352539 C106.29566879 90.11344986 105.29470673 90.11337433 104.26341248 90.11329651 C103.1748848 90.10813522 102.08635712 90.10297394 100.96484375 90.09765625 C99.85645645 90.0962413 98.74806915 90.09482635 97.60609436 90.09336853 C94.04986931 90.08775033 90.49370617 90.07519475 86.9375 90.0625 C84.53320403 90.05748734 82.12890708 90.05292403 79.72460938 90.04882812 C73.81638496 90.03777499 67.9081969 90.02101917 62 90 C61.36296143 88.85289551 60.72592285 87.70579102 60.06958008 86.52392578 C56.11673186 79.40698013 52.16364569 72.29019137 48.19921875 65.1796875 C41.4287486 53.02867379 34.7121793 40.85207594 28.1237793 28.60107422 C27.62402588 27.67311035 27.12427246 26.74514648 26.609375 25.7890625 C26.17592773 24.98162598 25.74248047 24.17418945 25.29589844 23.34228516 C24.86825195 22.56933105 24.44060547 21.79637695 24 21 C23.55197021 20.09080811 23.10394043 19.18161621 22.64233398 18.24487305 C21.21269145 15.81166369 21.21269145 15.81166369 18.73168945 15.34057617 C17.86761475 15.32486572 17.00354004 15.30915527 16.11328125 15.29296875 C15.17548828 15.26396484 14.23769531 15.23496094 13.27148438 15.20507812 C12.29501953 15.19927734 11.31855469 15.19347656 10.3125 15.1875 C9.32443359 15.16236328 8.33636719 15.13722656 7.31835938 15.11132812 C4.87933542 15.0524145 2.43962357 15.02335584 0 15 C0 10.05 0 5.1 0 0 Z " fill="#000000" transform="translate(583,461)"/>
<path d="M0 0 C30.03 0 60.06 0 91 0 C91 4.95 91 9.9 91 15 C81.1 15.495 81.1 15.495 71 16 C71.82242188 17.43988281 72.64484375 18.87976563 73.4921875 20.36328125 C79.77863561 31.4061725 85.93090603 42.49318713 91.78125 53.7734375 C94.099541 58.23152789 96.53928807 62.61926494 99 67 C105.7951108 54.91269702 112.39322492 42.72519598 118.90844727 30.48535156 C119.52518311 29.32874023 120.14191895 28.17212891 120.77734375 26.98046875 C121.32640381 25.94817139 121.87546387 24.91587402 122.44116211 23.85229492 C123.89262669 21.19646708 125.44283876 18.59526874 127 16 C121.72 15.67 116.44 15.34 111 15 C111 10.05 111 5.1 111 0 C131.46 0 151.92 0 173 0 C173 4.95 173 9.9 173 15 C166.07 15 159.14 15 152 15 C151.34 16.98 150.68 18.96 150 21 C148.95268651 23.1469417 147.85760635 25.27096482 146.7265625 27.375 C146.40674911 27.97287323 146.08693573 28.57074646 145.75743103 29.18673706 C144.71792604 31.12702321 143.67165571 33.06356326 142.625 35 C141.8993393 36.35025184 141.1740005 37.70067672 140.44897461 39.05126953 C138.30643936 43.0380429 136.15429384 47.01957139 134 51 C133.41202637 52.08764648 132.82405273 53.17529297 132.21826172 54.29589844 C127.14521053 63.66925419 122.02150028 73.01394527 116.8125 82.3125 C116.43746338 82.9832959 116.06242676 83.6540918 115.67602539 84.34521484 C113.12171436 88.87828564 113.12171436 88.87828564 112 90 C110.43452952 90.09326716 108.86487228 90.11745582 107.29663086 90.11352539 C106.29566879 90.11344986 105.29470673 90.11337433 104.26341248 90.11329651 C103.1748848 90.10813522 102.08635712 90.10297394 100.96484375 90.09765625 C99.85645645 90.0962413 98.74806915 90.09482635 97.60609436 90.09336853 C94.04986931 90.08775033 90.49370617 90.07519475 86.9375 90.0625 C84.53320403 90.05748734 82.12890708 90.05292403 79.72460938 90.04882812 C73.81638496 90.03777499 67.9081969 90.02101917 62 90 C61.61799942 89.29268234 61.23599884 88.58536469 60.84242249 87.85661316 C52.01648961 71.51502402 52.01648961 71.51502402 43.03955078 55.25610352 C40.30847774 50.36178801 37.59651018 45.45729189 34.89453125 40.546875 C34.53352829 39.89111984 34.17252533 39.23536469 33.80058289 38.55973816 C32.33831524 35.90346477 30.87605951 33.24718905 29.41635132 30.58950806 C28.39331726 28.72699651 27.36867158 26.8653796 26.34375 25.00390625 C25.74755859 23.91924072 25.15136719 22.8345752 24.53710938 21.71704102 C22.9927089 18.90987358 22.9927089 18.90987358 21 16 C18.78067723 15.49223956 18.78067723 15.49223956 16.2109375 15.48828125 C15.26992187 15.45283203 14.32890625 15.41738281 13.359375 15.38085938 C12.37453125 15.35830078 11.3896875 15.33574219 10.375 15.3125 C9.38242188 15.27833984 8.38984375 15.24417969 7.3671875 15.20898438 C4.91186053 15.12635318 2.45594699 15.06150472 0 15 C0 10.05 0 5.1 0 0 Z " fill="#000000" transform="translate(124,461)"/>
<path d="M0 0 C27.39 0 54.78 0 83 0 C83 4.95 83 9.9 83 15 C76.4 15 69.8 15 63 15 C63 35.13 63 55.26 63 76 C83.40839548 75.88468804 83.40839548 75.88468804 101.40234375 68.140625 C106.69618619 61.6209819 108.62096327 56.27422038 110 48 C114.95 48 119.9 48 125 48 C125 61.86 125 75.72 125 90 C83.75 90 42.5 90 0 90 C0 85.38 0 80.76 0 76 C6.6 76 13.2 76 20 76 C20 55.87 20 35.74 20 15 C13.4 15 6.8 15 0 15 C0 10.05 0 5.1 0 0 Z " fill="#000000" transform="translate(462,461)"/>
</svg>
